<?xml version="1.0" encoding="UTF-8" standalone="no"?>
<!-- Created with Inkscape (http://www.inkscape.org/) -->

<svg
   version="1.1"
   id="svg1"
   width="567.46002"
   height="132.81467"
   viewBox="0 0 567.46002 132.81467"
   xmlns="http://www.w3.org/2000/svg"
   xmlns:svg="http://www.w3.org/2000/svg">
  <defs
     id="defs1" />
  <g
     id="g1">
    <path
       id="path1"
       d="m 0.3491779,-6.8035653 -3.6995e-4,0.3087343 0.2393977,-1.936e-4 c 0.76601825,2.24e-4 0.78569055,0.1092976 0.78568785,0.4678867 l 1.14e-4,5.25019743 c -2.7e-6,0.35858912 -0.019723,0.46740193 -0.78574079,0.46717792 l -0.2393977,1.9353e-4 2.1598e-4,0.30974908575 3.64519391,-3.825686e-4 C 5.668033,-3.853239e-4 7.0433582,-1.4737139 7.043307,-3.3464587 7.0430148,-5.2407149 5.6980703,-6.8038279 3.9943718,-6.8039478 Z m 2.370127,6.49347398 C 2.2509722,-0.31033225 2.2306103,-0.37841279 2.231325,-0.7076435 l -5.878e-4,-5.3892994 c 2.858e-4,-0.3276299 0.020174,-0.3986514 0.4885066,-0.3984104 l 0.9959681,7.25e-5 c 0.6184834,1.54e-4 1.3062556,0.2187578 1.8139331,0.9269898 0.4285033,0.5875043 0.5177899,1.4452788 0.5181939,2.2217597 -8.967e-4,1.1046968 -0.1902487,1.7025099 -0.5484087,2.1907505 -0.1996858,0.26819545 -0.7671926,0.84617939 -1.7742093,0.84571997 z m 6.5553291,-2.99717018 -6.621e-4,-1.0956779 -1.3847398,0.1093656 2.16e-4,0.3097491 c 0.6966817,-3.395e-4 0.7759175,0.068932 0.7763466,0.5571758 l 1.103e-4,2.66972224 c -4.821e-4,0.44682132 -0.1086248,0.447012 -0.776963,0.4472253 L 7.8891579,4.7733529e-5 C 8.2780783,-0.01069547 8.745155,-0.03137997 9.0239449,-0.03131278 c 0.3989961,-3.2255e-4 0.8673288,-8.161e-5 1.2666081,0.0305550546 l -2.16e-4,-0.3097490946 -0.209453,4.963e-4 C 9.343209,-0.3103607 9.3231077,-0.41783341 9.3231104,-0.77642253 l 2.91e-4,-1.53465217 c 1.146e-4,-0.9865203 0.4178408,-1.8731515 1.1754256,-1.8734713 0.07035,-2.25e-5 0.08983,9.083e-4 0.109786,0.00969 -0.03033,0.010746 -0.230533,0.1303915 -0.229669,0.3896998 -6.7e-5,0.2787898 0.209473,0.4284442 0.428374,0.4279058 0.180095,2.158e-4 0.428122,-0.1186252 0.427864,-0.4378222 -2.58e-4,-0.3191969 -0.307952,-0.6083905 -0.736893,-0.6083707 -0.726626,3.67e-5 -1.0845728,0.6667714 -1.223655,1.0961857 z m 5.556037,2.54992895 c 0.03913,0.39824201 0.307862,0.81682904 0.77721,0.81648404 0.208438,8.964e-5 0.815399,-0.13924524 0.814712,-0.94668541 l 1.34e-4,-0.55757978 -0.248845,2.356e-4 -1.35e-4,0.55757976 c 5.36e-4,0.57749032 -0.248329,0.63862945 -0.358073,0.63839119 -0.32763,-2.8584e-4 -0.368141,-0.44779681 -0.368079,-0.49925251 l 1.45e-4,-1.99193624 c -4.07e-4,-0.4178918 -1.01e-4,-0.8064253 -0.35873,-1.1744649 -0.388228,-0.3888389 -0.887648,-0.5483952 -1.365429,-0.548594 -0.815873,1.432e-4 -1.503348,0.4687733 -1.502748,1.1260629 -9.98e-4,0.2982715 0.19875,0.4684644 0.458058,0.4676008 0.27879,6.72e-5 0.458002,-0.1981217 0.457138,-0.45743 1.96e-4,-0.1191914 -0.04953,-0.4490697 -0.507871,-0.4577857 0.270402,-0.3496179 0.756854,-0.4586187 1.075036,-0.4582908 0.489258,-0.00102 1.056995,0.3870247 1.056146,1.2738352 l 3.9e-5,0.368037 c -0.506855,0.031472 -1.205012,0.059727 -1.833355,0.3589009 -0.744594,0.3392283 -0.9955,0.8562077 -0.995438,1.29459603 -3.28e-4,0.80802611 0.967533,1.05707036 1.593863,1.05675335 0.657875,4.1468e-4 1.114837,-0.39872743 1.306222,-0.86645743 z m -0.0708,-1.63433955 -7.3e-5,0.9959681 c -4.4e-4,0.94611325 -0.71669,1.28521539 -1.164526,1.28531928 -0.488243,4.2911e-4 -0.897658,-0.34776162 -0.897114,-0.84603864 1.77e-4,-0.54813194 0.418898,-1.37444554 2.061713,-1.43524874 z m 3.478546,-1.9021107 -5.6e-5,-1.1555666 c -1.24e-4,-0.8767767 0.477856,-1.3543583 0.916244,-1.3544202 0.02834,-1.261e-4 0.178494,-2.131e-4 0.327066,0.069622 -0.119452,0.039196 -0.298529,0.1696492 -0.298879,0.4174798 1.51e-4,0.2299499 0.159618,0.4288115 0.42896,0.4289208 0.288238,2.51e-5 0.43852,-0.1990525 0.438326,-0.4384502 -6.25e-4,-0.3690518 -0.368376,-0.6966424 -0.896011,-0.696474 -0.697268,-6.754e-4 -1.544947,0.5279724 -1.54461,1.5832433 l 1.4e-5,1.1461187 -0.786514,-5.688e-4 2.15e-4,0.3097491 0.786515,5.688e-4 -2.4e-5,3.22730202 c -4.82e-4,0.44682132 -0.109211,0.44599712 -0.777549,0.44621043 l 2.16e-4,0.30974908743 C 17.221256,-0.01104137 17.688918,-0.03071099 17.967708,-0.0306438 c 0.398996,-3.2255e-4 0.867329,-8.161e-5 1.266608,0.03055505055 L 19.2341,-0.30983784 19.024061,-0.31035642 c -0.737089,6.647e-4 -0.757776,-0.10782289 -0.757773,-0.466412 l 6.94e-4,-3.20739148 1.135656,6.136e-4 -2.16e-4,-0.3097491 z m 3.024057,0.309516 1.423894,6.387e-4 -2.16e-4,-0.3097491 -1.423894,-6.387e-4 -3.11e-4,-1.8333526 -0.249861,8.215e-4 c -0.0087,0.8169301 -0.308055,1.8828376 -1.284216,1.9241029 l 5.38e-4,0.2189012 0.846833,-4.265e-4 -4.12e-4,2.7485067 c -5.07e-4,1.22490305 0.926515,1.34461839 1.285104,1.34462107 0.706715,6.3334e-4 0.985553,-0.70702985 0.985623,-1.34440887 l -4.94e-4,-0.5680425 -0.248846,2.356e-4 4.1e-4,0.5491468 c 7.9e-5,0.73607393 -0.299555,1.11474753 -0.667592,1.11478691 C 21.26171,-0.13949632 21.26189,-1.0462174 21.261718,-1.2152637 Z m 0,0"
       style="fill:#ff8c8c;fill-opacity:0.5;fill-rule:nonzero;stroke:none"
       aria-label="Draft"
       transform="matrix(6.6666667,-11.54704,11.54704,6.6666667,149.616,187.82267)" />
    <path
       id="path2"
       d="m 38.53511,14.17339 h -77.07022 c -2.20094,0 -3.98511,-1.78417 -3.98511,-3.98511 v -20.37656 c 0,-2.20094 1.78417,-3.98511 3.98511,-3.98511 h 77.07022 c 2.20094,0 3.98511,1.78417 3.98511,3.98511 v 20.37656 c 0,2.20094 -1.78417,3.98511 -3.98511,3.98511 z"
       style="fill:#fff64d;fill-opacity:1;fill-rule:nonzero;stroke:#000000;stroke-width:0.3985;stroke-linecap:butt;stroke-linejoin:miter;stroke-miterlimit:10;stroke-dasharray:none;stroke-opacity:1"
       transform="matrix(1.3333333,0,0,-1.3333333,56.958667,19.162667)" />
    <path
       id="path3"
       d="M 3.4813906,-3.8675703 2.2040469,-4.1722578 c -0.6210938,-0.1523438 -1.0078125,-0.6914063 -1.0078125,-1.265625 0,-0.703125 0.5390625,-1.3007813 1.3125,-1.3007813 1.6640625,0 1.8867187,1.6289063 1.9453125,2.0742188 0.011719,0.058594 0.011719,0.1171875 0.1171875,0.1171875 0.1289062,0 0.1289062,-0.046875 0.1289062,-0.234375 v -2.0039063 c 0,-0.1640625 0,-0.234375 -0.1054687,-0.234375 -0.070312,0 -0.082031,0.011719 -0.1523438,0.1289063 l -0.3515625,0.5625 c -0.2929687,-0.28125 -0.703125,-0.6914063 -1.59375,-0.6914063 -1.1015625,0 -1.93359372,0.8789063 -1.93359372,1.9335938 0,0.8203125 0.52734372,1.546875 1.30078122,1.8164062 0.1054688,0.046875 0.6210938,0.1640625 1.3125,0.328125 0.2695313,0.070312 0.5742188,0.140625 0.84375,0.515625 0.2109375,0.2578125 0.3164063,0.5859375 0.3164063,0.9140625 0,0.70312504 -0.5039063,1.41796879 -1.3359375,1.41796879 -0.2929688,0 -1.0429688,-0.046875 -1.5703125,-0.5390625 C 0.84467188,-1.1605391 0.82123438,-1.8050703 0.80951563,-2.1566328 c -0.0117188,-0.1054688 -0.09375,-0.1054688 -0.1171875,-0.1054688 -0.12890625,0 -0.12890625,0.070312 -0.12890625,0.2460938 v 1.99218749 c 0,0.17578125 0,0.24609375 0.10546875,0.24609375 0.0703125,0 0.0820313,-0.0234375 0.15234375,-0.12890625 0,-0.01171875 0.0234375,-0.046875 0.35156252,-0.57421875 0.3164062,0.33984375 0.9492187,0.703125 1.8398437,0.703125 1.1601563,0 1.9570313,-0.984375 1.9570313,-2.07421874 0,-0.9960938 -0.65625,-1.8164063 -1.4882813,-2.015625 z m 3.2138672,1.6992187 c 0,-1.6289062 0.8203125,-2.0507812 1.3476563,-2.0507812 0.09375,0 0.7148437,0.011719 1.0664062,0.375 -0.4101562,0.023437 -0.46875,0.328125 -0.46875,0.4570312 0,0.2578125 0.1875,0.4570313 0.4570313,0.4570313 0.2578125,0 0.4570312,-0.1640625 0.4570312,-0.46875 0,-0.6796875 -0.75,-1.0664063 -1.5234375,-1.0664063 -1.2421875,0 -2.15625,1.078125 -2.15625,2.3085938 0,1.27734374 0.984375,2.26171874 2.1445313,2.26171874 1.3359375,0 1.6523437,-1.19531254 1.6523437,-1.28906254 0,-0.1054687 -0.1054687,-0.1054687 -0.1289062,-0.1054687 -0.09375,0 -0.1171875,0.046875 -0.1289063,0.1054687 -0.2929687,0.92578129 -0.9375,1.04296879 -1.3125,1.04296879 -0.5273437,0 -1.40625,-0.421875 -1.40625,-2.02734379 z m 6.5830082,1.40625004 c 0.03516,0.3984375 0.304687,0.8203125 0.773437,0.8203125 0.210938,0 0.820313,-0.140625 0.820313,-0.94921875 V -1.4417891 h -0.246094 v 0.55078129 c 0,0.5859375 -0.246094,0.64453125 -0.363281,0.64453125 -0.328125,0 -0.363282,-0.45703125 -0.363282,-0.50390625 V -2.7425703 c 0,-0.4101563 0,-0.8085938 -0.363281,-1.171875 -0.386719,-0.3867188 -0.878906,-0.5507813 -1.359375,-0.5507813 -0.820312,0 -1.511719,0.46875 -1.511719,1.125 0,0.3046875 0.199219,0.46875 0.457032,0.46875 0.28125,0 0.46875,-0.1992187 0.46875,-0.4570312 0,-0.1171875 -0.05859,-0.4453125 -0.515625,-0.4570313 0.269531,-0.3515625 0.761718,-0.4570312 1.078125,-0.4570312 0.492187,0 1.054687,0.3867187 1.054687,1.2773437 v 0.3632813 c -0.503906,0.035156 -1.207031,0.058594 -1.828125,0.3632812 -0.75,0.3398438 -0.996094,0.8554688 -0.996094,1.28906254 0,0.80859375 0.960938,1.0546875 1.59375,1.0546875 0.65625,0 1.113282,-0.3984375 1.300782,-0.8671875 z m -0.07031,-1.62890624 v 0.9960937 c 0,0.94921879 -0.714844,1.28906254 -1.160156,1.28906254 -0.492188,0 -0.902344,-0.3515625 -0.902344,-0.85546875 0,-0.53906249 0.421875,-1.37109379 2.0625,-1.42968749 z m 3.459961,-1.59375 h 1.429688 V -4.2894453 H 16.667914 V -6.1292891 H 16.42182 c -0.01172,0.8203125 -0.316406,1.8867188 -1.289062,1.921875 v 0.2226563 h 0.84375 v 2.7539062 c 0,1.21875004 0.925781,1.33593754 1.289062,1.33593754 0.703125,0 0.984375,-0.703125 0.984375,-1.33593754 v -0.5742187 h -0.246093 v 0.5507812 c 0,0.73828129 -0.304688,1.11328129 -0.667969,1.11328129 -0.667969,0 -0.667969,-0.90234379 -0.667969,-1.07812499 z m 3.873047,0 h 1.429687 V -4.2894453 H 20.540964 V -6.1292891 H 20.29487 c -0.01172,0.8203125 -0.316406,1.8867188 -1.289062,1.921875 v 0.2226563 h 0.84375 v 2.7539062 c 0,1.21875004 0.925781,1.33593754 1.289062,1.33593754 0.703125,0 0.984375,-0.703125 0.984375,-1.33593754 v -0.5742187 h -0.246094 v 0.5507812 c 0,0.73828129 -0.304687,1.11328129 -0.667968,1.11328129 -0.667969,0 -0.667969,-0.90234379 -0.667969,-1.07812499 z m 3.263672,1.4765625 c 0.05859,-1.4882813 0.902344,-1.734375 1.242187,-1.734375 1.019532,0 1.125,1.3476562 1.125,1.734375 z m -0.01172,0.2109375 h 2.789063 c 0.210937,0 0.246093,0 0.246093,-0.2109375 0,-0.984375 -0.539062,-1.9570313 -1.78125,-1.9570313 -1.160156,0 -2.074218,1.03125 -2.074218,2.2734375 0,1.33593754 1.042968,2.29687504 2.191406,2.29687504 1.21875,0 1.664062,-1.1015625 1.664062,-1.28906254 0,-0.1054687 -0.08203,-0.1171875 -0.128906,-0.1171875 -0.09375,0 -0.117187,0.058594 -0.128906,0.140625 -0.351563,1.01953129 -1.253906,1.01953129 -1.347656,1.01953129 -0.503907,0 -0.902344,-0.29296875 -1.125,-0.66796875 -0.30469,-0.48046874 -0.30469,-1.13671874 -0.30469,-1.48828124 z m 4.992188,-1.0078125 v -1.1015625 l -1.382813,0.1171875 v 0.3046875 c 0.691406,0 0.773438,0.070312 0.773438,0.5625 v 2.66015624 c 0,0.45703125 -0.105469,0.45703125 -0.773438,0.45703125 V -3.828125e-4 C 27.789008,-0.01210156 28.257758,-0.03553906 28.539008,-0.03553906 c 0.398437,0 0.867187,0 1.265625,0.0351562475 V -0.30507031 h -0.210938 c -0.738281,0 -0.761718,-0.1171875 -0.761718,-0.46875 V -2.3089766 c 0,-0.984375 0.421875,-1.875 1.183593,-1.875 0.05859,0 0.08203,0 0.105469,0.011719 -0.03516,0.011719 -0.234375,0.1289062 -0.234375,0.3867187 0,0.28125 0.210938,0.4335938 0.433594,0.4335938 0.175781,0 0.421875,-0.1289063 0.421875,-0.4453125 0,-0.3164063 -0.304688,-0.609375 -0.726563,-0.609375 -0.738281,0 -1.089843,0.6679687 -1.230468,1.1015625 z m 3.996093,-1.1015625 -1.394531,0.1171875 v 0.3046875 c 0.65625,0 0.738281,0.058594 0.738281,0.5507812 v 2.67187504 c 0,0.45703125 -0.105468,0.45703125 -0.773437,0.45703125 V -3.828125e-4 C 31.667914,-0.01210156 32.206977,-0.03553906 32.45307,-0.03553906 c 0.339844,0 0.691407,0.0234375 1.03125,0.0351562475 V -0.30507031 c -0.65625,0 -0.703125,-0.0585938 -0.703125,-0.4453125 z m 0.04687,-1.734375 c 0,-0.3164063 -0.246093,-0.5273438 -0.527343,-0.5273438 -0.316407,0 -0.527344,0.2695313 -0.527344,0.5273438 0,0.2695312 0.210937,0.5273437 0.527344,0.5273437 0.28125,0 0.527343,-0.1992187 0.527343,-0.5273437 z m 2.0625,2.71875 v 2.66015624 c 0,0.45703125 -0.117187,0.45703125 -0.785156,0.45703125 v 0.3046874975 c 0.351563,-0.0117187475 0.855469,-0.0351562475 1.125,-0.0351562475 0.257813,0 0.785156,0.0234375 1.113281,0.0351562475 V -0.30507031 c -0.65625,0 -0.773437,0 -0.773437,-0.45703125 V -2.5902266 c 0,-1.03125 0.714844,-1.59375 1.347656,-1.59375 0.621094,0 0.738281,0.5390625 0.738281,1.1015625 v 2.32031254 c 0,0.45703125 -0.117187,0.45703125 -0.773437,0.45703125 v 0.3046874975 c 0.339844,-0.0117187475 0.855469,-0.0351562475 1.125,-0.0351562475 0.257812,0 0.773437,0.0234375 1.113281,0.0351562475 V -0.30507031 c -0.515625,0 -0.773437,0 -0.785156,-0.3046875 V -2.5081953 c 0,-0.8554688 0,-1.171875 -0.304688,-1.5234375 -0.140625,-0.1757813 -0.46875,-0.375 -1.042968,-0.375 -0.726563,0 -1.195313,0.4335937 -1.476563,1.0546875 v -1.0546875 l -1.40625,0.1171875 v 0.3046875 c 0.703125,0 0.785156,0.070312 0.785156,0.5625 z m 6.650391,1.7109375 c -0.867188,0 -0.867188,-0.9960938 -0.867188,-1.2304688 0,-0.2695312 0.01172,-0.5859375 0.152344,-0.8320312 0.08203,-0.1171875 0.316406,-0.3984375 0.714844,-0.3984375 0.867187,0 0.867187,0.9960937 0.867187,1.21875 0,0.2695312 -0.01172,0.5976562 -0.164062,0.84375 -0.08203,0.1171875 -0.304688,0.3984375 -0.703125,0.3984375 z m -1.160156,0.3867187 c 0,-0.035156 0,-0.2695312 0.175781,-0.46875 0.386719,0.28125 0.796875,0.3046875 0.984375,0.3046875 0.925781,0 1.605469,-0.6796875 1.605469,-1.453125 0,-0.3632812 -0.152344,-0.7382812 -0.398438,-0.9609375 0.351563,-0.3398437 0.714844,-0.3867187 0.890625,-0.3867187 0.02344,0 0.07031,0 0.105469,0 -0.117188,0.046875 -0.164063,0.1523437 -0.164063,0.2695312 0,0.1757813 0.128907,0.2929688 0.292969,0.2929688 0.09375,0 0.28125,-0.070312 0.28125,-0.2929688 0,-0.1757812 -0.117187,-0.4921875 -0.503906,-0.4921875 -0.199219,0 -0.632813,0.058594 -1.054688,0.46875 -0.421875,-0.328125 -0.84375,-0.3632812 -1.054687,-0.3632812 -0.925781,0 -1.617188,0.6914062 -1.617188,1.453125 0,0.4453125 0.222657,0.8203125 0.46875,1.03125 -0.128906,0.1523437 -0.304687,0.4804687 -0.304687,0.8203125 0,0.31640624 0.128906,0.69140624 0.433594,0.89062499 -0.597657,0.17578125 -0.914063,0.59765625 -0.914063,0.99609375 0,0.71484376 0.984375,1.26562496 2.203125,1.26562496 1.171875,0 2.203125,-0.5039062 2.203125,-1.28906246 0,-0.33984375 -0.140625,-0.85546875 -0.644531,-1.125 -0.527344,-0.28125 -1.101563,-0.28125 -1.710938,-0.28125 -0.246093,0 -0.679687,0 -0.75,-0.0117188 -0.316406,-0.046875 -0.527343,-0.35156254 -0.527343,-0.66796874 z m 1.441406,3.1523438 c -1.007813,0 -1.699219,-0.515625 -1.699219,-1.04296876 0,-0.45703125 0.375,-0.8203125 0.820313,-0.85546875 h 0.585937 c 0.855469,0 1.96875,0 1.96875,0.85546875 0,0.53906246 -0.703125,1.04296876 -1.675781,1.04296876 z m 9.761719,-8.765625 c -0.04687,-0.1289063 -0.07031,-0.1992188 -0.222657,-0.1992188 -0.164062,0 -0.1875,0.058594 -0.246093,0.1992188 l -2.0625,5.96484374 c -0.175782,0.50390625 -0.574219,0.65625 -1.113282,0.66796875 V -3.828125e-4 C 48.173773,-0.01210156 48.595648,-0.03553906 48.95893,-0.03553906 c 0.304687,0 0.820312,0.0234375 1.148437,0.0351562475 V -0.30507031 c -0.503906,0 -0.75,-0.2578125 -0.75,-0.515625 0,-0.0234375 0.01172,-0.12890625 0.02344,-0.140625 l 0.457031,-1.31249999 h 2.460937 l 0.527344,1.52343749 c 0.01172,0.046875 0.02344,0.10546875 0.02344,0.140625 0,0.3046875 -0.550782,0.3046875 -0.820313,0.3046875 V -3.828125e-4 C 52.380805,-0.03553906 53.08393,-0.03553906 53.45893,-0.03553906 c 0.433593,0 0.890625,0.01171875 1.300781,0.0351562475 V -0.30507031 H 54.58393 c -0.597657,0 -0.738282,-0.0703125 -0.84375,-0.3984375 z m -0.527344,1.125 1.125,3.234375 h -2.238281 z m 0,0"
       style="fill:#000000;fill-opacity:1;fill-rule:nonzero;stroke:none"
       aria-label="ScatteringA"
       transform="matrix(1.3333333,0,0,1.3333333,20.225333,22.410667)" />
    <path
       id="path4"
       d="M 151.92238,14.17339 H 74.85214 c -2.20094,0 -3.98511,-1.78417 -3.98511,-3.98511 v -20.37656 c 0,-2.20094 1.78417,-3.98511 3.98511,-3.98511 h 77.07024 c 2.20094,0 3.98511,1.78417 3.98511,3.98511 v 20.37656 c 0,2.20094 -1.78417,3.98511 -3.98511,3.98511 z"
       style="fill:#fff64d;fill-opacity:1;fill-rule:nonzero;stroke:#000000;stroke-width:0.3985;stroke-linecap:butt;stroke-linejoin:miter;stroke-miterlimit:10;stroke-dasharray:none;stroke-opacity:1"
       transform="matrix(1.3333333,0,0,-1.3333333,56.958667,19.162667)" />
    <path
       id="path5"
       d="M 3.4801641,-3.8675703 2.2028203,-4.1722578 c -0.6210937,-0.1523438 -1.0078125,-0.6914063 -1.0078125,-1.265625 0,-0.703125 0.5390625,-1.3007813 1.3125,-1.3007813 1.6640625,0 1.8867188,1.6289063 1.9453125,2.0742188 0.011719,0.058594 0.011719,0.1171875 0.1171875,0.1171875 0.1289063,0 0.1289063,-0.046875 0.1289063,-0.234375 v -2.0039063 c 0,-0.1640625 0,-0.234375 -0.1054688,-0.234375 -0.070312,0 -0.082031,0.011719 -0.1523437,0.1289063 l -0.3515625,0.5625 c -0.2929688,-0.28125 -0.703125,-0.6914063 -1.59375,-0.6914063 -1.1015625,0 -1.93359379,0.8789063 -1.93359379,1.9335938 0,0.8203125 0.52734379,1.546875 1.30078129,1.8164062 0.1054687,0.046875 0.6210937,0.1640625 1.3125,0.328125 0.2695312,0.070312 0.5742187,0.140625 0.84375,0.515625 0.2109375,0.2578125 0.3164062,0.5859375 0.3164062,0.9140625 0,0.70312504 -0.5039062,1.41796879 -1.3359375,1.41796879 -0.2929687,0 -1.0429687,-0.046875 -1.5703125,-0.5390625 C 0.84344531,-1.1605391 0.82000781,-1.8050703 0.80828906,-2.1566328 c -0.0117188,-0.1054688 -0.09375,-0.1054688 -0.1171875,-0.1054688 -0.12890625,0 -0.12890625,0.070312 -0.12890625,0.2460938 v 1.99218749 c 0,0.17578125 0,0.24609375 0.10546875,0.24609375 0.0703125,0 0.0820313,-0.0234375 0.15234375,-0.12890625 0,-0.01171875 0.0234375,-0.046875 0.35156249,-0.57421875 0.3164063,0.33984375 0.9492188,0.703125 1.8398438,0.703125 1.1601562,0 1.9570312,-0.984375 1.9570312,-2.07421874 0,-0.9960938 -0.65625,-1.8164063 -1.4882812,-2.015625 z m 3.2138671,1.6992187 c 0,-1.6289062 0.8203125,-2.0507812 1.3476563,-2.0507812 0.09375,0 0.7148437,0.011719 1.0664062,0.375 -0.4101562,0.023437 -0.46875,0.328125 -0.46875,0.4570312 0,0.2578125 0.1875,0.4570313 0.4570313,0.4570313 0.2578125,0 0.4570312,-0.1640625 0.4570312,-0.46875 0,-0.6796875 -0.75,-1.0664063 -1.5234375,-1.0664063 -1.2421875,0 -2.15625,1.078125 -2.15625,2.3085938 0,1.27734374 0.984375,2.26171874 2.1445313,2.26171874 1.3359375,0 1.6523437,-1.19531254 1.6523437,-1.28906254 0,-0.1054687 -0.1054687,-0.1054687 -0.1289062,-0.1054687 -0.09375,0 -0.1171875,0.046875 -0.1289063,0.1054687 -0.2929687,0.92578129 -0.9375,1.04296879 -1.3125,1.04296879 -0.5273437,0 -1.40625,-0.421875 -1.40625,-2.02734379 z m 6.5859378,1.40625004 c 0.03516,0.3984375 0.304687,0.8203125 0.773437,0.8203125 0.210938,0 0.820313,-0.140625 0.820313,-0.94921875 V -1.4417891 h -0.246094 v 0.55078129 c 0,0.5859375 -0.246094,0.64453125 -0.363281,0.64453125 -0.328125,0 -0.363282,-0.45703125 -0.363282,-0.50390625 V -2.7425703 c 0,-0.4101563 0,-0.8085938 -0.363281,-1.171875 -0.386719,-0.3867188 -0.878906,-0.5507813 -1.359375,-0.5507813 -0.820312,0 -1.511719,0.46875 -1.511719,1.125 0,0.3046875 0.199219,0.46875 0.457032,0.46875 0.28125,0 0.46875,-0.1992187 0.46875,-0.4570312 0,-0.1171875 -0.05859,-0.4453125 -0.515625,-0.4570313 0.269531,-0.3515625 0.761718,-0.4570312 1.078125,-0.4570312 0.492187,0 1.054687,0.3867187 1.054687,1.2773437 v 0.3632813 c -0.503906,0.035156 -1.207031,0.058594 -1.828125,0.3632812 -0.75,0.3398438 -0.996094,0.8554688 -0.996094,1.28906254 0,0.80859375 0.960938,1.0546875 1.59375,1.0546875 0.65625,0 1.113282,-0.3984375 1.300782,-0.8671875 z m -0.07031,-1.62890624 v 0.9960937 c 0,0.94921879 -0.714844,1.28906254 -1.160156,1.28906254 -0.492188,0 -0.902344,-0.3515625 -0.902344,-0.85546875 0,-0.53906249 0.421875,-1.37109379 2.0625,-1.42968749 z m 3.457031,-1.59375 h 1.429688 V -4.2894453 H 16.66669 v -1.8398438 h -0.246093 c -0.01172,0.8203125 -0.316407,1.8867188 -1.289063,1.921875 v 0.2226563 h 0.84375 v 2.7539062 c 0,1.21875004 0.925781,1.33593754 1.289063,1.33593754 0.703125,0 0.984375,-0.703125 0.984375,-1.33593754 v -0.5742187 h -0.246094 v 0.5507812 c 0,0.73828129 -0.304688,1.11328129 -0.667969,1.11328129 -0.667969,0 -0.667969,-0.90234379 -0.667969,-1.07812499 z m 3.873047,0 h 1.429688 v -0.3046875 h -1.429688 v -1.8398438 h -0.246093 c -0.01172,0.8203125 -0.316407,1.8867188 -1.289063,1.921875 v 0.2226563 h 0.84375 v 2.7539062 c 0,1.21875004 0.925781,1.33593754 1.289063,1.33593754 0.703125,0 0.984375,-0.703125 0.984375,-1.33593754 v -0.5742187 h -0.246094 v 0.5507812 c 0,0.73828129 -0.304688,1.11328129 -0.667969,1.11328129 -0.667969,0 -0.667969,-0.90234379 -0.667969,-1.07812499 z m 3.266602,1.4765625 c 0.05859,-1.4882813 0.902344,-1.734375 1.242187,-1.734375 1.019532,0 1.125,1.3476562 1.125,1.734375 z m -0.01172,0.2109375 h 2.789063 c 0.210937,0 0.246093,0 0.246093,-0.2109375 0,-0.984375 -0.539062,-1.9570313 -1.78125,-1.9570313 -1.160156,0 -2.074218,1.03125 -2.074218,2.2734375 0,1.33593754 1.042968,2.29687504 2.191406,2.29687504 1.21875,0 1.664062,-1.1015625 1.664062,-1.28906254 0,-0.1054687 -0.08203,-0.1171875 -0.128906,-0.1171875 -0.09375,0 -0.117187,0.058594 -0.128906,0.140625 -0.351563,1.01953129 -1.253906,1.01953129 -1.347656,1.01953129 -0.503907,0 -0.902344,-0.29296875 -1.125,-0.66796875 -0.30469,-0.48046874 -0.30469,-1.13671874 -0.30469,-1.48828124 z m 4.989258,-1.0078125 v -1.1015625 l -1.382813,0.1171875 v 0.3046875 c 0.691407,0 0.773438,0.070312 0.773438,0.5625 v 2.66015624 c 0,0.45703125 -0.105469,0.45703125 -0.773438,0.45703125 V -3.828125e-4 C 27.787781,-0.01210156 28.256531,-0.03553906 28.537781,-0.03553906 c 0.398438,0 0.867188,0 1.265625,0.0351562475 V -0.30507031 h -0.210937 c -0.738282,0 -0.761719,-0.1171875 -0.761719,-0.46875 V -2.3089766 c 0,-0.984375 0.421875,-1.875 1.183594,-1.875 0.05859,0 0.08203,0 0.105468,0.011719 -0.03516,0.011719 -0.234375,0.1289062 -0.234375,0.3867187 0,0.28125 0.210938,0.4335938 0.433594,0.4335938 0.175781,0 0.421875,-0.1289063 0.421875,-0.4453125 0,-0.3164063 -0.304687,-0.609375 -0.726562,-0.609375 -0.738282,0 -1.089844,0.6679687 -1.230469,1.1015625 z m 3.996094,-1.1015625 -1.394532,0.1171875 v 0.3046875 c 0.65625,0 0.738282,0.058594 0.738282,0.5507812 v 2.67187504 c 0,0.45703125 -0.105469,0.45703125 -0.773438,0.45703125 V -3.828125e-4 C 31.666687,-0.01210156 32.20575,-0.03553906 32.451844,-0.03553906 c 0.339843,0 0.691406,0.0234375 1.03125,0.0351562475 V -0.30507031 c -0.65625,0 -0.703125,-0.0585938 -0.703125,-0.4453125 z m 0.04687,-1.734375 c 0,-0.3164063 -0.246094,-0.5273438 -0.527344,-0.5273438 -0.316406,0 -0.527344,0.2695313 -0.527344,0.5273438 0,0.2695312 0.210938,0.5273437 0.527344,0.5273437 0.28125,0 0.527344,-0.1992187 0.527344,-0.5273437 z m 2.065429,2.71875 v 2.66015624 c 0,0.45703125 -0.117187,0.45703125 -0.785156,0.45703125 v 0.3046874975 c 0.351563,-0.0117187475 0.855469,-0.0351562475 1.125,-0.0351562475 0.257813,0 0.785156,0.0234375 1.113281,0.0351562475 V -0.30507031 c -0.65625,0 -0.773437,0 -0.773437,-0.45703125 V -2.5902266 c 0,-1.03125 0.714844,-1.59375 1.347656,-1.59375 0.621094,0 0.738281,0.5390625 0.738281,1.1015625 v 2.32031254 c 0,0.45703125 -0.117187,0.45703125 -0.773437,0.45703125 v 0.3046874975 c 0.339844,-0.0117187475 0.855469,-0.0351562475 1.125,-0.0351562475 0.257812,0 0.773437,0.0234375 1.113281,0.0351562475 V -0.30507031 c -0.515625,0 -0.773437,0 -0.785156,-0.3046875 V -2.5081953 c 0,-0.8554688 0,-1.171875 -0.304688,-1.5234375 -0.140625,-0.1757813 -0.46875,-0.375 -1.042968,-0.375 -0.726563,0 -1.195313,0.4335937 -1.476563,1.0546875 v -1.0546875 l -1.40625,0.1171875 v 0.3046875 c 0.703125,0 0.785156,0.070312 0.785156,0.5625 z m 6.647461,1.7109375 c -0.867187,0 -0.867187,-0.9960938 -0.867187,-1.2304688 0,-0.2695312 0.01172,-0.5859375 0.152344,-0.8320312 0.08203,-0.1171875 0.316406,-0.3984375 0.714843,-0.3984375 0.867188,0 0.867188,0.9960937 0.867188,1.21875 0,0.2695312 -0.01172,0.5976562 -0.164063,0.84375 -0.08203,0.1171875 -0.304687,0.3984375 -0.703125,0.3984375 z m -1.160156,0.3867187 c 0,-0.035156 0,-0.2695312 0.175781,-0.46875 0.386719,0.28125 0.796875,0.3046875 0.984375,0.3046875 0.925782,0 1.605469,-0.6796875 1.605469,-1.453125 0,-0.3632812 -0.152344,-0.7382812 -0.398437,-0.9609375 0.351562,-0.3398437 0.714843,-0.3867187 0.890625,-0.3867187 0.02344,0 0.07031,0 0.105468,0 -0.117187,0.046875 -0.164062,0.1523437 -0.164062,0.2695312 0,0.1757813 0.128906,0.2929688 0.292969,0.2929688 0.09375,0 0.28125,-0.070312 0.28125,-0.2929688 0,-0.1757812 -0.117188,-0.4921875 -0.503907,-0.4921875 -0.199218,0 -0.632812,0.058594 -1.054687,0.46875 -0.421875,-0.328125 -0.84375,-0.3632812 -1.054688,-0.3632812 -0.925781,0 -1.617187,0.6914062 -1.617187,1.453125 0,0.4453125 0.222656,0.8203125 0.46875,1.03125 -0.128906,0.1523437 -0.304688,0.4804687 -0.304688,0.8203125 0,0.31640624 0.128907,0.69140624 0.433594,0.89062499 -0.597656,0.17578125 -0.914062,0.59765625 -0.914062,0.99609375 0,0.71484376 0.984375,1.26562496 2.203125,1.26562496 1.171875,0 2.203125,-0.5039062 2.203125,-1.28906246 0,-0.33984375 -0.140625,-0.85546875 -0.644532,-1.125 -0.527343,-0.28125 -1.101562,-0.28125 -1.710937,-0.28125 -0.246094,0 -0.679688,0 -0.75,-0.0117188 -0.316406,-0.046875 -0.527344,-0.35156254 -0.527344,-0.66796874 z m 1.441406,3.1523438 c -1.007812,0 -1.699218,-0.515625 -1.699218,-1.04296876 0,-0.45703125 0.375,-0.8203125 0.820312,-0.85546875 h 0.585938 c 0.855468,0 1.96875,0 1.96875,0.85546875 0,0.53906246 -0.703125,1.04296876 -1.675782,1.04296876 z m 8.018555,-5.4726563 v -2.4492187 c 0,-0.328125 0.01172,-0.3984375 0.480469,-0.3984375 h 1.242187 c 0.960938,0 1.3125,0.84375 1.3125,1.3710937 0,0.6328125 -0.492187,1.4765625 -1.59375,1.4765625 z m 2.34375,0.09375 c 0.972656,-0.1992187 1.652344,-0.8320312 1.652344,-1.5703125 0,-0.8671875 -0.914063,-1.6875 -2.203125,-1.6875 h -3.644531 v 0.3164063 h 0.234375 c 0.761718,0 0.785156,0.1054687 0.785156,0.46875 v 5.24999999 c 0,0.3515625 -0.02344,0.46875 -0.785156,0.46875 h -0.234375 v 0.3046874975 h 3.902343 c 1.324219,0 2.214844,-0.8906249975 2.214844,-1.8281249875 0,-0.8671875 -0.808594,-1.6054688 -1.921875,-1.7226563 z m -0.609375,3.24609379 h -1.253906 c -0.46875,0 -0.480469,-0.0703125 -0.480469,-0.3984375 V -3.4222578 h 1.875 c 0.984375,0 1.394531,0.9257812 1.394531,1.59375 0,0.703125 -0.515625,1.52343749 -1.535156,1.52343749 z m 0,0"
       style="fill:#000000;fill-opacity:1;fill-rule:nonzero;stroke:none"
       aria-label="ScatteringB"
       transform="matrix(1.3333333,0,0,1.3333333,171.684,22.410667)" />
    <path
       id="path6"
       d="m 265.30965,14.17339 h -77.07024 c -2.20094,0 -3.98511,-1.78417 -3.98511,-3.98511 v -20.37656 c 0,-2.20094 1.78417,-3.98511 3.98511,-3.98511 h 77.07024 c 2.20094,0 3.9851,1.78417 3.9851,3.98511 v 20.37656 c 0,2.20094 -1.78416,3.98511 -3.9851,3.98511 z"
       style="fill:#fff64d;fill-opacity:1;fill-rule:nonzero;stroke:#000000;stroke-width:0.3985;stroke-linecap:butt;stroke-linejoin:miter;stroke-miterlimit:10;stroke-dasharray:none;stroke-opacity:1"
       transform="matrix(1.3333333,0,0,-1.3333333,56.958667,19.162667)" />
    <path
       id="path7"
       d="M 5.8005938,-6.7724297 H 0.3279375 v 0.3046875 h 0.234375 c 0.7734375,0 0.796875,0.1171875 0.796875,0.46875 v 5.22656251 c 0,0.3515625 -0.023437,0.46875 -0.796875,0.46875 h -0.234375 v 0.3046875 c 0.3515625,-0.03515625 1.125,-0.03515625 1.5117188,-0.03515625 0.4101562,0 1.3125,0 1.6757812,0.03515625 v -0.3046875 h -0.328125 c -0.9492187,0 -0.9492187,-0.12890625 -0.9492187,-0.48046875 V -3.2333672 h 0.8554687 c 0.9609375,0 1.0546875,0.3164063 1.0546875,1.1601563 H 4.4060625 V -4.7099297 H 4.14825 c 0,0.8320313 -0.09375,1.1601563 -1.0546875,1.1601563 H 2.2380938 v -2.5195313 c 0,-0.328125 0.023437,-0.3984375 0.4921875,-0.3984375 h 1.1953125 c 1.4882812,0 1.7460937,0.5625 1.8984375,1.9335938 h 0.2578125 z m 1.5410156,3.46875 v -1.1015625 l -1.3828125,0.1171875 v 0.3046875 c 0.6914062,0 0.7734375,0.070312 0.7734375,0.5625 v 2.66015626 c 0,0.45703125 -0.1054688,0.45703125 -0.7734375,0.45703125 v 0.3046875 c 0.3867187,-0.01171875 0.8554687,-0.03515625 1.1367187,-0.03515625 0.3984375,0 0.8671875,0 1.265625,0.03515625 v -0.3046875 H 8.1502031 c -0.7382812,0 -0.7617187,-0.1171875 -0.7617187,-0.46875 V -2.3075859 c 0,-0.984375 0.421875,-1.875 1.1835937,-1.875 0.058594,0 0.082031,0 0.1054688,0.011719 -0.035156,0.011719 -0.234375,0.1289063 -0.234375,0.3867188 0,0.28125 0.2109375,0.4335937 0.4335937,0.4335937 0.1757813,0 0.421875,-0.1289062 0.421875,-0.4453125 0,-0.3164062 -0.3046875,-0.609375 -0.7265625,-0.609375 -0.7382812,0 -1.0898437,0.6679688 -1.2304687,1.1015622 z m 3.3515626,0.796875 c 0.05859,-1.4882812 0.902344,-1.734375 1.242187,-1.734375 1.019532,0 1.125,1.3476563 1.125,1.734375 z m -0.01172,0.2109375 h 2.789063 c 0.210937,0 0.246093,0 0.246093,-0.2109375 0,-0.984375 -0.539062,-1.9570312 -1.78125,-1.9570312 -1.160156,0 -2.0742184,1.03125 -2.0742184,2.2734375 0,1.33593746 1.0429684,2.29687496 2.1914064,2.29687496 1.21875,0 1.664062,-1.1015625 1.664062,-1.28906246 0,-0.1054688 -0.08203,-0.1171875 -0.128906,-0.1171875 -0.09375,0 -0.117187,0.058594 -0.128906,0.140625 -0.351563,1.01953121 -1.253906,1.01953121 -1.347656,1.01953121 -0.503907,0 -0.902344,-0.29296875 -1.125,-0.66796875 C 10.681453,-1.2880547 10.681453,-1.9443047 10.681453,-2.2958672 Z m 5.399414,0.3632813 c 0.222656,0.035156 1.03125,0.1992187 1.03125,0.9140625 0,0.51562496 -0.351562,0.91406246 -1.125,0.91406246 -0.832031,0 -1.195312,-0.57421875 -1.382812,-1.41796876 -0.03516,-0.1289062 -0.03516,-0.1757812 -0.140625,-0.1757812 -0.128907,0 -0.128907,0.070312 -0.128907,0.2578125 v 1.31249996 c 0,0.1640625 0,0.234375 0.105469,0.234375 0.05859,0 0.07031,0 0.257813,-0.19921875 0.01172,-0.01171875 0.01172,-0.03515625 0.199218,-0.22265625 0.433594,0.421875 0.878907,0.421875 1.089844,0.421875 1.148438,0 1.605469,-0.66796875 1.605469,-1.38281246 0,-0.5273438 -0.292969,-0.8203125 -0.421875,-0.9492188 -0.328125,-0.3164062 -0.714844,-0.3984375 -1.136719,-0.46875 -0.550781,-0.1171875 -1.21875,-0.2460937 -1.21875,-0.8203125 0,-0.3515625 0.257813,-0.7617187 1.113281,-0.7617187 1.101563,0 1.148438,0.9023437 1.171875,1.2070312 0,0.09375 0.09375,0.09375 0.117188,0.09375 0.128906,0 0.128906,-0.046875 0.128906,-0.2460937 v -0.9960938 c 0,-0.1757812 0,-0.2460937 -0.117187,-0.2460937 -0.04687,0 -0.07031,0 -0.199219,0.1171875 -0.02344,0.046875 -0.128906,0.1289062 -0.164063,0.1640625 -0.375,-0.28125 -0.785156,-0.28125 -0.9375,-0.28125 -1.21875,0 -1.59375,0.6679687 -1.59375,1.2304687 0,0.3398438 0.164063,0.6210938 0.433594,0.84375 0.316406,0.2578125 0.597656,0.3164063 1.3125,0.4570313 z m 2.956055,-1.4882813 v 2.66015626 c 0,0.45703125 -0.117188,0.45703125 -0.785156,0.45703125 v 0.3046875 c 0.351562,-0.01171875 0.855468,-0.03515625 1.125,-0.03515625 0.257812,0 0.785156,0.0234375 1.113281,0.03515625 v -0.3046875 c -0.65625,0 -0.773438,0 -0.773438,-0.45703125 V -2.5888359 c 0,-1.03125 0.714844,-1.59375 1.347657,-1.59375 0.621093,0 0.738281,0.5390625 0.738281,1.1015625 v 2.32031246 c 0,0.45703125 -0.117188,0.45703125 -0.773438,0.45703125 v 0.3046875 c 0.339844,-0.01171875 0.855469,-0.03515625 1.125,-0.03515625 0.257813,0 0.773438,0.0234375 1.113282,0.03515625 v -0.3046875 c -0.515625,0 -0.773438,0 -0.785157,-0.3046875 V -2.5068047 c 0,-0.8554687 0,-1.171875 -0.304687,-1.5234375 -0.140625,-0.1757812 -0.46875,-0.375 -1.042969,-0.375 -0.726562,0 -1.195312,0.4335938 -1.476562,1.0546875 v -1.0546875 l -1.40625,0.1171875 v 0.3046875 c 0.703125,0 0.785156,0.070312 0.785156,0.5625 z m 5.545898,0.9140625 c 0.05859,-1.4882812 0.902344,-1.734375 1.242188,-1.734375 1.019531,0 1.125,1.3476563 1.125,1.734375 z m -0.01172,0.2109375 h 2.789062 c 0.210938,0 0.246094,0 0.246094,-0.2109375 0,-0.984375 -0.539063,-1.9570312 -1.78125,-1.9570312 -1.160156,0 -2.074219,1.03125 -2.074219,2.2734375 0,1.33593746 1.042969,2.29687496 2.191406,2.29687496 1.21875,0 1.664063,-1.1015625 1.664063,-1.28906246 0,-0.1054688 -0.08203,-0.1171875 -0.128906,-0.1171875 -0.09375,0 -0.117188,0.058594 -0.128907,0.140625 -0.351562,1.01953121 -1.253906,1.01953121 -1.347656,1.01953121 -0.503906,0 -0.902344,-0.29296875 -1.125,-0.66796875 C 24.571102,-1.2880547 24.571102,-1.9443047 24.571102,-2.2958672 Z m 5.085937,-4.6171875 -1.429687,0.1054688 v 0.3164062 c 0.703125,0 0.773437,0.070312 0.773437,0.5507813 v 5.17968746 c 0,0.45703125 -0.105469,0.45703125 -0.773437,0.45703125 v 0.3046875 c 0.328125,-0.01171875 0.855468,-0.03515625 1.101562,-0.03515625 0.257813,0 0.738281,0.0234375 1.113281,0.03515625 v -0.3046875 c -0.667968,0 -0.785156,0 -0.785156,-0.45703125 z m 7.256836,0.5390625 c 0,-0.234375 0,-0.2578125 -0.234375,-0.2578125 -0.609375,0.6328125 -1.488281,0.6328125 -1.804687,0.6328125 v 0.3164063 c 0.199218,0 0.785156,0 1.300781,-0.2578125 v 5.15624996 c 0,0.3515625 -0.03516,0.48046875 -0.925781,0.48046875 h -0.316407 v 0.3046875 c 0.351563,-0.03515625 1.207032,-0.03515625 1.605469,-0.03515625 0.398438,0 1.265625,0 1.617188,0.03515625 v -0.3046875 h -0.316407 c -0.902343,0 -0.925781,-0.1171875 -0.925781,-0.48046875 z m 0,0"
       style="fill:#000000;fill-opacity:1;fill-rule:nonzero;stroke:none"
       aria-label="Fresnel1"
       transform="matrix(1.3333333,0,0,1.3333333,333.344,23.776)" />
    <path
       id="path8"
       d="M 378.69691,14.17339 H 301.6267 c -2.20095,0 -3.98511,-1.78417 -3.98511,-3.98511 v -20.37656 c 0,-2.20094 1.78416,-3.98511 3.98511,-3.98511 h 77.07021 c 2.20095,0 3.98511,1.78417 3.98511,3.98511 v 20.37656 c 0,2.20094 -1.78416,3.98511 -3.98511,3.98511 z"
       style="fill:#fff64d;fill-opacity:1;fill-rule:nonzero;stroke:#000000;stroke-width:0.3985;stroke-linecap:butt;stroke-linejoin:miter;stroke-miterlimit:10;stroke-dasharray:none;stroke-opacity:1"
       transform="matrix(1.3333333,0,0,-1.3333333,56.958667,19.162667)" />
    <path
       id="path9"
       d="M 5.7993594,-6.7724297 H 0.32670312 v 0.3046875 h 0.234375 c 0.77343748,0 0.79687498,0.1171875 0.79687498,0.46875 v 5.22656251 c 0,0.3515625 -0.023437,0.46875 -0.79687498,0.46875 h -0.234375 v 0.3046875 c 0.3515625,-0.03515625 1.12499998,-0.03515625 1.51171878,-0.03515625 0.4101562,0 1.3125,0 1.6757812,0.03515625 v -0.3046875 h -0.328125 c -0.9492187,0 -0.9492187,-0.12890625 -0.9492187,-0.48046875 V -3.2333672 h 0.8554687 c 0.9609375,0 1.0546875,0.3164063 1.0546875,1.1601563 H 4.4048281 V -4.7099297 H 4.1470156 c 0,0.8320313 -0.09375,1.1601563 -1.0546875,1.1601563 H 2.2368594 v -2.5195313 c 0,-0.328125 0.023437,-0.3984375 0.4921875,-0.3984375 h 1.1953125 c 1.4882812,0 1.7460937,0.5625 1.8984375,1.9335938 h 0.2578125 z m 1.5410156,3.46875 v -1.1015625 l -1.3828125,0.1171875 v 0.3046875 c 0.6914062,0 0.7734375,0.070312 0.7734375,0.5625 v 2.66015626 c 0,0.45703125 -0.1054688,0.45703125 -0.7734375,0.45703125 v 0.3046875 c 0.3867187,-0.01171875 0.8554687,-0.03515625 1.1367187,-0.03515625 0.3984375,0 0.8671875,0 1.265625,0.03515625 v -0.3046875 H 8.1489687 c -0.7382812,0 -0.7617187,-0.1171875 -0.7617187,-0.46875 V -2.3075859 c 0,-0.984375 0.421875,-1.875 1.1835937,-1.875 0.058594,0 0.082031,0 0.1054688,0.011719 -0.035156,0.011719 -0.234375,0.1289063 -0.234375,0.3867188 0,0.28125 0.2109375,0.4335937 0.4335937,0.4335937 0.1757813,0 0.421875,-0.1289062 0.421875,-0.4453125 0,-0.3164062 -0.3046875,-0.609375 -0.7265625,-0.609375 -0.7382812,0 -1.0898437,0.6679688 -1.2304687,1.1015622 z m 3.351562,0.796875 c 0.05859,-1.4882812 0.902344,-1.734375 1.242188,-1.734375 1.019531,0 1.125,1.3476563 1.125,1.734375 z m -0.01172,0.2109375 h 2.789062 c 0.210938,0 0.246094,0 0.246094,-0.2109375 0,-0.984375 -0.539063,-1.9570312 -1.78125,-1.9570312 -1.160156,0 -2.0742188,1.03125 -2.0742188,2.2734375 0,1.33593746 1.0429688,2.29687496 2.1914058,2.29687496 1.21875,0 1.664063,-1.1015625 1.664063,-1.28906246 0,-0.1054688 -0.08203,-0.1171875 -0.128906,-0.1171875 -0.09375,0 -0.117188,0.058594 -0.128907,0.140625 -0.351562,1.01953121 -1.253906,1.01953121 -1.347656,1.01953121 -0.503906,0 -0.902344,-0.29296875 -1.125,-0.66796875 C 10.680219,-1.2880547 10.680219,-1.9443047 10.680219,-2.2958672 Z m 5.399414,0.3632813 c 0.222656,0.035156 1.03125,0.1992187 1.03125,0.9140625 0,0.51562496 -0.351563,0.91406246 -1.125,0.91406246 -0.832031,0 -1.195313,-0.57421875 -1.382813,-1.41796876 -0.03516,-0.1289062 -0.03516,-0.1757812 -0.140625,-0.1757812 -0.128906,0 -0.128906,0.070312 -0.128906,0.2578125 v 1.31249996 c 0,0.1640625 0,0.234375 0.105469,0.234375 0.05859,0 0.07031,0 0.257812,-0.19921875 0.01172,-0.01171875 0.01172,-0.03515625 0.199219,-0.22265625 0.433594,0.421875 0.878906,0.421875 1.089844,0.421875 1.148437,0 1.605469,-0.66796875 1.605469,-1.38281246 0,-0.5273438 -0.292969,-0.8203125 -0.421875,-0.9492188 -0.328125,-0.3164062 -0.714844,-0.3984375 -1.136719,-0.46875 -0.550781,-0.1171875 -1.21875,-0.2460937 -1.21875,-0.8203125 0,-0.3515625 0.257812,-0.7617187 1.113281,-0.7617187 1.101563,0 1.148438,0.9023437 1.171875,1.2070312 0,0.09375 0.09375,0.09375 0.117188,0.09375 0.128906,0 0.128906,-0.046875 0.128906,-0.2460937 v -0.9960938 c 0,-0.1757812 0,-0.2460937 -0.117188,-0.2460937 -0.04687,0 -0.07031,0 -0.199218,0.1171875 -0.02344,0.046875 -0.128907,0.1289062 -0.164063,0.1640625 -0.375,-0.28125 -0.785156,-0.28125 -0.9375,-0.28125 -1.21875,0 -1.59375,0.6679687 -1.59375,1.2304687 0,0.3398438 0.164063,0.6210938 0.433594,0.84375 0.316406,0.2578125 0.597656,0.3164063 1.3125,0.4570313 z m 2.958984,-1.4882813 v 2.66015626 c 0,0.45703125 -0.117187,0.45703125 -0.785156,0.45703125 v 0.3046875 c 0.351562,-0.01171875 0.855469,-0.03515625 1.125,-0.03515625 0.257812,0 0.785156,0.0234375 1.113281,0.03515625 v -0.3046875 c -0.65625,0 -0.773437,0 -0.773437,-0.45703125 V -2.5888359 c 0,-1.03125 0.714843,-1.59375 1.347656,-1.59375 0.621094,0 0.738281,0.5390625 0.738281,1.1015625 v 2.32031246 c 0,0.45703125 -0.117187,0.45703125 -0.773437,0.45703125 v 0.3046875 c 0.339843,-0.01171875 0.855468,-0.03515625 1.125,-0.03515625 0.257812,0 0.773437,0.0234375 1.113281,0.03515625 v -0.3046875 c -0.515625,0 -0.773438,0 -0.785156,-0.3046875 V -2.5068047 c 0,-0.8554687 0,-1.171875 -0.304688,-1.5234375 -0.140625,-0.1757812 -0.46875,-0.375 -1.042969,-0.375 -0.726562,0 -1.195312,0.4335938 -1.476562,1.0546875 v -1.0546875 l -1.40625,0.1171875 v 0.3046875 c 0.703125,0 0.785156,0.070312 0.785156,0.5625 z m 5.545899,0.9140625 c 0.05859,-1.4882812 0.902343,-1.734375 1.242187,-1.734375 1.019531,0 1.125,1.3476563 1.125,1.734375 z m -0.01172,0.2109375 h 2.789062 c 0.210938,0 0.246094,0 0.246094,-0.2109375 0,-0.984375 -0.539062,-1.9570312 -1.78125,-1.9570312 -1.160156,0 -2.074219,1.03125 -2.074219,2.2734375 0,1.33593746 1.042969,2.29687496 2.191407,2.29687496 1.21875,0 1.664062,-1.1015625 1.664062,-1.28906246 0,-0.1054688 -0.08203,-0.1171875 -0.128906,-0.1171875 -0.09375,0 -0.117188,0.058594 -0.128906,0.140625 -0.351563,1.01953121 -1.253907,1.01953121 -1.347657,1.01953121 -0.503906,0 -0.902343,-0.29296875 -1.125,-0.66796875 C 24.572797,-1.2880547 24.572797,-1.9443047 24.572797,-2.2958672 Z m 5.083008,-4.6171875 -1.429688,0.1054688 v 0.3164062 c 0.703125,0 0.773438,0.070312 0.773438,0.5507813 v 5.17968746 c 0,0.45703125 -0.105469,0.45703125 -0.773438,0.45703125 v 0.3046875 c 0.328125,-0.01171875 0.855469,-0.03515625 1.101563,-0.03515625 0.257812,0 0.738281,0.0234375 1.113281,0.03515625 v -0.3046875 c -0.667969,0 -0.785156,0 -0.785156,-0.45703125 z m 5.592773,6.15234376 1.054688,-1.03124996 c 1.558593,-1.3710938 2.15625,-1.9101563 2.15625,-2.90625 0,-1.1367188 -0.902344,-1.9335938 -2.121094,-1.9335938 -1.125,0 -1.851563,0.9140625 -1.851563,1.8046875 0,0.5507813 0.492188,0.5507813 0.527344,0.5507813 0.164063,0 0.515625,-0.1171875 0.515625,-0.5273438 0,-0.2578125 -0.1875,-0.515625 -0.527344,-0.515625 -0.08203,0 -0.105468,0 -0.128906,0.011719 0.222656,-0.6445313 0.761719,-1.0195313 1.335938,-1.0195313 0.914062,0 1.335937,0.8085938 1.335937,1.6289063 0,0.796875 -0.492187,1.5820312 -1.042969,2.203125 l -1.910156,2.13281246 c -0.105469,0.10546875 -0.105469,0.12890625 -0.105469,0.36328125 h 3.691407 L 38.459513,-1.733367 H 38.2017 c -0.04687,0.3046875 -0.117187,0.73828126 -0.210937,0.89062501 -0.07031,0.0820313 -0.726563,0.0820313 -0.949219,0.0820313 z m 0,0"
       style="fill:#000000;fill-opacity:1;fill-rule:nonzero;stroke:none"
       aria-label="Fresnel2"
       transform="matrix(1.3333333,0,0,1.3333333,484.52533,23.776)" />
    <path
       id="path10"
       d="m 38.53511,-56.69363 h -77.07022 c -2.20094,0 -3.98511,-1.78417 -3.98511,-3.98511 v -20.37657 c 0,-2.20095 1.78417,-3.98511 3.98511,-3.98511 h 77.07022 c 2.20094,0 3.98511,1.78416 3.98511,3.98511 v 20.37657 c 0,2.20094 -1.78417,3.98511 -3.98511,3.98511 z"
       style="fill:#fff64d;fill-opacity:1;fill-rule:nonzero;stroke:#000000;stroke-width:0.3985;stroke-linecap:butt;stroke-linejoin:miter;stroke-miterlimit:10;stroke-dasharray:none;stroke-opacity:1"
       transform="matrix(1.3333333,0,0,-1.3333333,56.958667,19.162667)" />
    <path
       id="path11"
       d="M 2.3089687,-6.6784687 C 2.2269375,-6.7956562 2.2152187,-6.807375 2.0277187,-6.807375 H 0.3285 v 0.3164063 h 0.29296875 c 0.140625,0 0.33984375,0.011719 0.49218745,0.011719 0.234375,0.035156 0.2460938,0.046875 0.2460938,0.234375 v 5.203125 c 0,0.26953125 0,0.73828125 -1.03125,0.73828125 v 0.3046875 C 0.6800625,-0.0105 1.1605312,-0.0339375 1.500375,-0.0339375 c 0.328125,0 0.8085937,0.0234375 1.1601562,0.03515625 v -0.3046875 c -1.03125,0 -1.03125,-0.46875 -1.03125,-0.73828125 v -5.1796875 c 0.058594,0.046875 0.070312,0.058594 0.1054688,0.1171875 l 4.0664062,5.9765625 c 0.082031,0.1171875 0.09375,0.12890625 0.1640625,0.12890625 0.140625,0 0.140625,-0.0703125 0.140625,-0.2578125 V -5.7526875 c 0,-0.2695312 0,-0.7382812 1.03125,-0.7382812 V -6.807375 c -0.3515625,0.011719 -0.84375,0.035156 -1.171875,0.035156 -0.328125,0 -0.8203125,-0.023437 -1.1601562,-0.035156 v 0.3164063 c 1.0195312,0 1.0195312,0.46875 1.0195312,0.7382812 v 4.2539063 z m 6.2753907,4.171875 c 0.058594,-1.4882813 0.9023437,-1.734375 1.2421875,-1.734375 1.0195311,0 1.1250001,1.3476562 1.1250001,1.734375 z m -0.011719,0.2109375 h 2.7890626 c 0.210938,0 0.246094,0 0.246094,-0.2109375 0,-0.984375 -0.539063,-1.9570313 -1.7812503,-1.9570313 -1.1601563,0 -2.0742188,1.03125 -2.0742188,2.2734375 0,1.3359375 1.0429688,2.296875 2.1914063,2.296875 1.2187498,0 1.6640628,-1.1015625 1.6640628,-1.2890625 0,-0.1054687 -0.08203,-0.1171875 -0.128906,-0.1171875 -0.09375,0 -0.117188,0.058594 -0.128907,0.140625 -0.351562,1.01953125 -1.253906,1.01953125 -1.347656,1.01953125 -0.5039063,0 -0.9023438,-0.29296875 -1.1250001,-0.66796875 C 8.5726406,-1.2878437 8.5726406,-1.9440937 8.5726404,-2.2956562 Z m 5.0507816,-1.6875 h 1.429687 v -0.3046875 h -1.429687 v -1.8398438 h -0.246094 c -0.01172,0.8203125 -0.316406,1.8867188 -1.289062,1.921875 v 0.2226563 h 0.84375 V -1.22925 c 0,1.21875 0.925781,1.3359375 1.289062,1.3359375 0.703125,0 0.984375,-0.703125 0.984375,-1.3359375 v -0.5742187 h -0.246094 v 0.5507812 c 0,0.73828125 -0.304687,1.11328125 -0.667968,1.11328125 -0.667969,0 -0.667969,-0.90234375 -0.667969,-1.07812495 z m 7.693359,0.46875 v -2.578125 c 0,-0.234375 0,-0.3515625 0.222656,-0.3867188 0.105469,-0.011719 0.386719,-0.011719 0.585938,-0.011719 0.902344,0 2.015625,0.035156 2.015625,1.4765625 0,0.6914062 -0.234375,1.5 -1.710938,1.5 z M 23.426156,-3.3855 c 0.960938,-0.234375 1.746094,-0.84375 1.746094,-1.6289062 0,-0.9492188 -1.136719,-1.7929688 -2.601563,-1.7929688 h -3.128906 v 0.3164063 h 0.234375 c 0.773438,0 0.785156,0.1054687 0.785156,0.46875 v 5.24999995 c 0,0.3515625 -0.01172,0.46875 -0.785156,0.46875 h -0.234375 v 0.3046875 c 0.351563,-0.03515625 1.066406,-0.03515625 1.453125,-0.03515625 0.386719,0 1.089844,0 1.453125,0.03515625 v -0.3046875 h -0.234375 c -0.773437,0 -0.796875,-0.1171875 -0.796875,-0.46875 V -3.29175 h 1.148438 c 0.164062,0 0.574218,0 0.925781,0.3398438 0.386719,0.3515625 0.386719,0.65625 0.386719,1.3242187 0,0.65625 0,1.0546875 0.398437,1.4296875 0.410156,0.36328125 0.960938,0.421875 1.253906,0.421875 0.785157,0 0.949219,-0.8203125 0.949219,-1.1015625 0,-0.0585938 0,-0.1640625 -0.128906,-0.1640625 -0.105469,0 -0.105469,0.0820313 -0.117188,0.15234375 -0.05859,0.71484375 -0.410156,0.890625 -0.65625,0.890625 -0.492187,0 -0.574218,-0.50390625 -0.703125,-1.42968745 l -0.140625,-0.796875 C 24.457406,-2.869875 23.976937,-3.198 23.426156,-3.3855 Z m 6.316406,2.625 c 0.03516,0.3984375 0.304688,0.8203125 0.773438,0.8203125 0.210937,0 0.820312,-0.140625 0.820312,-0.94921875 V -1.4401875 h -0.246093 v 0.55078125 c 0,0.5859375 -0.246094,0.64453125 -0.363282,0.64453125 -0.328125,0 -0.363281,-0.45703125 -0.363281,-0.50390625 V -2.7409687 c 0,-0.4101563 0,-0.8085938 -0.363281,-1.171875 C 29.613656,-4.2995625 29.121469,-4.463625 28.641,-4.463625 c -0.820313,0 -1.511719,0.46875 -1.511719,1.125 0,0.3046875 0.199219,0.46875 0.457031,0.46875 0.28125,0 0.46875,-0.1992187 0.46875,-0.4570312 0,-0.1171875 -0.05859,-0.4453125 -0.515625,-0.4570313 0.269532,-0.3515625 0.761719,-0.4570312 1.078125,-0.4570312 0.492188,0 1.054688,0.3867187 1.054688,1.2773437 v 0.3632813 c -0.503906,0.035156 -1.207031,0.058594 -1.828125,0.3632812 -0.75,0.3398438 -0.996094,0.8554688 -0.996094,1.2890625 0,0.80859375 0.960938,1.0546875 1.59375,1.0546875 0.65625,0 1.113281,-0.3984375 1.300781,-0.8671875 z m -0.07031,-1.6289062 v 0.9960937 c 0,0.94921875 -0.714844,1.2890625 -1.160156,1.2890625 -0.492188,0 -0.902344,-0.3515625 -0.902344,-0.85546875 0,-0.53906245 0.421875,-1.37109375 2.0625,-1.42968745 z m 5.519531,1.8398437 v 0.65625 l 1.464844,-0.10546875 v -0.3046875 c -0.703125,0 -0.773438,-0.0703125 -0.773438,-0.5625 V -6.9128437 l -1.441406,0.1054687 v 0.3164063 c 0.703125,0 0.785156,0.070312 0.785156,0.5507812 v 2.15625 c -0.292968,-0.3632812 -0.726562,-0.6210937 -1.265625,-0.6210937 -1.171875,0 -2.214843,0.984375 -2.214843,2.2617187 0,1.265625 0.972656,2.25 2.109375,2.25 0.644531,0 1.089843,-0.33984375 1.335937,-0.65625 z m 0,-2.671875 v 2.0507813 c 0,0.1757812 0,0.1992187 -0.105469,0.3632812 -0.304687,0.48046875 -0.75,0.703125 -1.183593,0.703125 -0.445313,0 -0.796875,-0.2578125 -1.042969,-0.64453125 -0.257813,-0.41015625 -0.292969,-0.97265625 -0.292969,-1.38281245 0,-0.3632813 0.02344,-0.9609375 0.316406,-1.4179688 0.210938,-0.3046875 0.585938,-0.6328125 1.125,-0.6328125 0.351563,0 0.761719,0.1523438 1.078125,0.5976563 0.105469,0.1640625 0.105469,0.1875 0.105469,0.3632812 z m 9.038086,-3.7148437 C 44.182992,-7.0651875 44.159555,-7.1355 44.007211,-7.1355 c -0.164063,0 -0.1875,0.058594 -0.246094,0.1992188 l -2.0625,5.9648437 c -0.175781,0.50390625 -0.574219,0.65625 -1.113281,0.66796875 v 0.3046875 c 0.234375,-0.01171875 0.65625,-0.03515625 1.019531,-0.03515625 0.304688,0 0.820313,0.0234375 1.148438,0.03515625 v -0.3046875 c -0.503907,0 -0.75,-0.2578125 -0.75,-0.515625 0,-0.0234375 0.01172,-0.12890625 0.02344,-0.140625 l 0.457031,-1.31249995 h 2.460938 l 0.527344,1.52343745 c 0.01172,0.046875 0.02344,0.10546875 0.02344,0.140625 0,0.3046875 -0.550781,0.3046875 -0.820312,0.3046875 v 0.3046875 c 0.351562,-0.03515625 1.054687,-0.03515625 1.429687,-0.03515625 0.433594,0 0.890625,0.01171875 1.300781,0.03515625 v -0.3046875 h -0.175781 c -0.597656,0 -0.738281,-0.0703125 -0.84375,-0.3984375 z m -0.527344,1.125 1.125,3.234375 h -2.238281 z m 6.966797,-0.5625 c 0,-0.234375 0,-0.2578125 -0.234375,-0.2578125 -0.609375,0.6328125 -1.488281,0.6328125 -1.804687,0.6328125 v 0.3164062 c 0.199219,0 0.785156,0 1.300781,-0.2578125 v 5.15625 c 0,0.3515625 -0.03516,0.48046875 -0.925781,0.48046875 h -0.316406 v 0.3046875 c 0.351562,-0.03515625 1.207031,-0.03515625 1.605468,-0.03515625 0.398438,0 1.265625,0 1.617188,0.03515625 v -0.3046875 h -0.316406 c -0.902344,0 -0.925782,-0.1171875 -0.925782,-0.48046875 z m 0,0"
       style="fill:#000000;fill-opacity:1;fill-rule:nonzero;stroke:none"
       aria-label="NetRadA1"
       transform="matrix(1.3333333,0,0,1.3333333,21.812,118.264)" />
    <path
       id="path12"
       d="M 151.92238,-56.69363 H 74.85214 c -2.20094,0 -3.98511,-1.78417 -3.98511,-3.98511 v -20.37657 c 0,-2.20095 1.78417,-3.98511 3.98511,-3.98511 h 77.07024 c 2.20094,0 3.98511,1.78416 3.98511,3.98511 v 20.37657 c 0,2.20094 -1.78417,3.98511 -3.98511,3.98511 z"
       style="fill:#fff64d;fill-opacity:1;fill-rule:nonzero;stroke:#000000;stroke-width:0.3985;stroke-linecap:butt;stroke-linejoin:miter;stroke-miterlimit:10;stroke-dasharray:none;stroke-opacity:1"
       transform="matrix(1.3333333,0,0,-1.3333333,56.958667,19.162667)" />
    <path
       id="path13"
       d="M 2.3077344,-6.6784687 C 2.2257031,-6.7956562 2.2139844,-6.807375 2.0264844,-6.807375 H 0.32726563 v 0.3164063 h 0.29296875 c 0.140625,0 0.33984375,0.011719 0.49218752,0.011719 0.234375,0.035156 0.2460937,0.046875 0.2460937,0.234375 v 5.203125 c 0,0.26953125 0,0.73828125 -1.03124997,0.73828125 v 0.3046875 C 0.67882813,-0.0105 1.1592969,-0.0339375 1.4991406,-0.0339375 c 0.328125,0 0.8085938,0.0234375 1.1601563,0.03515625 v -0.3046875 c -1.03125,0 -1.03125,-0.46875 -1.03125,-0.73828125 v -5.1796875 c 0.058594,0.046875 0.070312,0.058594 0.1054687,0.1171875 l 4.0664063,5.9765625 c 0.082031,0.1171875 0.09375,0.12890625 0.1640625,0.12890625 0.140625,0 0.140625,-0.0703125 0.140625,-0.2578125 V -5.7526875 c 0,-0.2695312 0,-0.7382812 1.03125,-0.7382812 V -6.807375 c -0.3515625,0.011719 -0.84375,0.035156 -1.171875,0.035156 -0.328125,0 -0.8203125,-0.023437 -1.1601563,-0.035156 v 0.3164063 c 1.0195313,0 1.0195313,0.46875 1.0195313,0.7382812 v 4.2539063 z m 6.2783203,4.171875 c 0.058594,-1.4882813 0.9023437,-1.734375 1.2421875,-1.734375 1.0195308,0 1.1249998,1.3476562 1.1249998,1.734375 z m -0.011719,0.2109375 h 2.7890623 c 0.210938,0 0.246094,0 0.246094,-0.2109375 0,-0.984375 -0.539062,-1.9570313 -1.78125,-1.9570313 -1.1601563,0 -2.0742188,1.03125 -2.0742188,2.2734375 0,1.3359375 1.0429688,2.296875 2.1914063,2.296875 1.2187505,0 1.6640625,-1.1015625 1.6640625,-1.2890625 0,-0.1054687 -0.08203,-0.1171875 -0.128906,-0.1171875 -0.09375,0 -0.117188,0.058594 -0.128906,0.140625 -0.351563,1.01953125 -1.253907,1.01953125 -1.347657,1.01953125 -0.503906,0 -0.9023435,-0.29296875 -1.1249998,-0.66796875 C 8.5743359,-1.2878437 8.5743359,-1.9440937 8.5743357,-2.2956562 Z m 5.0478523,-1.6875 h 1.429687 v -0.3046875 h -1.429687 v -1.8398438 h -0.246094 c -0.01172,0.8203125 -0.316406,1.8867188 -1.289063,1.921875 v 0.2226563 h 0.84375 V -1.22925 c 0,1.21875 0.925782,1.3359375 1.289063,1.3359375 0.703125,0 0.984375,-0.703125 0.984375,-1.3359375 v -0.5742187 h -0.246094 v 0.5507812 c 0,0.73828125 -0.304687,1.11328125 -0.667969,1.11328125 -0.667968,0 -0.667968,-0.90234375 -0.667968,-1.07812495 z m 7.696289,0.46875 v -2.578125 c 0,-0.234375 0,-0.3515625 0.222656,-0.3867188 0.105469,-0.011719 0.386719,-0.011719 0.585937,-0.011719 0.902344,0 2.015625,0.035156 2.015625,1.4765625 0,0.6914062 -0.234375,1.5 -1.710937,1.5 z M 23.427852,-3.3855 c 0.960937,-0.234375 1.746093,-0.84375 1.746093,-1.6289062 0,-0.9492188 -1.136718,-1.7929688 -2.601562,-1.7929688 h -3.128906 v 0.3164063 h 0.234375 c 0.773437,0 0.785156,0.1054687 0.785156,0.46875 v 5.24999995 c 0,0.3515625 -0.01172,0.46875 -0.785156,0.46875 h -0.234375 v 0.3046875 c 0.351562,-0.03515625 1.066406,-0.03515625 1.453125,-0.03515625 0.386718,0 1.089843,0 1.453125,0.03515625 v -0.3046875 h -0.234375 c -0.773438,0 -0.796875,-0.1171875 -0.796875,-0.46875 V -3.29175 h 1.148437 c 0.164063,0 0.574219,0 0.925781,0.3398438 0.386719,0.3515625 0.386719,0.65625 0.386719,1.3242187 0,0.65625 0,1.0546875 0.398438,1.4296875 0.410156,0.36328125 0.960937,0.421875 1.253906,0.421875 0.785156,0 0.949219,-0.8203125 0.949219,-1.1015625 0,-0.0585938 0,-0.1640625 -0.128907,-0.1640625 -0.105468,0 -0.105468,0.0820313 -0.117187,0.15234375 -0.05859,0.71484375 -0.410156,0.890625 -0.65625,0.890625 -0.492188,0 -0.574219,-0.50390625 -0.703125,-1.42968745 l -0.140625,-0.796875 C 24.459102,-2.869875 23.978633,-3.198 23.427852,-3.3855 Z m 6.313476,2.625 c 0.03516,0.3984375 0.304688,0.8203125 0.773438,0.8203125 0.210937,0 0.820312,-0.140625 0.820312,-0.94921875 V -1.4401875 h -0.246094 v 0.55078125 c 0,0.5859375 -0.246093,0.64453125 -0.363281,0.64453125 -0.328125,0 -0.363281,-0.45703125 -0.363281,-0.50390625 V -2.7409687 c 0,-0.4101563 0,-0.8085938 -0.363281,-1.171875 -0.386719,-0.3867188 -0.878907,-0.5507813 -1.359375,-0.5507813 -0.820313,0 -1.511719,0.46875 -1.511719,1.125 0,0.3046875 0.199219,0.46875 0.457031,0.46875 0.28125,0 0.46875,-0.1992187 0.46875,-0.4570312 0,-0.1171875 -0.05859,-0.4453125 -0.515625,-0.4570313 0.269531,-0.3515625 0.761719,-0.4570312 1.078125,-0.4570312 0.492188,0 1.054688,0.3867187 1.054688,1.2773437 v 0.3632813 c -0.503907,0.035156 -1.207032,0.058594 -1.828125,0.3632812 -0.75,0.3398438 -0.996094,0.8554688 -0.996094,1.2890625 0,0.80859375 0.960937,1.0546875 1.59375,1.0546875 0.65625,0 1.113281,-0.3984375 1.300781,-0.8671875 z m -0.07031,-1.6289062 v 0.9960937 c 0,0.94921875 -0.714844,1.2890625 -1.160157,1.2890625 -0.492187,0 -0.902343,-0.3515625 -0.902343,-0.85546875 0,-0.53906245 0.421875,-1.37109375 2.0625,-1.42968745 z m 5.519531,1.8398437 v 0.65625 l 1.464844,-0.10546875 v -0.3046875 c -0.703125,0 -0.773438,-0.0703125 -0.773438,-0.5625 V -6.9128437 l -1.441406,0.1054687 v 0.3164063 c 0.703125,0 0.785156,0.070312 0.785156,0.5507812 v 2.15625 c -0.292969,-0.3632812 -0.726562,-0.6210937 -1.265625,-0.6210937 -1.171875,0 -2.214844,0.984375 -2.214844,2.2617187 0,1.265625 0.972657,2.25 2.109375,2.25 0.644532,0 1.089844,-0.33984375 1.335938,-0.65625 z m 0,-2.671875 v 2.0507813 c 0,0.1757812 0,0.1992187 -0.105469,0.3632812 -0.304687,0.48046875 -0.75,0.703125 -1.183594,0.703125 -0.445312,0 -0.796875,-0.2578125 -1.042968,-0.64453125 -0.257813,-0.41015625 -0.292969,-0.97265625 -0.292969,-1.38281245 0,-0.3632813 0.02344,-0.9609375 0.316406,-1.4179688 0.210938,-0.3046875 0.585938,-0.6328125 1.125,-0.6328125 0.351563,0 0.761719,0.1523438 1.078125,0.5976563 0.105469,0.1640625 0.105469,0.1875 0.105469,0.3632812 z m 9.038086,-3.7148437 C 44.181758,-7.0651875 44.15832,-7.1355 44.005977,-7.1355 c -0.164063,0 -0.1875,0.058594 -0.246094,0.1992188 l -2.0625,5.9648437 c -0.175781,0.50390625 -0.574219,0.65625 -1.113281,0.66796875 v 0.3046875 c 0.234375,-0.01171875 0.65625,-0.03515625 1.019531,-0.03515625 0.304687,0 0.820312,0.0234375 1.148437,0.03515625 v -0.3046875 c -0.503906,0 -0.75,-0.2578125 -0.75,-0.515625 0,-0.0234375 0.01172,-0.12890625 0.02344,-0.140625 l 0.457031,-1.31249995 h 2.460938 l 0.527343,1.52343745 c 0.01172,0.046875 0.02344,0.10546875 0.02344,0.140625 0,0.3046875 -0.550781,0.3046875 -0.820313,0.3046875 v 0.3046875 c 0.351563,-0.03515625 1.054688,-0.03515625 1.429688,-0.03515625 0.433594,0 0.890625,0.01171875 1.300781,0.03515625 v -0.3046875 h -0.175781 c -0.597656,0 -0.738281,-0.0703125 -0.84375,-0.3984375 z m -0.527344,1.125 1.125,3.234375 H 42.58801 Z m 5.305664,5.0507812 1.054688,-1.03125 c 1.558593,-1.3710937 2.15625,-1.9101562 2.15625,-2.90625 0,-1.1367187 -0.902344,-1.9335937 -2.121094,-1.9335937 -1.125,0 -1.851563,0.9140625 -1.851563,1.8046875 0,0.5507812 0.492188,0.5507812 0.527344,0.5507812 0.164063,0 0.515625,-0.1171875 0.515625,-0.5273437 0,-0.2578125 -0.1875,-0.515625 -0.527344,-0.515625 -0.08203,0 -0.105468,0 -0.128906,0.011719 0.222656,-0.6445312 0.761719,-1.0195312 1.335938,-1.0195312 0.914062,0 1.335937,0.8085937 1.335937,1.6289062 0,0.796875 -0.492187,1.5820313 -1.042969,2.203125 l -1.910156,2.1328125 c -0.105469,0.10546875 -0.105469,0.12890625 -0.105469,0.36328125 h 3.691407 l 0.28125,-1.73437495 H 51.96008 c -0.04687,0.3046875 -0.117187,0.7382812 -0.210937,0.89062495 -0.07031,0.082031 -0.726565,0.082031 -0.949221,0.082031 z m 0,0"
       style="fill:#000000;fill-opacity:1;fill-rule:nonzero;stroke:none"
       aria-label="NetRadA2"
       transform="matrix(1.3333333,0,0,1.3333333,172.99333,118.264)" />
    <path
       id="path14"
       d="m 265.30965,-56.69363 h -77.07024 c -2.20094,0 -3.98511,-1.78417 -3.98511,-3.98511 v -20.37657 c 0,-2.20095 1.78417,-3.98511 3.98511,-3.98511 h 77.07024 c 2.20094,0 3.9851,1.78416 3.9851,3.98511 v 20.37657 c 0,2.20094 -1.78416,3.98511 -3.9851,3.98511 z"
       style="fill:#fff64d;fill-opacity:1;fill-rule:nonzero;stroke:#000000;stroke-width:0.3985;stroke-linecap:butt;stroke-linejoin:miter;stroke-miterlimit:10;stroke-dasharray:none;stroke-opacity:1"
       transform="matrix(1.3333333,0,0,-1.3333333,56.958667,19.162667)" />
    <path
       id="path15"
       d="M 2.3094375,-6.6784687 C 2.2274063,-6.7956562 2.2156875,-6.807375 2.0281875,-6.807375 H 0.32896875 v 0.3164063 H 0.6219375 c 0.140625,0 0.33984375,0.011719 0.4921875,0.011719 0.234375,0.035156 0.2460938,0.046875 0.2460938,0.234375 v 5.203125 c 0,0.26953125 0,0.73828125 -1.03125005,0.73828125 v 0.3046875 C 0.68053125,-0.0105 1.161,-0.0339375 1.5008438,-0.0339375 c 0.328125,0 0.8085937,0.0234375 1.1601562,0.03515625 v -0.3046875 c -1.03125,0 -1.03125,-0.46875 -1.03125,-0.73828125 v -5.1796875 c 0.058594,0.046875 0.070312,0.058594 0.1054688,0.1171875 l 4.0664062,5.9765625 c 0.082031,0.1171875 0.09375,0.12890625 0.1640625,0.12890625 0.140625,0 0.140625,-0.0703125 0.140625,-0.2578125 V -5.7526875 c 0,-0.2695312 0,-0.7382812 1.03125,-0.7382812 V -6.807375 c -0.3515625,0.011719 -0.84375,0.035156 -1.171875,0.035156 -0.328125,0 -0.8203125,-0.023437 -1.1601562,-0.035156 v 0.3164063 c 1.0195312,0 1.0195312,0.46875 1.0195312,0.7382812 v 4.2539063 z m 6.2753906,4.171875 c 0.058594,-1.4882813 0.9023438,-1.734375 1.2421875,-1.734375 1.0195314,0 1.1250004,1.3476562 1.1250004,1.734375 z m -0.011719,0.2109375 h 2.7890629 c 0.210937,0 0.246094,0 0.246094,-0.2109375 0,-0.984375 -0.539063,-1.9570313 -1.7812507,-1.9570313 -1.1601562,0 -2.0742187,1.03125 -2.0742187,2.2734375 0,1.3359375 1.0429687,2.296875 2.1914062,2.296875 1.2187502,0 1.6640632,-1.1015625 1.6640632,-1.2890625 0,-0.1054687 -0.08203,-0.1171875 -0.128907,-0.1171875 -0.09375,0 -0.117187,0.058594 -0.128906,0.140625 -0.351562,1.01953125 -1.253906,1.01953125 -1.347656,1.01953125 -0.5039067,0 -0.9023442,-0.29296875 -1.1250004,-0.66796875 C 8.5731094,-1.2878437 8.5731094,-1.9440937 8.5731091,-2.2956562 Z m 5.0478519,-1.6875 h 1.429687 v -0.3046875 h -1.429687 v -1.8398438 h -0.246094 c -0.01172,0.8203125 -0.316406,1.8867188 -1.289062,1.921875 v 0.2226563 h 0.84375 V -1.22925 c 0,1.21875 0.925781,1.3359375 1.289062,1.3359375 0.703125,0 0.984375,-0.703125 0.984375,-1.3359375 v -0.5742187 h -0.246094 v 0.5507812 c 0,0.73828125 -0.304687,1.11328125 -0.667968,1.11328125 -0.667969,0 -0.667969,-0.90234375 -0.667969,-1.07812495 z m 7.696289,0.46875 v -2.578125 c 0,-0.234375 0,-0.3515625 0.222656,-0.3867188 0.105469,-0.011719 0.386719,-0.011719 0.585938,-0.011719 0.902344,0 2.015625,0.035156 2.015625,1.4765625 0,0.6914062 -0.234375,1.5 -1.710938,1.5 z M 23.426625,-3.3855 c 0.960938,-0.234375 1.746094,-0.84375 1.746094,-1.6289062 0,-0.9492188 -1.136719,-1.7929688 -2.601563,-1.7929688 H 19.44225 v 0.3164063 h 0.234375 c 0.773438,0 0.785156,0.1054687 0.785156,0.46875 v 5.24999995 c 0,0.3515625 -0.01172,0.46875 -0.785156,0.46875 H 19.44225 v 0.3046875 c 0.351563,-0.03515625 1.066406,-0.03515625 1.453125,-0.03515625 0.386719,0 1.089844,0 1.453125,0.03515625 v -0.3046875 h -0.234375 c -0.773437,0 -0.796875,-0.1171875 -0.796875,-0.46875 V -3.29175 h 1.148438 c 0.164062,0 0.574218,0 0.925781,0.3398438 0.386719,0.3515625 0.386719,0.65625 0.386719,1.3242187 0,0.65625 0,1.0546875 0.398437,1.4296875 0.410156,0.36328125 0.960938,0.421875 1.253906,0.421875 0.785157,0 0.949219,-0.8203125 0.949219,-1.1015625 0,-0.0585938 0,-0.1640625 -0.128906,-0.1640625 -0.105469,0 -0.105469,0.0820313 -0.117188,0.15234375 -0.05859,0.71484375 -0.410156,0.890625 -0.65625,0.890625 -0.492187,0 -0.574218,-0.50390625 -0.703125,-1.42968745 l -0.140625,-0.796875 C 24.457875,-2.869875 23.977406,-3.198 23.426625,-3.3855 Z m 6.313477,2.625 c 0.03516,0.3984375 0.304687,0.8203125 0.773437,0.8203125 0.210938,0 0.820313,-0.140625 0.820313,-0.94921875 V -1.4401875 h -0.246094 v 0.55078125 c 0,0.5859375 -0.246094,0.64453125 -0.363281,0.64453125 -0.328125,0 -0.363282,-0.45703125 -0.363282,-0.50390625 V -2.7409687 c 0,-0.4101563 0,-0.8085938 -0.363281,-1.171875 -0.386719,-0.3867188 -0.878906,-0.5507813 -1.359375,-0.5507813 -0.820312,0 -1.511719,0.46875 -1.511719,1.125 0,0.3046875 0.199219,0.46875 0.457032,0.46875 0.28125,0 0.46875,-0.1992187 0.46875,-0.4570312 0,-0.1171875 -0.05859,-0.4453125 -0.515625,-0.4570313 0.269531,-0.3515625 0.761718,-0.4570312 1.078125,-0.4570312 0.492187,0 1.054687,0.3867187 1.054687,1.2773437 v 0.3632813 c -0.503906,0.035156 -1.207031,0.058594 -1.828125,0.3632812 -0.75,0.3398438 -0.996094,0.8554688 -0.996094,1.2890625 0,0.80859375 0.960938,1.0546875 1.59375,1.0546875 0.65625,0 1.113282,-0.3984375 1.300782,-0.8671875 z m -0.07031,-1.6289062 v 0.9960937 c 0,0.94921875 -0.714844,1.2890625 -1.160156,1.2890625 -0.492188,0 -0.902344,-0.3515625 -0.902344,-0.85546875 0,-0.53906245 0.421875,-1.37109375 2.0625,-1.42968745 z m 5.522461,1.8398437 v 0.65625 l 1.464844,-0.10546875 v -0.3046875 c -0.703125,0 -0.773438,-0.0703125 -0.773438,-0.5625 V -6.9128437 L 34.44225,-6.807375 v 0.3164063 c 0.703125,0 0.785156,0.070312 0.785156,0.5507812 v 2.15625 c -0.292968,-0.3632812 -0.726562,-0.6210937 -1.265625,-0.6210937 -1.171875,0 -2.214843,0.984375 -2.214843,2.2617187 0,1.265625 0.972656,2.25 2.109375,2.25 0.644531,0 1.089843,-0.33984375 1.335937,-0.65625 z m 0,-2.671875 v 2.0507813 c 0,0.1757812 0,0.1992187 -0.105469,0.3632812 -0.304687,0.48046875 -0.75,0.703125 -1.183593,0.703125 -0.445313,0 -0.796875,-0.2578125 -1.042969,-0.64453125 C 32.602406,-1.1589375 32.56725,-1.7214375 32.56725,-2.1315937 c 0,-0.3632813 0.02344,-0.9609375 0.316406,-1.4179688 0.210938,-0.3046875 0.585938,-0.6328125 1.125,-0.6328125 0.351563,0 0.761719,0.1523438 1.078125,0.5976563 0.105469,0.1640625 0.105469,0.1875 0.105469,0.3632812 z m 7.291992,-0.421875 v -2.4492187 c 0,-0.328125 0.01172,-0.3984375 0.480469,-0.3984375 h 1.242187 c 0.960938,0 1.3125,0.84375 1.3125,1.3710937 0,0.6328125 -0.492187,1.4765625 -1.59375,1.4765625 z m 2.34375,0.09375 c 0.972656,-0.1992187 1.652344,-0.8320312 1.652344,-1.5703125 0,-0.8671875 -0.914063,-1.6875 -2.203125,-1.6875 H 40.63268 v 0.3164063 h 0.234375 c 0.761718,0 0.785156,0.1054687 0.785156,0.46875 v 5.24999995 c 0,0.3515625 -0.02344,0.46875 -0.785156,0.46875 H 40.63268 v 0.3046875 h 3.902343 c 1.324219,0 2.214844,-0.890625 2.214844,-1.82812495 0,-0.8671875 -0.808594,-1.6054688 -1.921875,-1.7226563 z m -0.609375,3.24609375 h -1.253906 c -0.46875,0 -0.480469,-0.0703125 -0.480469,-0.3984375 V -3.4206562 h 1.875 c 0.984375,0 1.394531,0.9257812 1.394531,1.59375 0,0.703125 -0.515625,1.52343745 -1.535156,1.52343745 z m 6.035156,-6.07031245 c 0,-0.234375 0,-0.2578125 -0.234375,-0.2578125 -0.609375,0.6328125 -1.488281,0.6328125 -1.804687,0.6328125 v 0.3164062 c 0.199219,0 0.785156,0 1.300781,-0.2578125 v 5.15625 c 0,0.3515625 -0.03516,0.48046875 -0.925781,0.48046875 h -0.316406 v 0.3046875 c 0.351562,-0.03515625 1.207031,-0.03515625 1.605468,-0.03515625 0.398438,0 1.265625,0 1.617188,0.03515625 v -0.3046875 h -0.316406 c -0.902344,0 -0.925782,-0.1171875 -0.925782,-0.48046875 z m 0,0"
       style="fill:#000000;fill-opacity:1;fill-rule:nonzero;stroke:none"
       aria-label="NetRadB1"
       transform="matrix(1.3333333,0,0,1.3333333,324.452,118.264)" />
    <path
       id="path16"
       d="M 378.69691,-56.69363 H 301.6267 c -2.20095,0 -3.98511,-1.78417 -3.98511,-3.98511 v -20.37657 c 0,-2.20095 1.78416,-3.98511 3.98511,-3.98511 h 77.07021 c 2.20095,0 3.98511,1.78416 3.98511,3.98511 v 20.37657 c 0,2.20094 -1.78416,3.98511 -3.98511,3.98511 z"
       style="fill:#fff64d;fill-opacity:1;fill-rule:nonzero;stroke:#000000;stroke-width:0.3985;stroke-linecap:butt;stroke-linejoin:miter;stroke-miterlimit:10;stroke-dasharray:none;stroke-opacity:1"
       transform="matrix(1.3333333,0,0,-1.3333333,56.958667,19.162667)" />
    <path
       id="path17"
       d="M 2.3092031,-6.6784687 C 2.2271719,-6.7956562 2.2154531,-6.807375 2.0279531,-6.807375 H 0.32873438 v 0.3164063 h 0.29296875 c 0.140625,0 0.33984375,0.011719 0.49218747,0.011719 0.234375,0.035156 0.2460938,0.046875 0.2460938,0.234375 v 5.203125 c 0,0.26953125 0,0.73828125 -1.03125002,0.73828125 v 0.3046875 C 0.68029688,-0.0105 1.1607656,-0.0339375 1.5006094,-0.0339375 c 0.328125,0 0.8085937,0.0234375 1.1601562,0.03515625 v -0.3046875 c -1.03125,0 -1.03125,-0.46875 -1.03125,-0.73828125 v -5.1796875 c 0.058594,0.046875 0.070312,0.058594 0.1054688,0.1171875 l 4.0664062,5.9765625 c 0.082031,0.1171875 0.09375,0.12890625 0.1640625,0.12890625 0.140625,0 0.140625,-0.0703125 0.140625,-0.2578125 V -5.7526875 c 0,-0.2695312 0,-0.7382812 1.03125,-0.7382812 V -6.807375 c -0.3515625,0.011719 -0.84375,0.035156 -1.171875,0.035156 -0.328125,0 -0.8203125,-0.023437 -1.1601562,-0.035156 v 0.3164063 c 1.0195312,0 1.0195312,0.46875 1.0195312,0.7382812 v 4.2539063 z m 6.2753907,4.171875 c 0.058594,-1.4882813 0.9023437,-1.734375 1.2421875,-1.734375 1.0195317,0 1.1249997,1.3476562 1.1249997,1.734375 z m -0.011719,0.2109375 h 2.7890632 c 0.210937,0 0.246093,0 0.246093,-0.2109375 0,-0.984375 -0.539062,-1.9570313 -1.7812499,-1.9570313 -1.1601563,0 -2.0742188,1.03125 -2.0742188,2.2734375 0,1.3359375 1.0429688,2.296875 2.1914063,2.296875 1.2187504,0 1.6640624,-1.1015625 1.6640624,-1.2890625 0,-0.1054687 -0.08203,-0.1171875 -0.128906,-0.1171875 -0.09375,0 -0.117187,0.058594 -0.128906,0.140625 -0.351563,1.01953125 -1.253906,1.01953125 -1.347656,1.01953125 -0.5039069,0 -0.9023444,-0.29296875 -1.1250007,-0.66796875 C 8.572875,-1.2878437 8.572875,-1.9440937 8.5728748,-2.2956562 Z m 5.0478522,-1.6875 h 1.429687 v -0.3046875 h -1.429687 v -1.8398438 h -0.246094 c -0.01172,0.8203125 -0.316406,1.8867188 -1.289063,1.921875 v 0.2226563 h 0.84375 V -1.22925 c 0,1.21875 0.925782,1.3359375 1.289063,1.3359375 0.703125,0 0.984375,-0.703125 0.984375,-1.3359375 v -0.5742187 h -0.246094 v 0.5507812 c 0,0.73828125 -0.304687,1.11328125 -0.667969,1.11328125 -0.667968,0 -0.667968,-0.90234375 -0.667968,-1.07812495 z m 7.696289,0.46875 v -2.578125 c 0,-0.234375 0,-0.3515625 0.222656,-0.3867188 0.105469,-0.011719 0.386719,-0.011719 0.585937,-0.011719 0.902344,0 2.015625,0.035156 2.015625,1.4765625 0,0.6914062 -0.234375,1.5 -1.710937,1.5 z M 23.426391,-3.3855 c 0.960937,-0.234375 1.746093,-0.84375 1.746093,-1.6289062 0,-0.9492188 -1.136718,-1.7929688 -2.601562,-1.7929688 h -3.128906 v 0.3164063 h 0.234375 c 0.773437,0 0.785156,0.1054687 0.785156,0.46875 v 5.24999995 c 0,0.3515625 -0.01172,0.46875 -0.785156,0.46875 h -0.234375 v 0.3046875 c 0.351562,-0.03515625 1.066406,-0.03515625 1.453125,-0.03515625 0.386718,0 1.089843,0 1.453125,0.03515625 v -0.3046875 h -0.234375 c -0.773438,0 -0.796875,-0.1171875 -0.796875,-0.46875 V -3.29175 h 1.148437 c 0.164063,0 0.574219,0 0.925781,0.3398438 0.386719,0.3515625 0.386719,0.65625 0.386719,1.3242187 0,0.65625 0,1.0546875 0.398438,1.4296875 0.410156,0.36328125 0.960937,0.421875 1.253906,0.421875 0.785156,0 0.949219,-0.8203125 0.949219,-1.1015625 0,-0.0585938 0,-0.1640625 -0.128907,-0.1640625 -0.105468,0 -0.105468,0.0820313 -0.117187,0.15234375 -0.05859,0.71484375 -0.410156,0.890625 -0.65625,0.890625 -0.492188,0 -0.574219,-0.50390625 -0.703125,-1.42968745 l -0.140625,-0.796875 C 24.457641,-2.869875 23.977172,-3.198 23.426391,-3.3855 Z m 6.313476,2.625 c 0.03516,0.3984375 0.304688,0.8203125 0.773438,0.8203125 0.210937,0 0.820312,-0.140625 0.820312,-0.94921875 V -1.4401875 h -0.246094 v 0.55078125 c 0,0.5859375 -0.246093,0.64453125 -0.363281,0.64453125 -0.328125,0 -0.363281,-0.45703125 -0.363281,-0.50390625 V -2.7409687 c 0,-0.4101563 0,-0.8085938 -0.363281,-1.171875 -0.386719,-0.3867188 -0.878907,-0.5507813 -1.359375,-0.5507813 -0.820313,0 -1.511719,0.46875 -1.511719,1.125 0,0.3046875 0.199219,0.46875 0.457031,0.46875 0.28125,0 0.46875,-0.1992187 0.46875,-0.4570312 0,-0.1171875 -0.05859,-0.4453125 -0.515625,-0.4570313 0.269531,-0.3515625 0.761719,-0.4570312 1.078125,-0.4570312 0.492188,0 1.054688,0.3867187 1.054688,1.2773437 v 0.3632813 c -0.503907,0.035156 -1.207032,0.058594 -1.828125,0.3632812 -0.75,0.3398438 -0.996094,0.8554688 -0.996094,1.2890625 0,0.80859375 0.960937,1.0546875 1.59375,1.0546875 0.65625,0 1.113281,-0.3984375 1.300781,-0.8671875 z m -0.07031,-1.6289062 v 0.9960937 c 0,0.94921875 -0.714844,1.2890625 -1.160157,1.2890625 -0.492187,0 -0.902343,-0.3515625 -0.902343,-0.85546875 0,-0.53906245 0.421875,-1.37109375 2.0625,-1.42968745 z m 5.522461,1.8398437 v 0.65625 l 1.464843,-0.10546875 v -0.3046875 c -0.703125,0 -0.773437,-0.0703125 -0.773437,-0.5625 V -6.9128437 l -1.441406,0.1054687 v 0.3164063 c 0.703125,0 0.785156,0.070312 0.785156,0.5507812 v 2.15625 c -0.292969,-0.3632812 -0.726563,-0.6210937 -1.265625,-0.6210937 -1.171875,0 -2.214844,0.984375 -2.214844,2.2617187 0,1.265625 0.972656,2.25 2.109375,2.25 0.644531,0 1.089844,-0.33984375 1.335938,-0.65625 z m 0,-2.671875 v 2.0507813 c 0,0.1757812 0,0.1992187 -0.105469,0.3632812 -0.304688,0.48046875 -0.75,0.703125 -1.183594,0.703125 -0.445312,0 -0.796875,-0.2578125 -1.042969,-0.64453125 -0.257812,-0.41015625 -0.292968,-0.97265625 -0.292968,-1.38281245 0,-0.3632813 0.02344,-0.9609375 0.316406,-1.4179688 0.210937,-0.3046875 0.585937,-0.6328125 1.125,-0.6328125 0.351562,0 0.761719,0.1523438 1.078125,0.5976563 0.105469,0.1640625 0.105469,0.1875 0.105469,0.3632812 z m 7.291992,-0.421875 v -2.4492187 c 0,-0.328125 0.01172,-0.3984375 0.480469,-0.3984375 h 1.242187 c 0.960938,0 1.3125,0.84375 1.3125,1.3710937 0,0.6328125 -0.492187,1.4765625 -1.59375,1.4765625 z m 2.34375,0.09375 c 0.972656,-0.1992187 1.652344,-0.8320312 1.652344,-1.5703125 0,-0.8671875 -0.914063,-1.6875 -2.203125,-1.6875 h -3.644532 v 0.3164063 h 0.234375 c 0.761719,0 0.785157,0.1054687 0.785157,0.46875 v 5.24999995 c 0,0.3515625 -0.02344,0.46875 -0.785157,0.46875 h -0.234375 v 0.3046875 h 3.902344 c 1.324219,0 2.214844,-0.890625 2.214844,-1.82812495 0,-0.8671875 -0.808594,-1.6054688 -1.921875,-1.7226563 z m -0.609375,3.24609375 h -1.253906 c -0.46875,0 -0.480469,-0.0703125 -0.480469,-0.3984375 V -3.4206562 h 1.875 c 0.984375,0 1.394531,0.9257812 1.394531,1.59375 0,0.703125 -0.515625,1.52343745 -1.535156,1.52343745 z M 48.592406,-0.7605 49.647094,-1.79175 c 1.558594,-1.3710937 2.15625,-1.9101562 2.15625,-2.90625 0,-1.1367187 -0.902344,-1.9335937 -2.121094,-1.9335937 -1.125,0 -1.851562,0.9140625 -1.851562,1.8046875 0,0.5507812 0.492187,0.5507812 0.527343,0.5507812 0.164063,0 0.515625,-0.1171875 0.515625,-0.5273437 0,-0.2578125 -0.1875,-0.515625 -0.527343,-0.515625 -0.08203,0 -0.105469,0 -0.128907,0.011719 0.222657,-0.6445312 0.761719,-1.0195312 1.335938,-1.0195312 0.914062,0 1.335937,0.8085937 1.335937,1.6289062 0,0.796875 -0.492187,1.5820313 -1.042968,2.203125 l -1.910157,2.1328125 c -0.105468,0.10546875 -0.105468,0.12890625 -0.105468,0.36328125 h 3.691406 l 0.28125,-1.73437495 h -0.257813 c -0.04687,0.3046875 -0.117187,0.7382812 -0.210937,0.89062495 -0.07031,0.082031 -0.726563,0.082031 -0.949219,0.082031 z m 0,0"
       style="fill:#000000;fill-opacity:1;fill-rule:nonzero;stroke:none"
       aria-label="NetRadB2"
       transform="matrix(1.3333333,0,0,1.3333333,475.632,118.264)" />
  </g>
</svg>
