<?xml version="1.0" encoding="UTF-8" standalone="no"?>
<!-- Created with Inkscape (http://www.inkscape.org/) -->

<svg
   version="1.1"
   id="svg1"
   width="567.46002"
   height="113.91733"
   viewBox="0 0 567.46002 113.91733"
   xmlns="http://www.w3.org/2000/svg"
   xmlns:svg="http://www.w3.org/2000/svg">
  <defs
     id="defs1" />
  <g
     id="g1">
    <path
       id="path1"
       d="m 38.53511,14.17339 h -77.07022 c -2.20094,0 -3.98511,-1.78417 -3.98511,-3.98511 v -20.37656 c 0,-2.20094 1.78417,-3.98511 3.98511,-3.98511 h 77.07022 c 2.20094,0 3.98511,1.78417 3.98511,3.98511 v 20.37656 c 0,2.20094 -1.78417,3.98511 -3.98511,3.98511 z"
       style="fill:#fff64d;fill-opacity:1;fill-rule:nonzero;stroke:#000000;stroke-width:0.3985;stroke-linecap:butt;stroke-linejoin:miter;stroke-miterlimit:10;stroke-dasharray:none;stroke-opacity:1"
       transform="matrix(1.3333333,0,0,-1.3333333,56.958667,19.164)" />
    <path
       id="path2"
       d="M 3.4813906,-3.8675703 2.2040469,-4.1722578 c -0.6210938,-0.1523438 -1.0078125,-0.6914063 -1.0078125,-1.265625 0,-0.703125 0.5390625,-1.3007813 1.3125,-1.3007813 1.6640625,0 1.8867187,1.6289063 1.9453125,2.0742188 0.011719,0.058594 0.011719,0.1171875 0.1171875,0.1171875 0.1289062,0 0.1289062,-0.046875 0.1289062,-0.234375 v -2.0039063 c 0,-0.1640625 0,-0.234375 -0.1054687,-0.234375 -0.070312,0 -0.082031,0.011719 -0.1523438,0.1289063 l -0.3515625,0.5625 c -0.2929687,-0.28125 -0.703125,-0.6914063 -1.59375,-0.6914063 -1.1015625,0 -1.93359372,0.8789063 -1.93359372,1.9335938 0,0.8203125 0.52734372,1.546875 1.30078122,1.8164062 0.1054688,0.046875 0.6210938,0.1640625 1.3125,0.328125 0.2695313,0.070312 0.5742188,0.140625 0.84375,0.515625 0.2109375,0.2578125 0.3164063,0.5859375 0.3164063,0.9140625 0,0.70312504 -0.5039063,1.41796879 -1.3359375,1.41796879 -0.2929688,0 -1.0429688,-0.046875 -1.5703125,-0.5390625 C 0.84467188,-1.1605391 0.82123438,-1.8050703 0.80951563,-2.1566328 c -0.0117188,-0.1054688 -0.09375,-0.1054688 -0.1171875,-0.1054688 -0.12890625,0 -0.12890625,0.070312 -0.12890625,0.2460938 v 1.99218749 c 0,0.17578125 0,0.24609375 0.10546875,0.24609375 0.0703125,0 0.0820313,-0.0234375 0.15234375,-0.12890625 0,-0.01171875 0.0234375,-0.046875 0.35156252,-0.57421875 0.3164062,0.33984375 0.9492187,0.703125 1.8398437,0.703125 1.1601563,0 1.9570313,-0.984375 1.9570313,-2.07421874 0,-0.9960938 -0.65625,-1.8164063 -1.4882813,-2.015625 z m 3.2138672,1.6992187 c 0,-1.6289062 0.8203125,-2.0507812 1.3476563,-2.0507812 0.09375,0 0.7148437,0.011719 1.0664062,0.375 -0.4101562,0.023437 -0.46875,0.328125 -0.46875,0.4570312 0,0.2578125 0.1875,0.4570313 0.4570313,0.4570313 0.2578125,0 0.4570312,-0.1640625 0.4570312,-0.46875 0,-0.6796875 -0.75,-1.0664063 -1.5234375,-1.0664063 -1.2421875,0 -2.15625,1.078125 -2.15625,2.3085938 0,1.27734374 0.984375,2.26171874 2.1445313,2.26171874 1.3359375,0 1.6523437,-1.19531254 1.6523437,-1.28906254 0,-0.1054687 -0.1054687,-0.1054687 -0.1289062,-0.1054687 -0.09375,0 -0.1171875,0.046875 -0.1289063,0.1054687 -0.2929687,0.92578129 -0.9375,1.04296879 -1.3125,1.04296879 -0.5273437,0 -1.40625,-0.421875 -1.40625,-2.02734379 z m 6.5830082,1.40625004 c 0.03516,0.3984375 0.304687,0.8203125 0.773437,0.8203125 0.210938,0 0.820313,-0.140625 0.820313,-0.94921875 V -1.4417891 h -0.246094 v 0.55078129 c 0,0.5859375 -0.246094,0.64453125 -0.363281,0.64453125 -0.328125,0 -0.363282,-0.45703125 -0.363282,-0.50390625 V -2.7425703 c 0,-0.4101563 0,-0.8085938 -0.363281,-1.171875 -0.386719,-0.3867188 -0.878906,-0.5507813 -1.359375,-0.5507813 -0.820312,0 -1.511719,0.46875 -1.511719,1.125 0,0.3046875 0.199219,0.46875 0.457032,0.46875 0.28125,0 0.46875,-0.1992187 0.46875,-0.4570312 0,-0.1171875 -0.05859,-0.4453125 -0.515625,-0.4570313 0.269531,-0.3515625 0.761718,-0.4570312 1.078125,-0.4570312 0.492187,0 1.054687,0.3867187 1.054687,1.2773437 v 0.3632813 c -0.503906,0.035156 -1.207031,0.058594 -1.828125,0.3632812 -0.75,0.3398438 -0.996094,0.8554688 -0.996094,1.28906254 0,0.80859375 0.960938,1.0546875 1.59375,1.0546875 0.65625,0 1.113282,-0.3984375 1.300782,-0.8671875 z m -0.07031,-1.62890624 v 0.9960937 c 0,0.94921879 -0.714844,1.28906254 -1.160156,1.28906254 -0.492188,0 -0.902344,-0.3515625 -0.902344,-0.85546875 0,-0.53906249 0.421875,-1.37109379 2.0625,-1.42968749 z m 3.459961,-1.59375 h 1.429688 V -4.2894453 H 16.667914 V -6.1292891 H 16.42182 c -0.01172,0.8203125 -0.316406,1.8867188 -1.289062,1.921875 v 0.2226563 h 0.84375 v 2.7539062 c 0,1.21875004 0.925781,1.33593754 1.289062,1.33593754 0.703125,0 0.984375,-0.703125 0.984375,-1.33593754 v -0.5742187 h -0.246093 v 0.5507812 c 0,0.73828129 -0.304688,1.11328129 -0.667969,1.11328129 -0.667969,0 -0.667969,-0.90234379 -0.667969,-1.07812499 z m 3.873047,0 h 1.429687 V -4.2894453 H 20.540964 V -6.1292891 H 20.29487 c -0.01172,0.8203125 -0.316406,1.8867188 -1.289062,1.921875 v 0.2226563 h 0.84375 v 2.7539062 c 0,1.21875004 0.925781,1.33593754 1.289062,1.33593754 0.703125,0 0.984375,-0.703125 0.984375,-1.33593754 v -0.5742187 h -0.246094 v 0.5507812 c 0,0.73828129 -0.304687,1.11328129 -0.667968,1.11328129 -0.667969,0 -0.667969,-0.90234379 -0.667969,-1.07812499 z m 3.263672,1.4765625 c 0.05859,-1.4882813 0.902344,-1.734375 1.242187,-1.734375 1.019532,0 1.125,1.3476562 1.125,1.734375 z m -0.01172,0.2109375 h 2.789063 c 0.210937,0 0.246093,0 0.246093,-0.2109375 0,-0.984375 -0.539062,-1.9570313 -1.78125,-1.9570313 -1.160156,0 -2.074218,1.03125 -2.074218,2.2734375 0,1.33593754 1.042968,2.29687504 2.191406,2.29687504 1.21875,0 1.664062,-1.1015625 1.664062,-1.28906254 0,-0.1054687 -0.08203,-0.1171875 -0.128906,-0.1171875 -0.09375,0 -0.117187,0.058594 -0.128906,0.140625 -0.351563,1.01953129 -1.253906,1.01953129 -1.347656,1.01953129 -0.503907,0 -0.902344,-0.29296875 -1.125,-0.66796875 -0.30469,-0.48046874 -0.30469,-1.13671874 -0.30469,-1.48828124 z m 4.992188,-1.0078125 v -1.1015625 l -1.382813,0.1171875 v 0.3046875 c 0.691406,0 0.773438,0.070312 0.773438,0.5625 v 2.66015624 c 0,0.45703125 -0.105469,0.45703125 -0.773438,0.45703125 V -3.828125e-4 C 27.789008,-0.01210156 28.257758,-0.03553906 28.539008,-0.03553906 c 0.398437,0 0.867187,0 1.265625,0.0351562475 V -0.30507031 h -0.210938 c -0.738281,0 -0.761718,-0.1171875 -0.761718,-0.46875 V -2.3089766 c 0,-0.984375 0.421875,-1.875 1.183593,-1.875 0.05859,0 0.08203,0 0.105469,0.011719 -0.03516,0.011719 -0.234375,0.1289062 -0.234375,0.3867187 0,0.28125 0.210938,0.4335938 0.433594,0.4335938 0.175781,0 0.421875,-0.1289063 0.421875,-0.4453125 0,-0.3164063 -0.304688,-0.609375 -0.726563,-0.609375 -0.738281,0 -1.089843,0.6679687 -1.230468,1.1015625 z m 3.996093,-1.1015625 -1.394531,0.1171875 v 0.3046875 c 0.65625,0 0.738281,0.058594 0.738281,0.5507812 v 2.67187504 c 0,0.45703125 -0.105468,0.45703125 -0.773437,0.45703125 V -3.828125e-4 C 31.667914,-0.01210156 32.206977,-0.03553906 32.45307,-0.03553906 c 0.339844,0 0.691407,0.0234375 1.03125,0.0351562475 V -0.30507031 c -0.65625,0 -0.703125,-0.0585938 -0.703125,-0.4453125 z m 0.04687,-1.734375 c 0,-0.3164063 -0.246093,-0.5273438 -0.527343,-0.5273438 -0.316407,0 -0.527344,0.2695313 -0.527344,0.5273438 0,0.2695312 0.210937,0.5273437 0.527344,0.5273437 0.28125,0 0.527343,-0.1992187 0.527343,-0.5273437 z m 2.0625,2.71875 v 2.66015624 c 0,0.45703125 -0.117187,0.45703125 -0.785156,0.45703125 v 0.3046874975 c 0.351563,-0.0117187475 0.855469,-0.0351562475 1.125,-0.0351562475 0.257813,0 0.785156,0.0234375 1.113281,0.0351562475 V -0.30507031 c -0.65625,0 -0.773437,0 -0.773437,-0.45703125 V -2.5902266 c 0,-1.03125 0.714844,-1.59375 1.347656,-1.59375 0.621094,0 0.738281,0.5390625 0.738281,1.1015625 v 2.32031254 c 0,0.45703125 -0.117187,0.45703125 -0.773437,0.45703125 v 0.3046874975 c 0.339844,-0.0117187475 0.855469,-0.0351562475 1.125,-0.0351562475 0.257812,0 0.773437,0.0234375 1.113281,0.0351562475 V -0.30507031 c -0.515625,0 -0.773437,0 -0.785156,-0.3046875 V -2.5081953 c 0,-0.8554688 0,-1.171875 -0.304688,-1.5234375 -0.140625,-0.1757813 -0.46875,-0.375 -1.042968,-0.375 -0.726563,0 -1.195313,0.4335937 -1.476563,1.0546875 v -1.0546875 l -1.40625,0.1171875 v 0.3046875 c 0.703125,0 0.785156,0.070312 0.785156,0.5625 z m 6.650391,1.7109375 c -0.867188,0 -0.867188,-0.9960938 -0.867188,-1.2304688 0,-0.2695312 0.01172,-0.5859375 0.152344,-0.8320312 0.08203,-0.1171875 0.316406,-0.3984375 0.714844,-0.3984375 0.867187,0 0.867187,0.9960937 0.867187,1.21875 0,0.2695312 -0.01172,0.5976562 -0.164062,0.84375 -0.08203,0.1171875 -0.304688,0.3984375 -0.703125,0.3984375 z m -1.160156,0.3867187 c 0,-0.035156 0,-0.2695312 0.175781,-0.46875 0.386719,0.28125 0.796875,0.3046875 0.984375,0.3046875 0.925781,0 1.605469,-0.6796875 1.605469,-1.453125 0,-0.3632812 -0.152344,-0.7382812 -0.398438,-0.9609375 0.351563,-0.3398437 0.714844,-0.3867187 0.890625,-0.3867187 0.02344,0 0.07031,0 0.105469,0 -0.117188,0.046875 -0.164063,0.1523437 -0.164063,0.2695312 0,0.1757813 0.128907,0.2929688 0.292969,0.2929688 0.09375,0 0.28125,-0.070312 0.28125,-0.2929688 0,-0.1757812 -0.117187,-0.4921875 -0.503906,-0.4921875 -0.199219,0 -0.632813,0.058594 -1.054688,0.46875 -0.421875,-0.328125 -0.84375,-0.3632812 -1.054687,-0.3632812 -0.925781,0 -1.617188,0.6914062 -1.617188,1.453125 0,0.4453125 0.222657,0.8203125 0.46875,1.03125 -0.128906,0.1523437 -0.304687,0.4804687 -0.304687,0.8203125 0,0.31640624 0.128906,0.69140624 0.433594,0.89062499 -0.597657,0.17578125 -0.914063,0.59765625 -0.914063,0.99609375 0,0.71484376 0.984375,1.26562496 2.203125,1.26562496 1.171875,0 2.203125,-0.5039062 2.203125,-1.28906246 0,-0.33984375 -0.140625,-0.85546875 -0.644531,-1.125 -0.527344,-0.28125 -1.101563,-0.28125 -1.710938,-0.28125 -0.246093,0 -0.679687,0 -0.75,-0.0117188 -0.316406,-0.046875 -0.527343,-0.35156254 -0.527343,-0.66796874 z m 1.441406,3.1523438 c -1.007813,0 -1.699219,-0.515625 -1.699219,-1.04296876 0,-0.45703125 0.375,-0.8203125 0.820313,-0.85546875 h 0.585937 c 0.855469,0 1.96875,0 1.96875,0.85546875 0,0.53906246 -0.703125,1.04296876 -1.675781,1.04296876 z m 9.761719,-8.765625 c -0.04687,-0.1289063 -0.07031,-0.1992188 -0.222657,-0.1992188 -0.164062,0 -0.1875,0.058594 -0.246093,0.1992188 l -2.0625,5.96484374 c -0.175782,0.50390625 -0.574219,0.65625 -1.113282,0.66796875 V -3.828125e-4 C 48.173773,-0.01210156 48.595648,-0.03553906 48.95893,-0.03553906 c 0.304687,0 0.820312,0.0234375 1.148437,0.0351562475 V -0.30507031 c -0.503906,0 -0.75,-0.2578125 -0.75,-0.515625 0,-0.0234375 0.01172,-0.12890625 0.02344,-0.140625 l 0.457031,-1.31249999 h 2.460937 l 0.527344,1.52343749 c 0.01172,0.046875 0.02344,0.10546875 0.02344,0.140625 0,0.3046875 -0.550782,0.3046875 -0.820313,0.3046875 V -3.828125e-4 C 52.380805,-0.03553906 53.08393,-0.03553906 53.45893,-0.03553906 c 0.433593,0 0.890625,0.01171875 1.300781,0.0351562475 V -0.30507031 H 54.58393 c -0.597657,0 -0.738282,-0.0703125 -0.84375,-0.3984375 z m -0.527344,1.125 1.125,3.234375 h -2.238281 z m 0,0"
       style="fill:#000000;fill-opacity:1;fill-rule:nonzero;stroke:none"
       aria-label="ScatteringA"
       transform="matrix(1.3333333,0,0,1.3333333,20.225333,22.410667)" />
    <path
       id="path3"
       d="M 151.92238,14.17339 H 74.85214 c -2.20094,0 -3.98511,-1.78417 -3.98511,-3.98511 v -20.37656 c 0,-2.20094 1.78417,-3.98511 3.98511,-3.98511 h 77.07024 c 2.20094,0 3.98511,1.78417 3.98511,3.98511 v 20.37656 c 0,2.20094 -1.78417,3.98511 -3.98511,3.98511 z"
       style="fill:#fff64d;fill-opacity:1;fill-rule:nonzero;stroke:#000000;stroke-width:0.3985;stroke-linecap:butt;stroke-linejoin:miter;stroke-miterlimit:10;stroke-dasharray:none;stroke-opacity:1"
       transform="matrix(1.3333333,0,0,-1.3333333,56.958667,19.164)" />
    <path
       id="path4"
       d="M 3.4801641,-3.8675703 2.2028203,-4.1722578 c -0.6210937,-0.1523438 -1.0078125,-0.6914063 -1.0078125,-1.265625 0,-0.703125 0.5390625,-1.3007813 1.3125,-1.3007813 1.6640625,0 1.8867188,1.6289063 1.9453125,2.0742188 0.011719,0.058594 0.011719,0.1171875 0.1171875,0.1171875 0.1289063,0 0.1289063,-0.046875 0.1289063,-0.234375 v -2.0039063 c 0,-0.1640625 0,-0.234375 -0.1054688,-0.234375 -0.070312,0 -0.082031,0.011719 -0.1523437,0.1289063 l -0.3515625,0.5625 c -0.2929688,-0.28125 -0.703125,-0.6914063 -1.59375,-0.6914063 -1.1015625,0 -1.93359379,0.8789063 -1.93359379,1.9335938 0,0.8203125 0.52734379,1.546875 1.30078129,1.8164062 0.1054687,0.046875 0.6210937,0.1640625 1.3125,0.328125 0.2695312,0.070312 0.5742187,0.140625 0.84375,0.515625 0.2109375,0.2578125 0.3164062,0.5859375 0.3164062,0.9140625 0,0.70312504 -0.5039062,1.41796879 -1.3359375,1.41796879 -0.2929687,0 -1.0429687,-0.046875 -1.5703125,-0.5390625 C 0.84344531,-1.1605391 0.82000781,-1.8050703 0.80828906,-2.1566328 c -0.0117188,-0.1054688 -0.09375,-0.1054688 -0.1171875,-0.1054688 -0.12890625,0 -0.12890625,0.070312 -0.12890625,0.2460938 v 1.99218749 c 0,0.17578125 0,0.24609375 0.10546875,0.24609375 0.0703125,0 0.0820313,-0.0234375 0.15234375,-0.12890625 0,-0.01171875 0.0234375,-0.046875 0.35156249,-0.57421875 0.3164063,0.33984375 0.9492188,0.703125 1.8398438,0.703125 1.1601562,0 1.9570312,-0.984375 1.9570312,-2.07421874 0,-0.9960938 -0.65625,-1.8164063 -1.4882812,-2.015625 z m 3.2138671,1.6992187 c 0,-1.6289062 0.8203125,-2.0507812 1.3476563,-2.0507812 0.09375,0 0.7148437,0.011719 1.0664062,0.375 -0.4101562,0.023437 -0.46875,0.328125 -0.46875,0.4570312 0,0.2578125 0.1875,0.4570313 0.4570313,0.4570313 0.2578125,0 0.4570312,-0.1640625 0.4570312,-0.46875 0,-0.6796875 -0.75,-1.0664063 -1.5234375,-1.0664063 -1.2421875,0 -2.15625,1.078125 -2.15625,2.3085938 0,1.27734374 0.984375,2.26171874 2.1445313,2.26171874 1.3359375,0 1.6523437,-1.19531254 1.6523437,-1.28906254 0,-0.1054687 -0.1054687,-0.1054687 -0.1289062,-0.1054687 -0.09375,0 -0.1171875,0.046875 -0.1289063,0.1054687 -0.2929687,0.92578129 -0.9375,1.04296879 -1.3125,1.04296879 -0.5273437,0 -1.40625,-0.421875 -1.40625,-2.02734379 z m 6.5859378,1.40625004 c 0.03516,0.3984375 0.304687,0.8203125 0.773437,0.8203125 0.210938,0 0.820313,-0.140625 0.820313,-0.94921875 V -1.4417891 h -0.246094 v 0.55078129 c 0,0.5859375 -0.246094,0.64453125 -0.363281,0.64453125 -0.328125,0 -0.363282,-0.45703125 -0.363282,-0.50390625 V -2.7425703 c 0,-0.4101563 0,-0.8085938 -0.363281,-1.171875 -0.386719,-0.3867188 -0.878906,-0.5507813 -1.359375,-0.5507813 -0.820312,0 -1.511719,0.46875 -1.511719,1.125 0,0.3046875 0.199219,0.46875 0.457032,0.46875 0.28125,0 0.46875,-0.1992187 0.46875,-0.4570312 0,-0.1171875 -0.05859,-0.4453125 -0.515625,-0.4570313 0.269531,-0.3515625 0.761718,-0.4570312 1.078125,-0.4570312 0.492187,0 1.054687,0.3867187 1.054687,1.2773437 v 0.3632813 c -0.503906,0.035156 -1.207031,0.058594 -1.828125,0.3632812 -0.75,0.3398438 -0.996094,0.8554688 -0.996094,1.28906254 0,0.80859375 0.960938,1.0546875 1.59375,1.0546875 0.65625,0 1.113282,-0.3984375 1.300782,-0.8671875 z m -0.07031,-1.62890624 v 0.9960937 c 0,0.94921879 -0.714844,1.28906254 -1.160156,1.28906254 -0.492188,0 -0.902344,-0.3515625 -0.902344,-0.85546875 0,-0.53906249 0.421875,-1.37109379 2.0625,-1.42968749 z m 3.457031,-1.59375 h 1.429688 V -4.2894453 H 16.66669 v -1.8398438 h -0.246093 c -0.01172,0.8203125 -0.316407,1.8867188 -1.289063,1.921875 v 0.2226563 h 0.84375 v 2.7539062 c 0,1.21875004 0.925781,1.33593754 1.289063,1.33593754 0.703125,0 0.984375,-0.703125 0.984375,-1.33593754 v -0.5742187 h -0.246094 v 0.5507812 c 0,0.73828129 -0.304688,1.11328129 -0.667969,1.11328129 -0.667969,0 -0.667969,-0.90234379 -0.667969,-1.07812499 z m 3.873047,0 h 1.429688 v -0.3046875 h -1.429688 v -1.8398438 h -0.246093 c -0.01172,0.8203125 -0.316407,1.8867188 -1.289063,1.921875 v 0.2226563 h 0.84375 v 2.7539062 c 0,1.21875004 0.925781,1.33593754 1.289063,1.33593754 0.703125,0 0.984375,-0.703125 0.984375,-1.33593754 v -0.5742187 h -0.246094 v 0.5507812 c 0,0.73828129 -0.304688,1.11328129 -0.667969,1.11328129 -0.667969,0 -0.667969,-0.90234379 -0.667969,-1.07812499 z m 3.266602,1.4765625 c 0.05859,-1.4882813 0.902344,-1.734375 1.242187,-1.734375 1.019532,0 1.125,1.3476562 1.125,1.734375 z m -0.01172,0.2109375 h 2.789063 c 0.210937,0 0.246093,0 0.246093,-0.2109375 0,-0.984375 -0.539062,-1.9570313 -1.78125,-1.9570313 -1.160156,0 -2.074218,1.03125 -2.074218,2.2734375 0,1.33593754 1.042968,2.29687504 2.191406,2.29687504 1.21875,0 1.664062,-1.1015625 1.664062,-1.28906254 0,-0.1054687 -0.08203,-0.1171875 -0.128906,-0.1171875 -0.09375,0 -0.117187,0.058594 -0.128906,0.140625 -0.351563,1.01953129 -1.253906,1.01953129 -1.347656,1.01953129 -0.503907,0 -0.902344,-0.29296875 -1.125,-0.66796875 -0.30469,-0.48046874 -0.30469,-1.13671874 -0.30469,-1.48828124 z m 4.989258,-1.0078125 v -1.1015625 l -1.382813,0.1171875 v 0.3046875 c 0.691407,0 0.773438,0.070312 0.773438,0.5625 v 2.66015624 c 0,0.45703125 -0.105469,0.45703125 -0.773438,0.45703125 V -3.828125e-4 C 27.787781,-0.01210156 28.256531,-0.03553906 28.537781,-0.03553906 c 0.398438,0 0.867188,0 1.265625,0.0351562475 V -0.30507031 h -0.210937 c -0.738282,0 -0.761719,-0.1171875 -0.761719,-0.46875 V -2.3089766 c 0,-0.984375 0.421875,-1.875 1.183594,-1.875 0.05859,0 0.08203,0 0.105468,0.011719 -0.03516,0.011719 -0.234375,0.1289062 -0.234375,0.3867187 0,0.28125 0.210938,0.4335938 0.433594,0.4335938 0.175781,0 0.421875,-0.1289063 0.421875,-0.4453125 0,-0.3164063 -0.304687,-0.609375 -0.726562,-0.609375 -0.738282,0 -1.089844,0.6679687 -1.230469,1.1015625 z m 3.996094,-1.1015625 -1.394532,0.1171875 v 0.3046875 c 0.65625,0 0.738282,0.058594 0.738282,0.5507812 v 2.67187504 c 0,0.45703125 -0.105469,0.45703125 -0.773438,0.45703125 V -3.828125e-4 C 31.666687,-0.01210156 32.20575,-0.03553906 32.451844,-0.03553906 c 0.339843,0 0.691406,0.0234375 1.03125,0.0351562475 V -0.30507031 c -0.65625,0 -0.703125,-0.0585938 -0.703125,-0.4453125 z m 0.04687,-1.734375 c 0,-0.3164063 -0.246094,-0.5273438 -0.527344,-0.5273438 -0.316406,0 -0.527344,0.2695313 -0.527344,0.5273438 0,0.2695312 0.210938,0.5273437 0.527344,0.5273437 0.28125,0 0.527344,-0.1992187 0.527344,-0.5273437 z m 2.065429,2.71875 v 2.66015624 c 0,0.45703125 -0.117187,0.45703125 -0.785156,0.45703125 v 0.3046874975 c 0.351563,-0.0117187475 0.855469,-0.0351562475 1.125,-0.0351562475 0.257813,0 0.785156,0.0234375 1.113281,0.0351562475 V -0.30507031 c -0.65625,0 -0.773437,0 -0.773437,-0.45703125 V -2.5902266 c 0,-1.03125 0.714844,-1.59375 1.347656,-1.59375 0.621094,0 0.738281,0.5390625 0.738281,1.1015625 v 2.32031254 c 0,0.45703125 -0.117187,0.45703125 -0.773437,0.45703125 v 0.3046874975 c 0.339844,-0.0117187475 0.855469,-0.0351562475 1.125,-0.0351562475 0.257812,0 0.773437,0.0234375 1.113281,0.0351562475 V -0.30507031 c -0.515625,0 -0.773437,0 -0.785156,-0.3046875 V -2.5081953 c 0,-0.8554688 0,-1.171875 -0.304688,-1.5234375 -0.140625,-0.1757813 -0.46875,-0.375 -1.042968,-0.375 -0.726563,0 -1.195313,0.4335937 -1.476563,1.0546875 v -1.0546875 l -1.40625,0.1171875 v 0.3046875 c 0.703125,0 0.785156,0.070312 0.785156,0.5625 z m 6.647461,1.7109375 c -0.867187,0 -0.867187,-0.9960938 -0.867187,-1.2304688 0,-0.2695312 0.01172,-0.5859375 0.152344,-0.8320312 0.08203,-0.1171875 0.316406,-0.3984375 0.714843,-0.3984375 0.867188,0 0.867188,0.9960937 0.867188,1.21875 0,0.2695312 -0.01172,0.5976562 -0.164063,0.84375 -0.08203,0.1171875 -0.304687,0.3984375 -0.703125,0.3984375 z m -1.160156,0.3867187 c 0,-0.035156 0,-0.2695312 0.175781,-0.46875 0.386719,0.28125 0.796875,0.3046875 0.984375,0.3046875 0.925782,0 1.605469,-0.6796875 1.605469,-1.453125 0,-0.3632812 -0.152344,-0.7382812 -0.398437,-0.9609375 0.351562,-0.3398437 0.714843,-0.3867187 0.890625,-0.3867187 0.02344,0 0.07031,0 0.105468,0 -0.117187,0.046875 -0.164062,0.1523437 -0.164062,0.2695312 0,0.1757813 0.128906,0.2929688 0.292969,0.2929688 0.09375,0 0.28125,-0.070312 0.28125,-0.2929688 0,-0.1757812 -0.117188,-0.4921875 -0.503907,-0.4921875 -0.199218,0 -0.632812,0.058594 -1.054687,0.46875 -0.421875,-0.328125 -0.84375,-0.3632812 -1.054688,-0.3632812 -0.925781,0 -1.617187,0.6914062 -1.617187,1.453125 0,0.4453125 0.222656,0.8203125 0.46875,1.03125 -0.128906,0.1523437 -0.304688,0.4804687 -0.304688,0.8203125 0,0.31640624 0.128907,0.69140624 0.433594,0.89062499 -0.597656,0.17578125 -0.914062,0.59765625 -0.914062,0.99609375 0,0.71484376 0.984375,1.26562496 2.203125,1.26562496 1.171875,0 2.203125,-0.5039062 2.203125,-1.28906246 0,-0.33984375 -0.140625,-0.85546875 -0.644532,-1.125 -0.527343,-0.28125 -1.101562,-0.28125 -1.710937,-0.28125 -0.246094,0 -0.679688,0 -0.75,-0.0117188 -0.316406,-0.046875 -0.527344,-0.35156254 -0.527344,-0.66796874 z m 1.441406,3.1523438 c -1.007812,0 -1.699218,-0.515625 -1.699218,-1.04296876 0,-0.45703125 0.375,-0.8203125 0.820312,-0.85546875 h 0.585938 c 0.855468,0 1.96875,0 1.96875,0.85546875 0,0.53906246 -0.703125,1.04296876 -1.675782,1.04296876 z m 8.018555,-5.4726563 v -2.4492187 c 0,-0.328125 0.01172,-0.3984375 0.480469,-0.3984375 h 1.242187 c 0.960938,0 1.3125,0.84375 1.3125,1.3710937 0,0.6328125 -0.492187,1.4765625 -1.59375,1.4765625 z m 2.34375,0.09375 c 0.972656,-0.1992187 1.652344,-0.8320312 1.652344,-1.5703125 0,-0.8671875 -0.914063,-1.6875 -2.203125,-1.6875 h -3.644531 v 0.3164063 h 0.234375 c 0.761718,0 0.785156,0.1054687 0.785156,0.46875 v 5.24999999 c 0,0.3515625 -0.02344,0.46875 -0.785156,0.46875 h -0.234375 v 0.3046874975 h 3.902343 c 1.324219,0 2.214844,-0.8906249975 2.214844,-1.8281249875 0,-0.8671875 -0.808594,-1.6054688 -1.921875,-1.7226563 z m -0.609375,3.24609379 h -1.253906 c -0.46875,0 -0.480469,-0.0703125 -0.480469,-0.3984375 V -3.4222578 h 1.875 c 0.984375,0 1.394531,0.9257812 1.394531,1.59375 0,0.703125 -0.515625,1.52343749 -1.535156,1.52343749 z m 0,0"
       style="fill:#000000;fill-opacity:1;fill-rule:nonzero;stroke:none"
       aria-label="ScatteringB"
       transform="matrix(1.3333333,0,0,1.3333333,171.684,22.410667)" />
    <path
       id="path5"
       d="m 265.30965,14.17339 h -77.07024 c -2.20094,0 -3.98511,-1.78417 -3.98511,-3.98511 v -20.37656 c 0,-2.20094 1.78417,-3.98511 3.98511,-3.98511 h 77.07024 c 2.20094,0 3.9851,1.78417 3.9851,3.98511 v 20.37656 c 0,2.20094 -1.78416,3.98511 -3.9851,3.98511 z"
       style="fill:#fff64d;fill-opacity:1;fill-rule:nonzero;stroke:#000000;stroke-width:0.3985;stroke-linecap:butt;stroke-linejoin:miter;stroke-miterlimit:10;stroke-dasharray:none;stroke-opacity:1"
       transform="matrix(1.3333333,0,0,-1.3333333,56.958667,19.164)" />
    <path
       id="path6"
       d="M 5.8005938,-6.7724297 H 0.3279375 v 0.3046875 h 0.234375 c 0.7734375,0 0.796875,0.1171875 0.796875,0.46875 v 5.22656251 c 0,0.3515625 -0.023437,0.46875 -0.796875,0.46875 h -0.234375 v 0.3046875 c 0.3515625,-0.03515625 1.125,-0.03515625 1.5117188,-0.03515625 0.4101562,0 1.3125,0 1.6757812,0.03515625 v -0.3046875 h -0.328125 c -0.9492187,0 -0.9492187,-0.12890625 -0.9492187,-0.48046875 V -3.2333672 h 0.8554687 c 0.9609375,0 1.0546875,0.3164063 1.0546875,1.1601563 H 4.4060625 V -4.7099297 H 4.14825 c 0,0.8320313 -0.09375,1.1601563 -1.0546875,1.1601563 H 2.2380938 v -2.5195313 c 0,-0.328125 0.023437,-0.3984375 0.4921875,-0.3984375 h 1.1953125 c 1.4882812,0 1.7460937,0.5625 1.8984375,1.9335938 h 0.2578125 z m 1.5410156,3.46875 v -1.1015625 l -1.3828125,0.1171875 v 0.3046875 c 0.6914062,0 0.7734375,0.070312 0.7734375,0.5625 v 2.66015626 c 0,0.45703125 -0.1054688,0.45703125 -0.7734375,0.45703125 v 0.3046875 c 0.3867187,-0.01171875 0.8554687,-0.03515625 1.1367187,-0.03515625 0.3984375,0 0.8671875,0 1.265625,0.03515625 v -0.3046875 H 8.1502031 c -0.7382812,0 -0.7617187,-0.1171875 -0.7617187,-0.46875 V -2.3075859 c 0,-0.984375 0.421875,-1.875 1.1835937,-1.875 0.058594,0 0.082031,0 0.1054688,0.011719 -0.035156,0.011719 -0.234375,0.1289063 -0.234375,0.3867188 0,0.28125 0.2109375,0.4335937 0.4335937,0.4335937 0.1757813,0 0.421875,-0.1289062 0.421875,-0.4453125 0,-0.3164062 -0.3046875,-0.609375 -0.7265625,-0.609375 -0.7382812,0 -1.0898437,0.6679688 -1.2304687,1.1015622 z m 3.3515626,0.796875 c 0.05859,-1.4882812 0.902344,-1.734375 1.242187,-1.734375 1.019532,0 1.125,1.3476563 1.125,1.734375 z m -0.01172,0.2109375 h 2.789063 c 0.210937,0 0.246093,0 0.246093,-0.2109375 0,-0.984375 -0.539062,-1.9570312 -1.78125,-1.9570312 -1.160156,0 -2.0742184,1.03125 -2.0742184,2.2734375 0,1.33593746 1.0429684,2.29687496 2.1914064,2.29687496 1.21875,0 1.664062,-1.1015625 1.664062,-1.28906246 0,-0.1054688 -0.08203,-0.1171875 -0.128906,-0.1171875 -0.09375,0 -0.117187,0.058594 -0.128906,0.140625 -0.351563,1.01953121 -1.253906,1.01953121 -1.347656,1.01953121 -0.503907,0 -0.902344,-0.29296875 -1.125,-0.66796875 C 10.681453,-1.2880547 10.681453,-1.9443047 10.681453,-2.2958672 Z m 5.399414,0.3632813 c 0.222656,0.035156 1.03125,0.1992187 1.03125,0.9140625 0,0.51562496 -0.351562,0.91406246 -1.125,0.91406246 -0.832031,0 -1.195312,-0.57421875 -1.382812,-1.41796876 -0.03516,-0.1289062 -0.03516,-0.1757812 -0.140625,-0.1757812 -0.128907,0 -0.128907,0.070312 -0.128907,0.2578125 v 1.31249996 c 0,0.1640625 0,0.234375 0.105469,0.234375 0.05859,0 0.07031,0 0.257813,-0.19921875 0.01172,-0.01171875 0.01172,-0.03515625 0.199218,-0.22265625 0.433594,0.421875 0.878907,0.421875 1.089844,0.421875 1.148438,0 1.605469,-0.66796875 1.605469,-1.38281246 0,-0.5273438 -0.292969,-0.8203125 -0.421875,-0.9492188 -0.328125,-0.3164062 -0.714844,-0.3984375 -1.136719,-0.46875 -0.550781,-0.1171875 -1.21875,-0.2460937 -1.21875,-0.8203125 0,-0.3515625 0.257813,-0.7617187 1.113281,-0.7617187 1.101563,0 1.148438,0.9023437 1.171875,1.2070312 0,0.09375 0.09375,0.09375 0.117188,0.09375 0.128906,0 0.128906,-0.046875 0.128906,-0.2460937 v -0.9960938 c 0,-0.1757812 0,-0.2460937 -0.117187,-0.2460937 -0.04687,0 -0.07031,0 -0.199219,0.1171875 -0.02344,0.046875 -0.128906,0.1289062 -0.164063,0.1640625 -0.375,-0.28125 -0.785156,-0.28125 -0.9375,-0.28125 -1.21875,0 -1.59375,0.6679687 -1.59375,1.2304687 0,0.3398438 0.164063,0.6210938 0.433594,0.84375 0.316406,0.2578125 0.597656,0.3164063 1.3125,0.4570313 z m 2.956055,-1.4882813 v 2.66015626 c 0,0.45703125 -0.117188,0.45703125 -0.785156,0.45703125 v 0.3046875 c 0.351562,-0.01171875 0.855468,-0.03515625 1.125,-0.03515625 0.257812,0 0.785156,0.0234375 1.113281,0.03515625 v -0.3046875 c -0.65625,0 -0.773438,0 -0.773438,-0.45703125 V -2.5888359 c 0,-1.03125 0.714844,-1.59375 1.347657,-1.59375 0.621093,0 0.738281,0.5390625 0.738281,1.1015625 v 2.32031246 c 0,0.45703125 -0.117188,0.45703125 -0.773438,0.45703125 v 0.3046875 c 0.339844,-0.01171875 0.855469,-0.03515625 1.125,-0.03515625 0.257813,0 0.773438,0.0234375 1.113282,0.03515625 v -0.3046875 c -0.515625,0 -0.773438,0 -0.785157,-0.3046875 V -2.5068047 c 0,-0.8554687 0,-1.171875 -0.304687,-1.5234375 -0.140625,-0.1757812 -0.46875,-0.375 -1.042969,-0.375 -0.726562,0 -1.195312,0.4335938 -1.476562,1.0546875 v -1.0546875 l -1.40625,0.1171875 v 0.3046875 c 0.703125,0 0.785156,0.070312 0.785156,0.5625 z m 5.545898,0.9140625 c 0.05859,-1.4882812 0.902344,-1.734375 1.242188,-1.734375 1.019531,0 1.125,1.3476563 1.125,1.734375 z m -0.01172,0.2109375 h 2.789062 c 0.210938,0 0.246094,0 0.246094,-0.2109375 0,-0.984375 -0.539063,-1.9570312 -1.78125,-1.9570312 -1.160156,0 -2.074219,1.03125 -2.074219,2.2734375 0,1.33593746 1.042969,2.29687496 2.191406,2.29687496 1.21875,0 1.664063,-1.1015625 1.664063,-1.28906246 0,-0.1054688 -0.08203,-0.1171875 -0.128906,-0.1171875 -0.09375,0 -0.117188,0.058594 -0.128907,0.140625 -0.351562,1.01953121 -1.253906,1.01953121 -1.347656,1.01953121 -0.503906,0 -0.902344,-0.29296875 -1.125,-0.66796875 C 24.571102,-1.2880547 24.571102,-1.9443047 24.571102,-2.2958672 Z m 5.085937,-4.6171875 -1.429687,0.1054688 v 0.3164062 c 0.703125,0 0.773437,0.070312 0.773437,0.5507813 v 5.17968746 c 0,0.45703125 -0.105469,0.45703125 -0.773437,0.45703125 v 0.3046875 c 0.328125,-0.01171875 0.855468,-0.03515625 1.101562,-0.03515625 0.257813,0 0.738281,0.0234375 1.113281,0.03515625 v -0.3046875 c -0.667968,0 -0.785156,0 -0.785156,-0.45703125 z m 7.256836,0.5390625 c 0,-0.234375 0,-0.2578125 -0.234375,-0.2578125 -0.609375,0.6328125 -1.488281,0.6328125 -1.804687,0.6328125 v 0.3164063 c 0.199218,0 0.785156,0 1.300781,-0.2578125 v 5.15624996 c 0,0.3515625 -0.03516,0.48046875 -0.925781,0.48046875 h -0.316407 v 0.3046875 c 0.351563,-0.03515625 1.207032,-0.03515625 1.605469,-0.03515625 0.398438,0 1.265625,0 1.617188,0.03515625 v -0.3046875 h -0.316407 c -0.902343,0 -0.925781,-0.1171875 -0.925781,-0.48046875 z m 0,0"
       style="fill:#000000;fill-opacity:1;fill-rule:nonzero;stroke:none"
       aria-label="Fresnel1"
       transform="matrix(1.3333333,0,0,1.3333333,333.344,23.776)" />
    <path
       id="path7"
       d="M 378.69691,14.17339 H 301.6267 c -2.20095,0 -3.98511,-1.78417 -3.98511,-3.98511 v -20.37656 c 0,-2.20094 1.78416,-3.98511 3.98511,-3.98511 h 77.07021 c 2.20095,0 3.98511,1.78417 3.98511,3.98511 v 20.37656 c 0,2.20094 -1.78416,3.98511 -3.98511,3.98511 z"
       style="fill:#fff64d;fill-opacity:1;fill-rule:nonzero;stroke:#000000;stroke-width:0.3985;stroke-linecap:butt;stroke-linejoin:miter;stroke-miterlimit:10;stroke-dasharray:none;stroke-opacity:1"
       transform="matrix(1.3333333,0,0,-1.3333333,56.958667,19.164)" />
    <path
       id="path8"
       d="M 5.7993594,-6.7724297 H 0.32670312 v 0.3046875 h 0.234375 c 0.77343748,0 0.79687498,0.1171875 0.79687498,0.46875 v 5.22656251 c 0,0.3515625 -0.023437,0.46875 -0.79687498,0.46875 h -0.234375 v 0.3046875 c 0.3515625,-0.03515625 1.12499998,-0.03515625 1.51171878,-0.03515625 0.4101562,0 1.3125,0 1.6757812,0.03515625 v -0.3046875 h -0.328125 c -0.9492187,0 -0.9492187,-0.12890625 -0.9492187,-0.48046875 V -3.2333672 h 0.8554687 c 0.9609375,0 1.0546875,0.3164063 1.0546875,1.1601563 H 4.4048281 V -4.7099297 H 4.1470156 c 0,0.8320313 -0.09375,1.1601563 -1.0546875,1.1601563 H 2.2368594 v -2.5195313 c 0,-0.328125 0.023437,-0.3984375 0.4921875,-0.3984375 h 1.1953125 c 1.4882812,0 1.7460937,0.5625 1.8984375,1.9335938 h 0.2578125 z m 1.5410156,3.46875 v -1.1015625 l -1.3828125,0.1171875 v 0.3046875 c 0.6914062,0 0.7734375,0.070312 0.7734375,0.5625 v 2.66015626 c 0,0.45703125 -0.1054688,0.45703125 -0.7734375,0.45703125 v 0.3046875 c 0.3867187,-0.01171875 0.8554687,-0.03515625 1.1367187,-0.03515625 0.3984375,0 0.8671875,0 1.265625,0.03515625 v -0.3046875 H 8.1489687 c -0.7382812,0 -0.7617187,-0.1171875 -0.7617187,-0.46875 V -2.3075859 c 0,-0.984375 0.421875,-1.875 1.1835937,-1.875 0.058594,0 0.082031,0 0.1054688,0.011719 -0.035156,0.011719 -0.234375,0.1289063 -0.234375,0.3867188 0,0.28125 0.2109375,0.4335937 0.4335937,0.4335937 0.1757813,0 0.421875,-0.1289062 0.421875,-0.4453125 0,-0.3164062 -0.3046875,-0.609375 -0.7265625,-0.609375 -0.7382812,0 -1.0898437,0.6679688 -1.2304687,1.1015622 z m 3.351562,0.796875 c 0.05859,-1.4882812 0.902344,-1.734375 1.242188,-1.734375 1.019531,0 1.125,1.3476563 1.125,1.734375 z m -0.01172,0.2109375 h 2.789062 c 0.210938,0 0.246094,0 0.246094,-0.2109375 0,-0.984375 -0.539063,-1.9570312 -1.78125,-1.9570312 -1.160156,0 -2.0742188,1.03125 -2.0742188,2.2734375 0,1.33593746 1.0429688,2.29687496 2.1914058,2.29687496 1.21875,0 1.664063,-1.1015625 1.664063,-1.28906246 0,-0.1054688 -0.08203,-0.1171875 -0.128906,-0.1171875 -0.09375,0 -0.117188,0.058594 -0.128907,0.140625 -0.351562,1.01953121 -1.253906,1.01953121 -1.347656,1.01953121 -0.503906,0 -0.902344,-0.29296875 -1.125,-0.66796875 C 10.680219,-1.2880547 10.680219,-1.9443047 10.680219,-2.2958672 Z m 5.399414,0.3632813 c 0.222656,0.035156 1.03125,0.1992187 1.03125,0.9140625 0,0.51562496 -0.351563,0.91406246 -1.125,0.91406246 -0.832031,0 -1.195313,-0.57421875 -1.382813,-1.41796876 -0.03516,-0.1289062 -0.03516,-0.1757812 -0.140625,-0.1757812 -0.128906,0 -0.128906,0.070312 -0.128906,0.2578125 v 1.31249996 c 0,0.1640625 0,0.234375 0.105469,0.234375 0.05859,0 0.07031,0 0.257812,-0.19921875 0.01172,-0.01171875 0.01172,-0.03515625 0.199219,-0.22265625 0.433594,0.421875 0.878906,0.421875 1.089844,0.421875 1.148437,0 1.605469,-0.66796875 1.605469,-1.38281246 0,-0.5273438 -0.292969,-0.8203125 -0.421875,-0.9492188 -0.328125,-0.3164062 -0.714844,-0.3984375 -1.136719,-0.46875 -0.550781,-0.1171875 -1.21875,-0.2460937 -1.21875,-0.8203125 0,-0.3515625 0.257812,-0.7617187 1.113281,-0.7617187 1.101563,0 1.148438,0.9023437 1.171875,1.2070312 0,0.09375 0.09375,0.09375 0.117188,0.09375 0.128906,0 0.128906,-0.046875 0.128906,-0.2460937 v -0.9960938 c 0,-0.1757812 0,-0.2460937 -0.117188,-0.2460937 -0.04687,0 -0.07031,0 -0.199218,0.1171875 -0.02344,0.046875 -0.128907,0.1289062 -0.164063,0.1640625 -0.375,-0.28125 -0.785156,-0.28125 -0.9375,-0.28125 -1.21875,0 -1.59375,0.6679687 -1.59375,1.2304687 0,0.3398438 0.164063,0.6210938 0.433594,0.84375 0.316406,0.2578125 0.597656,0.3164063 1.3125,0.4570313 z m 2.958984,-1.4882813 v 2.66015626 c 0,0.45703125 -0.117187,0.45703125 -0.785156,0.45703125 v 0.3046875 c 0.351562,-0.01171875 0.855469,-0.03515625 1.125,-0.03515625 0.257812,0 0.785156,0.0234375 1.113281,0.03515625 v -0.3046875 c -0.65625,0 -0.773437,0 -0.773437,-0.45703125 V -2.5888359 c 0,-1.03125 0.714843,-1.59375 1.347656,-1.59375 0.621094,0 0.738281,0.5390625 0.738281,1.1015625 v 2.32031246 c 0,0.45703125 -0.117187,0.45703125 -0.773437,0.45703125 v 0.3046875 c 0.339843,-0.01171875 0.855468,-0.03515625 1.125,-0.03515625 0.257812,0 0.773437,0.0234375 1.113281,0.03515625 v -0.3046875 c -0.515625,0 -0.773438,0 -0.785156,-0.3046875 V -2.5068047 c 0,-0.8554687 0,-1.171875 -0.304688,-1.5234375 -0.140625,-0.1757812 -0.46875,-0.375 -1.042969,-0.375 -0.726562,0 -1.195312,0.4335938 -1.476562,1.0546875 v -1.0546875 l -1.40625,0.1171875 v 0.3046875 c 0.703125,0 0.785156,0.070312 0.785156,0.5625 z m 5.545899,0.9140625 c 0.05859,-1.4882812 0.902343,-1.734375 1.242187,-1.734375 1.019531,0 1.125,1.3476563 1.125,1.734375 z m -0.01172,0.2109375 h 2.789062 c 0.210938,0 0.246094,0 0.246094,-0.2109375 0,-0.984375 -0.539062,-1.9570312 -1.78125,-1.9570312 -1.160156,0 -2.074219,1.03125 -2.074219,2.2734375 0,1.33593746 1.042969,2.29687496 2.191407,2.29687496 1.21875,0 1.664062,-1.1015625 1.664062,-1.28906246 0,-0.1054688 -0.08203,-0.1171875 -0.128906,-0.1171875 -0.09375,0 -0.117188,0.058594 -0.128906,0.140625 -0.351563,1.01953121 -1.253907,1.01953121 -1.347657,1.01953121 -0.503906,0 -0.902343,-0.29296875 -1.125,-0.66796875 C 24.572797,-1.2880547 24.572797,-1.9443047 24.572797,-2.2958672 Z m 5.083008,-4.6171875 -1.429688,0.1054688 v 0.3164062 c 0.703125,0 0.773438,0.070312 0.773438,0.5507813 v 5.17968746 c 0,0.45703125 -0.105469,0.45703125 -0.773438,0.45703125 v 0.3046875 c 0.328125,-0.01171875 0.855469,-0.03515625 1.101563,-0.03515625 0.257812,0 0.738281,0.0234375 1.113281,0.03515625 v -0.3046875 c -0.667969,0 -0.785156,0 -0.785156,-0.45703125 z m 5.592773,6.15234376 1.054688,-1.03124996 c 1.558593,-1.3710938 2.15625,-1.9101563 2.15625,-2.90625 0,-1.1367188 -0.902344,-1.9335938 -2.121094,-1.9335938 -1.125,0 -1.851563,0.9140625 -1.851563,1.8046875 0,0.5507813 0.492188,0.5507813 0.527344,0.5507813 0.164063,0 0.515625,-0.1171875 0.515625,-0.5273438 0,-0.2578125 -0.1875,-0.515625 -0.527344,-0.515625 -0.08203,0 -0.105468,0 -0.128906,0.011719 0.222656,-0.6445313 0.761719,-1.0195313 1.335938,-1.0195313 0.914062,0 1.335937,0.8085938 1.335937,1.6289063 0,0.796875 -0.492187,1.5820312 -1.042969,2.203125 l -1.910156,2.13281246 c -0.105469,0.10546875 -0.105469,0.12890625 -0.105469,0.36328125 h 3.691407 L 38.459513,-1.733367 H 38.2017 c -0.04687,0.3046875 -0.117187,0.73828126 -0.210937,0.89062501 -0.07031,0.0820313 -0.726563,0.0820313 -0.949219,0.0820313 z m 0,0"
       style="fill:#000000;fill-opacity:1;fill-rule:nonzero;stroke:none"
       aria-label="Fresnel2"
       transform="matrix(1.3333333,0,0,1.3333333,484.52533,23.776)" />
    <path
       id="path9"
       d="m 38.53511,-42.52022 h -77.07022 c -2.20094,0 -3.98511,-1.78416 -3.98511,-3.98511 V -66.8819 c 0,-2.20094 1.78417,-3.9851 3.98511,-3.9851 h 77.07022 c 2.20094,0 3.98511,1.78416 3.98511,3.9851 v 20.37657 c 0,2.20095 -1.78417,3.98511 -3.98511,3.98511 z"
       style="fill:#fff64d;fill-opacity:1;fill-rule:nonzero;stroke:#000000;stroke-width:0.3985;stroke-linecap:butt;stroke-linejoin:miter;stroke-miterlimit:10;stroke-dasharray:none;stroke-opacity:1"
       transform="matrix(1.3333333,0,0,-1.3333333,56.958667,19.164)" />
    <path
       id="path10"
       d="m 2.3089687,-6.6792969 c -0.082031,-0.1171875 -0.09375,-0.1289062 -0.28125,-0.1289062 H 0.3285 v 0.3164062 h 0.29296875 c 0.140625,0 0.33984375,0.011719 0.49218745,0.011719 0.234375,0.035156 0.2460938,0.046875 0.2460938,0.234375 v 5.203125 c 0,0.26953123 0,0.73828123 -1.03125,0.73828123 V 3.90625e-4 C 0.6800625,-0.01132812 1.1605312,-0.03476562 1.500375,-0.03476562 c 0.328125,0 0.8085937,0.0234375 1.1601562,0.035156245 V -0.30429687 c -1.03125,0 -1.03125,-0.46875 -1.03125,-0.73828123 v -5.1796875 c 0.058594,0.046875 0.070312,0.058594 0.1054688,0.1171875 l 4.0664062,5.97656248 c 0.082031,0.1171875 0.09375,0.128906245 0.1640625,0.128906245 0.140625,0 0.140625,-0.070312495 0.140625,-0.257812495 V -5.7535156 c 0,-0.2695313 0,-0.7382813 1.03125,-0.7382813 v -0.3164062 c -0.3515625,0.011719 -0.84375,0.035156 -1.171875,0.035156 -0.328125,0 -0.8203125,-0.023437 -1.1601562,-0.035156 v 0.3164062 c 1.0195312,0 1.0195312,0.46875 1.0195312,0.7382813 v 4.2539062 z m 6.2753907,4.171875 c 0.058594,-1.4882812 0.9023437,-1.734375 1.2421875,-1.734375 1.0195311,0 1.1250001,1.3476563 1.1250001,1.734375 z m -0.011719,0.2109375 h 2.7890626 c 0.210938,0 0.246094,0 0.246094,-0.2109375 0,-0.984375 -0.539063,-1.9570312 -1.7812503,-1.9570312 -1.1601563,0 -2.0742188,1.03125 -2.0742188,2.2734375 0,1.33593748 1.0429688,2.29687498 2.1914063,2.29687498 1.2187498,0 1.6640628,-1.1015625 1.6640628,-1.28906248 0,-0.1054688 -0.08203,-0.1171875 -0.128906,-0.1171875 -0.09375,0 -0.117188,0.058594 -0.128907,0.140625 -0.351562,1.01953123 -1.253906,1.01953123 -1.347656,1.01953123 -0.5039063,0 -0.9023438,-0.29296875 -1.1250001,-0.66796875 C 8.5726406,-1.2886719 8.5726406,-1.9449219 8.5726404,-2.2964844 Z m 5.0507816,-1.6875 h 1.429687 v -0.3046875 h -1.429687 v -1.8398437 h -0.246094 c -0.01172,0.8203125 -0.316406,1.8867187 -1.289062,1.921875 v 0.2226562 h 0.84375 v 2.7539063 c 0,1.21874998 0.925781,1.33593748 1.289062,1.33593748 0.703125,0 0.984375,-0.703125 0.984375,-1.33593748 v -0.5742188 h -0.246094 v 0.5507813 c 0,0.73828123 -0.304687,1.11328123 -0.667968,1.11328123 -0.667969,0 -0.667969,-0.90234373 -0.667969,-1.07812503 z m 7.693359,0.46875 v -2.578125 c 0,-0.234375 0,-0.3515625 0.222656,-0.3867187 0.105469,-0.011719 0.386719,-0.011719 0.585938,-0.011719 0.902344,0 2.015625,0.035156 2.015625,1.4765625 0,0.6914063 -0.234375,1.5 -1.710938,1.5 z m 2.109375,0.1289063 c 0.960938,-0.234375 1.746094,-0.84375 1.746094,-1.6289063 0,-0.9492187 -1.136719,-1.7929687 -2.601563,-1.7929687 h -3.128906 v 0.3164062 h 0.234375 c 0.773438,0 0.785156,0.1054688 0.785156,0.46875 v 5.25000003 c 0,0.3515625 -0.01172,0.46875 -0.785156,0.46875 H 19.441781 V 3.90625e-4 c 0.351563,-0.035156245 1.066406,-0.035156245 1.453125,-0.035156245 0.386719,0 1.089844,0 1.453125,0.035156245 V -0.30429687 h -0.234375 c -0.773437,0 -0.796875,-0.1171875 -0.796875,-0.46875 V -3.2925781 h 1.148438 c 0.164062,0 0.574218,0 0.925781,0.3398437 0.386719,0.3515625 0.386719,0.65625 0.386719,1.3242188 0,0.65624998 0,1.05468748 0.398437,1.42968748 0.410156,0.36328125 0.960938,0.421875 1.253906,0.421875 0.785157,0 0.949219,-0.8203125 0.949219,-1.1015625 0,-0.0585938 0,-0.16406248 -0.128906,-0.16406248 -0.105469,0 -0.105469,0.0820312 -0.117188,0.15234373 -0.05859,0.71484375 -0.410156,0.890624995 -0.65625,0.890624995 -0.492187,0 -0.574218,-0.503906245 -0.703125,-1.429687525 l -0.140625,-0.796875 c -0.175781,-0.6445312 -0.65625,-0.9726562 -1.207031,-1.1601562 z m 6.316406,2.62499998 c 0.03516,0.3984375 0.304688,0.8203125 0.773438,0.8203125 0.210937,0 0.820312,-0.140625 0.820312,-0.94921875 V -1.4410156 h -0.246093 v 0.55078123 c 0,0.5859375 -0.246094,0.64453125 -0.363282,0.64453125 -0.328125,0 -0.363281,-0.45703125 -0.363281,-0.50390625 V -2.7417969 c 0,-0.4101562 0,-0.8085937 -0.363281,-1.171875 -0.386719,-0.3867187 -0.878906,-0.5507812 -1.359375,-0.5507812 -0.820313,0 -1.511719,0.46875 -1.511719,1.125 0,0.3046875 0.199219,0.46875 0.457031,0.46875 0.28125,0 0.46875,-0.1992188 0.46875,-0.4570313 0,-0.1171875 -0.05859,-0.4453125 -0.515625,-0.4570312 0.269532,-0.3515625 0.761719,-0.4570313 1.078125,-0.4570313 0.492188,0 1.054688,0.3867188 1.054688,1.2773438 v 0.3632812 c -0.503906,0.035156 -1.207031,0.058594 -1.828125,0.3632813 -0.75,0.3398437 -0.996094,0.8554687 -0.996094,1.28906248 0,0.80859375 0.960938,1.0546875 1.59375,1.0546875 0.65625,0 1.113281,-0.3984375 1.300781,-0.8671875 z M 29.67225,-2.3902344 v 0.9960938 c 0,0.94921873 -0.714844,1.28906248 -1.160156,1.28906248 -0.492188,0 -0.902344,-0.3515625 -0.902344,-0.85546875 0,-0.53906253 0.421875,-1.37109373 2.0625,-1.42968753 z m 5.519531,1.83984378 v 0.65625 L 36.656625,3.90625e-4 V -0.30429687 c -0.703125,0 -0.773438,-0.0703125 -0.773438,-0.5625 V -6.9136719 l -1.441406,0.1054688 v 0.3164062 c 0.703125,0 0.785156,0.070312 0.785156,0.5507813 v 2.15625 c -0.292968,-0.3632813 -0.726562,-0.6210938 -1.265625,-0.6210938 -1.171875,0 -2.214843,0.984375 -2.214843,2.2617188 0,1.26562498 0.972656,2.24999998 2.109375,2.24999998 0.644531,0 1.089843,-0.33984375 1.335937,-0.65625 z m 0,-2.67187498 v 2.0507812 c 0,0.17578128 0,0.19921878 -0.105469,0.36328128 -0.304687,0.48046875 -0.75,0.703125 -1.183593,0.703125 -0.445313,0 -0.796875,-0.2578125 -1.042969,-0.64453125 -0.257813,-0.41015623 -0.292969,-0.97265623 -0.292969,-1.38281253 0,-0.3632812 0.02344,-0.9609375 0.316406,-1.4179687 0.210938,-0.3046875 0.585938,-0.6328125 1.125,-0.6328125 0.351563,0 0.761719,0.1523437 1.078125,0.5976562 0.105469,0.1640625 0.105469,0.1875 0.105469,0.3632813 z m 9.038086,-3.7148438 c -0.04687,-0.1289062 -0.07031,-0.1992187 -0.222656,-0.1992187 -0.164063,0 -0.1875,0.058594 -0.246094,0.1992187 l -2.0625,5.96484378 c -0.175781,0.50390625 -0.574219,0.65625 -1.113281,0.66796875 V 3.90625e-4 c 0.234375,-0.011718745 0.65625,-0.035156245 1.019531,-0.035156245 0.304688,0 0.820313,0.0234375 1.148438,0.035156245 V -0.30429687 c -0.503907,0 -0.75,-0.2578125 -0.75,-0.515625 0,-0.0234375 0.01172,-0.12890625 0.02344,-0.140625 l 0.457031,-1.31250003 h 2.460938 l 0.527344,1.52343753 c 0.01172,0.046875 0.02344,0.10546875 0.02344,0.140625 0,0.3046875 -0.550781,0.3046875 -0.820312,0.3046875 V 3.90625e-4 c 0.351562,-0.035156245 1.054687,-0.035156245 1.429687,-0.035156245 0.433594,0 0.890625,0.01171875 1.300781,0.035156245 V -0.30429687 h -0.175781 c -0.597656,0 -0.738281,-0.0703125 -0.84375,-0.3984375 z m -0.527344,1.125 1.125,3.234375 h -2.238281 z m 6.966797,-0.5625 c 0,-0.234375 0,-0.2578125 -0.234375,-0.2578125 -0.609375,0.6328125 -1.488281,0.6328125 -1.804687,0.6328125 v 0.3164063 c 0.199219,0 0.785156,0 1.300781,-0.2578125 v 5.15624998 c 0,0.3515625 -0.03516,0.48046875 -0.925781,0.48046875 H 48.688852 V 3.90625e-4 c 0.351562,-0.035156245 1.207031,-0.035156245 1.605468,-0.035156245 0.398438,0 1.265625,0 1.617188,0.035156245 V -0.30429687 h -0.316406 c -0.902344,0 -0.925782,-0.1171875 -0.925782,-0.48046875 z m 0,0"
       style="fill:#000000;fill-opacity:1;fill-rule:nonzero;stroke:none"
       aria-label="NetRadA1"
       transform="matrix(1.3333333,0,0,1.3333333,21.812,99.366667)" />
    <path
       id="path11"
       d="M 151.92238,-42.52022 H 74.85214 c -2.20094,0 -3.98511,-1.78416 -3.98511,-3.98511 V -66.8819 c 0,-2.20094 1.78417,-3.9851 3.98511,-3.9851 h 77.07024 c 2.20094,0 3.98511,1.78416 3.98511,3.9851 v 20.37657 c 0,2.20095 -1.78417,3.98511 -3.98511,3.98511 z"
       style="fill:#fff64d;fill-opacity:1;fill-rule:nonzero;stroke:#000000;stroke-width:0.3985;stroke-linecap:butt;stroke-linejoin:miter;stroke-miterlimit:10;stroke-dasharray:none;stroke-opacity:1"
       transform="matrix(1.3333333,0,0,-1.3333333,56.958667,19.164)" />
    <path
       id="path12"
       d="m 2.3077344,-6.6792969 c -0.082031,-0.1171875 -0.09375,-0.1289062 -0.28125,-0.1289062 H 0.32726563 v 0.3164062 h 0.29296875 c 0.140625,0 0.33984375,0.011719 0.49218752,0.011719 0.234375,0.035156 0.2460937,0.046875 0.2460937,0.234375 v 5.203125 c 0,0.26953123 0,0.73828123 -1.03124997,0.73828123 V 3.90625e-4 C 0.67882813,-0.01132812 1.1592969,-0.03476562 1.4991406,-0.03476562 c 0.328125,0 0.8085938,0.0234375 1.1601563,0.035156245 V -0.30429687 c -1.03125,0 -1.03125,-0.46875 -1.03125,-0.73828123 v -5.1796875 c 0.058594,0.046875 0.070312,0.058594 0.1054687,0.1171875 l 4.0664063,5.97656248 c 0.082031,0.1171875 0.09375,0.128906245 0.1640625,0.128906245 0.140625,0 0.140625,-0.070312495 0.140625,-0.257812495 V -5.7535156 c 0,-0.2695313 0,-0.7382813 1.03125,-0.7382813 v -0.3164062 c -0.3515625,0.011719 -0.84375,0.035156 -1.171875,0.035156 -0.328125,0 -0.8203125,-0.023437 -1.1601563,-0.035156 v 0.3164062 c 1.0195313,0 1.0195313,0.46875 1.0195313,0.7382813 v 4.2539062 z m 6.2783203,4.171875 c 0.058594,-1.4882812 0.9023437,-1.734375 1.2421875,-1.734375 1.0195308,0 1.1249998,1.3476563 1.1249998,1.734375 z m -0.011719,0.2109375 h 2.7890623 c 0.210938,0 0.246094,0 0.246094,-0.2109375 0,-0.984375 -0.539062,-1.9570312 -1.78125,-1.9570312 -1.1601563,0 -2.0742188,1.03125 -2.0742188,2.2734375 0,1.33593748 1.0429688,2.29687498 2.1914063,2.29687498 1.2187505,0 1.6640625,-1.1015625 1.6640625,-1.28906248 0,-0.1054688 -0.08203,-0.1171875 -0.128906,-0.1171875 -0.09375,0 -0.117188,0.058594 -0.128906,0.140625 -0.351563,1.01953123 -1.253907,1.01953123 -1.347657,1.01953123 -0.503906,0 -0.9023435,-0.29296875 -1.1249998,-0.66796875 C 8.5743359,-1.2886719 8.5743359,-1.9449219 8.5743357,-2.2964844 Z m 5.0478523,-1.6875 h 1.429687 v -0.3046875 h -1.429687 v -1.8398437 h -0.246094 c -0.01172,0.8203125 -0.316406,1.8867187 -1.289063,1.921875 v 0.2226562 h 0.84375 v 2.7539063 c 0,1.21874998 0.925782,1.33593748 1.289063,1.33593748 0.703125,0 0.984375,-0.703125 0.984375,-1.33593748 v -0.5742188 h -0.246094 v 0.5507813 c 0,0.73828123 -0.304687,1.11328123 -0.667969,1.11328123 -0.667968,0 -0.667968,-0.90234373 -0.667968,-1.07812503 z m 7.696289,0.46875 v -2.578125 c 0,-0.234375 0,-0.3515625 0.222656,-0.3867187 0.105469,-0.011719 0.386719,-0.011719 0.585937,-0.011719 0.902344,0 2.015625,0.035156 2.015625,1.4765625 0,0.6914063 -0.234375,1.5 -1.710937,1.5 z m 2.109375,0.1289063 c 0.960937,-0.234375 1.746093,-0.84375 1.746093,-1.6289063 0,-0.9492187 -1.136718,-1.7929687 -2.601562,-1.7929687 h -3.128906 v 0.3164062 h 0.234375 c 0.773437,0 0.785156,0.1054688 0.785156,0.46875 v 5.25000003 c 0,0.3515625 -0.01172,0.46875 -0.785156,0.46875 H 19.443477 V 3.90625e-4 c 0.351562,-0.035156245 1.066406,-0.035156245 1.453125,-0.035156245 0.386718,0 1.089843,0 1.453125,0.035156245 V -0.30429687 h -0.234375 c -0.773438,0 -0.796875,-0.1171875 -0.796875,-0.46875 V -3.2925781 h 1.148437 c 0.164063,0 0.574219,0 0.925781,0.3398437 0.386719,0.3515625 0.386719,0.65625 0.386719,1.3242188 0,0.65624998 0,1.05468748 0.398438,1.42968748 0.410156,0.36328125 0.960937,0.421875 1.253906,0.421875 0.785156,0 0.949219,-0.8203125 0.949219,-1.1015625 0,-0.0585938 0,-0.16406248 -0.128907,-0.16406248 -0.105468,0 -0.105468,0.0820312 -0.117187,0.15234373 -0.05859,0.71484375 -0.410156,0.890624995 -0.65625,0.890624995 -0.492188,0 -0.574219,-0.503906245 -0.703125,-1.429687525 l -0.140625,-0.796875 c -0.175781,-0.6445312 -0.65625,-0.9726562 -1.207031,-1.1601562 z m 6.313476,2.62499998 c 0.03516,0.3984375 0.304688,0.8203125 0.773438,0.8203125 0.210937,0 0.820312,-0.140625 0.820312,-0.94921875 V -1.4410156 h -0.246094 v 0.55078123 c 0,0.5859375 -0.246093,0.64453125 -0.363281,0.64453125 -0.328125,0 -0.363281,-0.45703125 -0.363281,-0.50390625 V -2.7417969 c 0,-0.4101562 0,-0.8085937 -0.363281,-1.171875 -0.386719,-0.3867187 -0.878907,-0.5507812 -1.359375,-0.5507812 -0.820313,0 -1.511719,0.46875 -1.511719,1.125 0,0.3046875 0.199219,0.46875 0.457031,0.46875 0.28125,0 0.46875,-0.1992188 0.46875,-0.4570313 0,-0.1171875 -0.05859,-0.4453125 -0.515625,-0.4570312 0.269531,-0.3515625 0.761719,-0.4570313 1.078125,-0.4570313 0.492188,0 1.054688,0.3867188 1.054688,1.2773438 v 0.3632812 c -0.503907,0.035156 -1.207032,0.058594 -1.828125,0.3632813 -0.75,0.3398437 -0.996094,0.8554687 -0.996094,1.28906248 0,0.80859375 0.960937,1.0546875 1.59375,1.0546875 0.65625,0 1.113281,-0.3984375 1.300781,-0.8671875 z m -0.07031,-1.62890628 v 0.9960938 c 0,0.94921873 -0.714844,1.28906248 -1.160157,1.28906248 -0.492187,0 -0.902343,-0.3515625 -0.902343,-0.85546875 0,-0.53906253 0.421875,-1.37109373 2.0625,-1.42968753 z m 5.519531,1.83984378 v 0.65625 L 36.655391,3.90625e-4 V -0.30429687 c -0.703125,0 -0.773438,-0.0703125 -0.773438,-0.5625 V -6.9136719 l -1.441406,0.1054688 v 0.3164062 c 0.703125,0 0.785156,0.070312 0.785156,0.5507813 v 2.15625 c -0.292969,-0.3632813 -0.726562,-0.6210938 -1.265625,-0.6210938 -1.171875,0 -2.214844,0.984375 -2.214844,2.2617188 0,1.26562498 0.972657,2.24999998 2.109375,2.24999998 0.644532,0 1.089844,-0.33984375 1.335938,-0.65625 z m 0,-2.67187498 v 2.0507812 c 0,0.17578128 0,0.19921878 -0.105469,0.36328128 -0.304687,0.48046875 -0.75,0.703125 -1.183594,0.703125 -0.445312,0 -0.796875,-0.2578125 -1.042968,-0.64453125 -0.257813,-0.41015623 -0.292969,-0.97265623 -0.292969,-1.38281253 0,-0.3632812 0.02344,-0.9609375 0.316406,-1.4179687 0.210938,-0.3046875 0.585938,-0.6328125 1.125,-0.6328125 0.351563,0 0.761719,0.1523437 1.078125,0.5976562 0.105469,0.1640625 0.105469,0.1875 0.105469,0.3632813 z m 9.038086,-3.7148438 c -0.04687,-0.1289062 -0.07031,-0.1992187 -0.222656,-0.1992187 -0.164063,0 -0.1875,0.058594 -0.246094,0.1992187 l -2.0625,5.96484378 c -0.175781,0.50390625 -0.574219,0.65625 -1.113281,0.66796875 V 3.90625e-4 c 0.234375,-0.011718745 0.65625,-0.035156245 1.019531,-0.035156245 0.304687,0 0.820312,0.0234375 1.148437,0.035156245 V -0.30429687 c -0.503906,0 -0.75,-0.2578125 -0.75,-0.515625 0,-0.0234375 0.01172,-0.12890625 0.02344,-0.140625 l 0.457031,-1.31250003 h 2.460938 l 0.527343,1.52343753 c 0.01172,0.046875 0.02344,0.10546875 0.02344,0.140625 0,0.3046875 -0.550781,0.3046875 -0.820313,0.3046875 V 3.90625e-4 c 0.351563,-0.035156245 1.054688,-0.035156245 1.429688,-0.035156245 0.433594,0 0.890625,0.01171875 1.300781,0.035156245 V -0.30429687 h -0.175781 c -0.597656,0 -0.738281,-0.0703125 -0.84375,-0.3984375 z m -0.527344,1.125 1.125,3.234375 H 42.58801 Z m 5.305664,5.05078128 1.054688,-1.03124998 c 1.558593,-1.3710938 2.15625,-1.9101563 2.15625,-2.90625 0,-1.1367188 -0.902344,-1.9335938 -2.121094,-1.9335938 -1.125,0 -1.851563,0.9140625 -1.851563,1.8046875 0,0.5507813 0.492188,0.5507813 0.527344,0.5507813 0.164063,0 0.515625,-0.1171875 0.515625,-0.5273438 0,-0.2578125 -0.1875,-0.515625 -0.527344,-0.515625 -0.08203,0 -0.105468,0 -0.128906,0.011719 0.222656,-0.6445313 0.761719,-1.0195313 1.335938,-1.0195313 0.914062,0 1.335937,0.8085938 1.335937,1.6289063 0,0.796875 -0.492187,1.5820312 -1.042969,2.203125 l -1.910156,2.13281248 c -0.105469,0.10546875 -0.105469,0.12890625 -0.105469,0.363281245 h 3.691407 L 52.217893,-1.7339842 H 51.96008 c -0.04687,0.3046875 -0.117187,0.73828128 -0.210937,0.89062503 -0.07031,0.0820313 -0.726563,0.0820313 -0.949219,0.0820313 z m 0,0"
       style="fill:#000000;fill-opacity:1;fill-rule:nonzero;stroke:none"
       aria-label="NetRadA2"
       transform="matrix(1.3333333,0,0,1.3333333,172.99333,99.366667)" />
    <path
       id="path13"
       d="m 265.30965,-14.1734 h -77.07024 c -2.20094,0 -3.98511,-1.78417 -3.98511,-3.98511 V -38.5351 c 0,-2.20094 1.78417,-3.9851 3.98511,-3.9851 h 77.07024 c 2.20094,0 3.9851,1.78416 3.9851,3.9851 v 20.37659 c 0,2.20094 -1.78416,3.98511 -3.9851,3.98511 z"
       style="fill:#fff64d;fill-opacity:1;fill-rule:nonzero;stroke:#000000;stroke-width:0.3985;stroke-linecap:butt;stroke-linejoin:miter;stroke-miterlimit:10;stroke-dasharray:none;stroke-opacity:1"
       transform="matrix(1.3333333,0,0,-1.3333333,56.958667,19.164)" />
    <path
       id="path14"
       d="m 2.3094375,-6.6799531 c -0.082031,-0.1171875 -0.09375,-0.1289063 -0.28125,-0.1289063 H 0.32896875 v 0.3164063 H 0.6219375 c 0.140625,0 0.33984375,0.011719 0.4921875,0.011719 0.234375,0.035156 0.2460938,0.046875 0.2460938,0.234375 v 5.203125 c 0,0.26953127 0,0.73828127 -1.03125005,0.73828127 V -2.65625e-4 C 0.68053125,-0.01198438 1.161,-0.03542188 1.5008438,-0.03542188 c 0.328125,0 0.8085937,0.0234375 1.1601562,0.035156255 V -0.30495313 c -1.03125,0 -1.03125,-0.46875 -1.03125,-0.73828127 v -5.1796875 c 0.058594,0.046875 0.070312,0.058594 0.1054688,0.1171875 l 4.0664062,5.97656252 c 0.082031,0.1171875 0.09375,0.128906255 0.1640625,0.128906255 0.140625,0 0.140625,-0.070312505 0.140625,-0.257812505 V -5.7541719 c 0,-0.2695312 0,-0.7382812 1.03125,-0.7382812 v -0.3164063 c -0.3515625,0.011719 -0.84375,0.035156 -1.171875,0.035156 -0.328125,0 -0.8203125,-0.023437 -1.1601562,-0.035156 v 0.3164063 c 1.0195312,0 1.0195312,0.46875 1.0195312,0.7382812 v 4.2539063 z m 6.2753906,4.171875 c 0.058594,-1.4882813 0.9023438,-1.734375 1.2421875,-1.734375 1.0195314,0 1.1250004,1.3476562 1.1250004,1.734375 z m -0.011719,0.2109375 h 2.7890629 c 0.210937,0 0.246094,0 0.246094,-0.2109375 0,-0.984375 -0.539063,-1.9570313 -1.7812507,-1.9570313 -1.1601562,0 -2.0742187,1.03125 -2.0742187,2.2734375 0,1.33593752 1.0429687,2.29687502 2.1914062,2.29687502 1.2187502,0 1.6640632,-1.1015625 1.6640632,-1.28906252 0,-0.1054687 -0.08203,-0.1171875 -0.128907,-0.1171875 -0.09375,0 -0.117187,0.058594 -0.128906,0.140625 -0.351562,1.01953127 -1.253906,1.01953127 -1.347656,1.01953127 -0.5039067,0 -0.9023442,-0.29296875 -1.1250004,-0.66796875 C 8.5731094,-1.2893281 8.5731094,-1.9455781 8.5731091,-2.2971406 Z m 5.0478519,-1.6875 h 1.429687 v -0.3046875 h -1.429687 v -1.8398438 h -0.246094 c -0.01172,0.8203125 -0.316406,1.8867188 -1.289062,1.921875 v 0.2226563 h 0.84375 v 2.7539062 c 0,1.21875002 0.925781,1.33593752 1.289062,1.33593752 0.703125,0 0.984375,-0.703125 0.984375,-1.33593752 v -0.5742187 h -0.246094 v 0.5507812 c 0,0.73828127 -0.304687,1.11328127 -0.667968,1.11328127 -0.667969,0 -0.667969,-0.90234377 -0.667969,-1.07812497 z m 7.696289,0.46875 v -2.578125 c 0,-0.234375 0,-0.3515625 0.222656,-0.3867188 0.105469,-0.011719 0.386719,-0.011719 0.585938,-0.011719 0.902344,0 2.015625,0.035156 2.015625,1.4765625 0,0.6914062 -0.234375,1.5 -1.710938,1.5 z m 2.109375,0.1289062 c 0.960938,-0.234375 1.746094,-0.84375 1.746094,-1.6289062 0,-0.9492188 -1.136719,-1.7929688 -2.601563,-1.7929688 H 19.44225 v 0.3164063 h 0.234375 c 0.773438,0 0.785156,0.1054687 0.785156,0.46875 v 5.24999997 c 0,0.3515625 -0.01172,0.46875 -0.785156,0.46875 H 19.44225 v 0.304687505 c 0.351563,-0.035156255 1.066406,-0.035156255 1.453125,-0.035156255 0.386719,0 1.089844,0 1.453125,0.035156255 V -0.30495313 h -0.234375 c -0.773437,0 -0.796875,-0.1171875 -0.796875,-0.46875 V -3.2932344 h 1.148438 c 0.164062,0 0.574218,0 0.925781,0.3398438 0.386719,0.3515625 0.386719,0.65625 0.386719,1.3242187 0,0.65625002 0,1.05468752 0.398437,1.42968752 0.410156,0.36328125 0.960938,0.421875 1.253906,0.421875 0.785157,0 0.949219,-0.8203125 0.949219,-1.1015625 0,-0.0585938 0,-0.16406252 -0.128906,-0.16406252 -0.105469,0 -0.105469,0.0820313 -0.117188,0.15234377 -0.05859,0.71484375 -0.410156,0.890625005 -0.65625,0.890625005 -0.492187,0 -0.574218,-0.503906255 -0.703125,-1.429687475 l -0.140625,-0.796875 c -0.175781,-0.6445313 -0.65625,-0.9726563 -1.207031,-1.1601563 z m 6.313477,2.62500002 c 0.03516,0.3984375 0.304687,0.8203125 0.773437,0.8203125 0.210938,0 0.820313,-0.140625 0.820313,-0.94921875 V -1.4416719 h -0.246094 v 0.55078127 c 0,0.5859375 -0.246094,0.64453125 -0.363281,0.64453125 -0.328125,0 -0.363282,-0.45703125 -0.363282,-0.50390625 V -2.7424531 c 0,-0.4101563 0,-0.8085938 -0.363281,-1.171875 -0.386719,-0.3867188 -0.878906,-0.5507813 -1.359375,-0.5507813 -0.820312,0 -1.511719,0.46875 -1.511719,1.125 0,0.3046875 0.199219,0.46875 0.457032,0.46875 0.28125,0 0.46875,-0.1992187 0.46875,-0.4570312 0,-0.1171875 -0.05859,-0.4453125 -0.515625,-0.4570313 0.269531,-0.3515625 0.761718,-0.4570312 1.078125,-0.4570312 0.492187,0 1.054687,0.3867187 1.054687,1.2773437 v 0.3632813 c -0.503906,0.035156 -1.207031,0.058594 -1.828125,0.3632812 -0.75,0.3398438 -0.996094,0.8554688 -0.996094,1.28906252 0,0.80859375 0.960938,1.0546875 1.59375,1.0546875 0.65625,0 1.113282,-0.3984375 1.300782,-0.8671875 z m -0.07031,-1.62890622 v 0.9960937 c 0,0.94921877 -0.714844,1.28906252 -1.160156,1.28906252 -0.492188,0 -0.902344,-0.3515625 -0.902344,-0.85546875 0,-0.53906247 0.421875,-1.37109377 2.0625,-1.42968747 z m 5.522461,1.83984372 v 0.65625 L 36.657094,-2.65625e-4 V -0.30495313 c -0.703125,0 -0.773438,-0.0703125 -0.773438,-0.5625 V -6.9143281 l -1.441406,0.1054687 v 0.3164063 c 0.703125,0 0.785156,0.070312 0.785156,0.5507812 v 2.15625 c -0.292968,-0.3632812 -0.726562,-0.6210937 -1.265625,-0.6210937 -1.171875,0 -2.214843,0.984375 -2.214843,2.2617187 0,1.26562502 0.972656,2.25000002 2.109375,2.25000002 0.644531,0 1.089843,-0.33984375 1.335937,-0.65625 z m 0,-2.67187502 v 2.0507813 c 0,0.17578122 0,0.19921872 -0.105469,0.36328122 -0.304687,0.48046875 -0.75,0.703125 -1.183593,0.703125 -0.445313,0 -0.796875,-0.2578125 -1.042969,-0.64453125 C 32.602406,-1.1604219 32.56725,-1.7229219 32.56725,-2.1330781 c 0,-0.3632813 0.02344,-0.9609375 0.316406,-1.4179688 0.210938,-0.3046875 0.585938,-0.6328125 1.125,-0.6328125 0.351563,0 0.761719,0.1523438 1.078125,0.5976563 0.105469,0.1640625 0.105469,0.1875 0.105469,0.3632812 z m 7.291992,-0.421875 v -2.4492187 c 0,-0.328125 0.01172,-0.3984375 0.480469,-0.3984375 h 1.242187 c 0.960938,0 1.3125,0.84375 1.3125,1.3710937 0,0.6328125 -0.492187,1.4765625 -1.59375,1.4765625 z m 2.34375,0.09375 c 0.972656,-0.1992187 1.652344,-0.8320312 1.652344,-1.5703125 0,-0.8671875 -0.914063,-1.6875 -2.203125,-1.6875 H 40.63268 v 0.3164063 h 0.234375 c 0.761718,0 0.785156,0.1054687 0.785156,0.46875 v 5.24999997 c 0,0.3515625 -0.02344,0.46875 -0.785156,0.46875 H 40.63268 v 0.304687505 h 3.902343 c 1.324219,0 2.214844,-0.890625005 2.214844,-1.828124975 0,-0.8671875 -0.808594,-1.6054688 -1.921875,-1.7226563 z m -0.609375,3.24609377 h -1.253906 c -0.46875,0 -0.480469,-0.0703125 -0.480469,-0.3984375 V -3.4221406 h 1.875 c 0.984375,0 1.394531,0.9257812 1.394531,1.59375 0,0.703125 -0.515625,1.52343747 -1.535156,1.52343747 z m 6.035156,-6.07031247 c 0,-0.234375 0,-0.2578125 -0.234375,-0.2578125 -0.609375,0.6328125 -1.488281,0.6328125 -1.804687,0.6328125 v 0.3164062 c 0.199219,0 0.785156,0 1.300781,-0.2578125 v 5.15625002 c 0,0.3515625 -0.03516,0.48046875 -0.925781,0.48046875 h -0.316406 v 0.304687505 c 0.351562,-0.035156255 1.207031,-0.035156255 1.605468,-0.035156255 0.398438,0 1.265625,0 1.617188,0.035156255 V -0.30495313 h -0.316406 c -0.902344,0 -0.925782,-0.1171875 -0.925782,-0.48046875 z m 0,0"
       style="fill:#000000;fill-opacity:1;fill-rule:nonzero;stroke:none"
       aria-label="NetRadB1"
       transform="matrix(1.3333333,0,0,1.3333333,324.452,61.570667)" />
    <path
       id="path15"
       d="M 378.69691,-14.1734 H 301.6267 c -2.20095,0 -3.98511,-1.78417 -3.98511,-3.98511 V -38.5351 c 0,-2.20094 1.78416,-3.9851 3.98511,-3.9851 h 77.07021 c 2.20095,0 3.98511,1.78416 3.98511,3.9851 v 20.37659 c 0,2.20094 -1.78416,3.98511 -3.98511,3.98511 z"
       style="fill:#fff64d;fill-opacity:1;fill-rule:nonzero;stroke:#000000;stroke-width:0.3985;stroke-linecap:butt;stroke-linejoin:miter;stroke-miterlimit:10;stroke-dasharray:none;stroke-opacity:1"
       transform="matrix(1.3333333,0,0,-1.3333333,56.958667,19.164)" />
    <path
       id="path16"
       d="m 2.3092031,-6.6799531 c -0.082031,-0.1171875 -0.09375,-0.1289063 -0.28125,-0.1289063 H 0.32873438 v 0.3164063 h 0.29296875 c 0.140625,0 0.33984375,0.011719 0.49218747,0.011719 0.234375,0.035156 0.2460938,0.046875 0.2460938,0.234375 v 5.203125 c 0,0.26953127 0,0.73828127 -1.03125002,0.73828127 V -2.65625e-4 C 0.68029688,-0.01198438 1.1607656,-0.03542188 1.5006094,-0.03542188 c 0.328125,0 0.8085937,0.0234375 1.1601562,0.035156255 V -0.30495313 c -1.03125,0 -1.03125,-0.46875 -1.03125,-0.73828127 v -5.1796875 c 0.058594,0.046875 0.070312,0.058594 0.1054688,0.1171875 l 4.0664062,5.97656252 c 0.082031,0.1171875 0.09375,0.128906255 0.1640625,0.128906255 0.140625,0 0.140625,-0.070312505 0.140625,-0.257812505 V -5.7541719 c 0,-0.2695312 0,-0.7382812 1.03125,-0.7382812 v -0.3164063 c -0.3515625,0.011719 -0.84375,0.035156 -1.171875,0.035156 -0.328125,0 -0.8203125,-0.023437 -1.1601562,-0.035156 v 0.3164063 c 1.0195312,0 1.0195312,0.46875 1.0195312,0.7382812 v 4.2539063 z m 6.2753907,4.171875 c 0.058594,-1.4882813 0.9023437,-1.734375 1.2421875,-1.734375 1.0195317,0 1.1249997,1.3476562 1.1249997,1.734375 z m -0.011719,0.2109375 h 2.7890632 c 0.210937,0 0.246093,0 0.246093,-0.2109375 0,-0.984375 -0.539062,-1.9570313 -1.7812499,-1.9570313 -1.1601563,0 -2.0742188,1.03125 -2.0742188,2.2734375 0,1.33593752 1.0429688,2.29687502 2.1914063,2.29687502 1.2187504,0 1.6640624,-1.1015625 1.6640624,-1.28906252 0,-0.1054687 -0.08203,-0.1171875 -0.128906,-0.1171875 -0.09375,0 -0.117187,0.058594 -0.128906,0.140625 -0.351563,1.01953127 -1.253906,1.01953127 -1.347656,1.01953127 -0.5039069,0 -0.9023444,-0.29296875 -1.1250007,-0.66796875 C 8.572875,-1.2893281 8.572875,-1.9455781 8.5728748,-2.2971406 Z m 5.0478522,-1.6875 h 1.429687 v -0.3046875 h -1.429687 v -1.8398438 h -0.246094 c -0.01172,0.8203125 -0.316406,1.8867188 -1.289063,1.921875 v 0.2226563 h 0.84375 v 2.7539062 c 0,1.21875002 0.925782,1.33593752 1.289063,1.33593752 0.703125,0 0.984375,-0.703125 0.984375,-1.33593752 v -0.5742187 h -0.246094 v 0.5507812 c 0,0.73828127 -0.304687,1.11328127 -0.667969,1.11328127 -0.667968,0 -0.667968,-0.90234377 -0.667968,-1.07812497 z m 7.696289,0.46875 v -2.578125 c 0,-0.234375 0,-0.3515625 0.222656,-0.3867188 0.105469,-0.011719 0.386719,-0.011719 0.585937,-0.011719 0.902344,0 2.015625,0.035156 2.015625,1.4765625 0,0.6914062 -0.234375,1.5 -1.710937,1.5 z m 2.109375,0.1289062 c 0.960937,-0.234375 1.746093,-0.84375 1.746093,-1.6289062 0,-0.9492188 -1.136718,-1.7929688 -2.601562,-1.7929688 h -3.128906 v 0.3164063 h 0.234375 c 0.773437,0 0.785156,0.1054687 0.785156,0.46875 v 5.24999997 c 0,0.3515625 -0.01172,0.46875 -0.785156,0.46875 h -0.234375 v 0.304687505 c 0.351562,-0.035156255 1.066406,-0.035156255 1.453125,-0.035156255 0.386718,0 1.089843,0 1.453125,0.035156255 V -0.30495313 h -0.234375 c -0.773438,0 -0.796875,-0.1171875 -0.796875,-0.46875 V -3.2932344 h 1.148437 c 0.164063,0 0.574219,0 0.925781,0.3398438 0.386719,0.3515625 0.386719,0.65625 0.386719,1.3242187 0,0.65625002 0,1.05468752 0.398438,1.42968752 0.410156,0.36328125 0.960937,0.421875 1.253906,0.421875 0.785156,0 0.949219,-0.8203125 0.949219,-1.1015625 0,-0.0585938 0,-0.16406252 -0.128907,-0.16406252 -0.105468,0 -0.105468,0.0820313 -0.117187,0.15234377 -0.05859,0.71484375 -0.410156,0.890625005 -0.65625,0.890625005 -0.492188,0 -0.574219,-0.503906255 -0.703125,-1.429687475 l -0.140625,-0.796875 c -0.175781,-0.6445313 -0.65625,-0.9726563 -1.207031,-1.1601563 z m 6.313476,2.62500002 c 0.03516,0.3984375 0.304688,0.8203125 0.773438,0.8203125 0.210937,0 0.820312,-0.140625 0.820312,-0.94921875 V -1.4416719 h -0.246094 v 0.55078127 c 0,0.5859375 -0.246093,0.64453125 -0.363281,0.64453125 -0.328125,0 -0.363281,-0.45703125 -0.363281,-0.50390625 V -2.7424531 c 0,-0.4101563 0,-0.8085938 -0.363281,-1.171875 -0.386719,-0.3867188 -0.878907,-0.5507813 -1.359375,-0.5507813 -0.820313,0 -1.511719,0.46875 -1.511719,1.125 0,0.3046875 0.199219,0.46875 0.457031,0.46875 0.28125,0 0.46875,-0.1992187 0.46875,-0.4570312 0,-0.1171875 -0.05859,-0.4453125 -0.515625,-0.4570313 0.269531,-0.3515625 0.761719,-0.4570312 1.078125,-0.4570312 0.492188,0 1.054688,0.3867187 1.054688,1.2773437 v 0.3632813 c -0.503907,0.035156 -1.207032,0.058594 -1.828125,0.3632812 -0.75,0.3398438 -0.996094,0.8554688 -0.996094,1.28906252 0,0.80859375 0.960937,1.0546875 1.59375,1.0546875 0.65625,0 1.113281,-0.3984375 1.300781,-0.8671875 z m -0.07031,-1.62890622 v 0.9960937 c 0,0.94921877 -0.714844,1.28906252 -1.160157,1.28906252 -0.492187,0 -0.902343,-0.3515625 -0.902343,-0.85546875 0,-0.53906247 0.421875,-1.37109377 2.0625,-1.42968747 z m 5.522461,1.83984372 v 0.65625 L 36.656859,-2.65625e-4 V -0.30495313 c -0.703125,0 -0.773437,-0.0703125 -0.773437,-0.5625 V -6.9143281 l -1.441406,0.1054687 v 0.3164063 c 0.703125,0 0.785156,0.070312 0.785156,0.5507812 v 2.15625 c -0.292969,-0.3632812 -0.726563,-0.6210937 -1.265625,-0.6210937 -1.171875,0 -2.214844,0.984375 -2.214844,2.2617187 0,1.26562502 0.972656,2.25000002 2.109375,2.25000002 0.644531,0 1.089844,-0.33984375 1.335938,-0.65625 z m 0,-2.67187502 v 2.0507813 c 0,0.17578122 0,0.19921872 -0.105469,0.36328122 -0.304688,0.48046875 -0.75,0.703125 -1.183594,0.703125 -0.445312,0 -0.796875,-0.2578125 -1.042969,-0.64453125 -0.257812,-0.41015627 -0.292968,-0.97265627 -0.292968,-1.38281247 0,-0.3632813 0.02344,-0.9609375 0.316406,-1.4179688 0.210937,-0.3046875 0.585937,-0.6328125 1.125,-0.6328125 0.351562,0 0.761719,0.1523438 1.078125,0.5976563 0.105469,0.1640625 0.105469,0.1875 0.105469,0.3632812 z m 7.291992,-0.421875 v -2.4492187 c 0,-0.328125 0.01172,-0.3984375 0.480469,-0.3984375 h 1.242187 c 0.960938,0 1.3125,0.84375 1.3125,1.3710937 0,0.6328125 -0.492187,1.4765625 -1.59375,1.4765625 z m 2.34375,0.09375 c 0.972656,-0.1992187 1.652344,-0.8320312 1.652344,-1.5703125 0,-0.8671875 -0.914063,-1.6875 -2.203125,-1.6875 h -3.644532 v 0.3164063 h 0.234375 c 0.761719,0 0.785157,0.1054687 0.785157,0.46875 v 5.24999997 c 0,0.3515625 -0.02344,0.46875 -0.785157,0.46875 h -0.234375 v 0.304687505 h 3.902344 c 1.324219,0 2.214844,-0.890625005 2.214844,-1.828124975 0,-0.8671875 -0.808594,-1.6054688 -1.921875,-1.7226563 z m -0.609375,3.24609377 h -1.253906 c -0.46875,0 -0.480469,-0.0703125 -0.480469,-0.3984375 V -3.4221406 h 1.875 c 0.984375,0 1.394531,0.9257812 1.394531,1.59375 0,0.703125 -0.515625,1.52343747 -1.535156,1.52343747 z m 4.374023,-0.45703125 1.054688,-1.03125002 c 1.558594,-1.3710937 2.15625,-1.9101562 2.15625,-2.90625 0,-1.1367187 -0.902344,-1.9335937 -2.121094,-1.9335937 -1.125,0 -1.851562,0.9140625 -1.851562,1.8046875 0,0.5507812 0.492187,0.5507812 0.527343,0.5507812 0.164063,0 0.515625,-0.1171875 0.515625,-0.5273437 0,-0.2578125 -0.1875,-0.515625 -0.527343,-0.515625 -0.08203,0 -0.105469,0 -0.128907,0.011719 0.222657,-0.6445312 0.761719,-1.0195312 1.335938,-1.0195312 0.914062,0 1.335937,0.8085937 1.335937,1.6289062 0,0.796875 -0.492187,1.5820313 -1.042968,2.203125 l -1.910157,2.13281252 C 47.83069,-0.25807783 47.83069,-0.23464033 47.83069,-2.65325e-4 h 3.691406 l 0.28125,-1.734374975 h -0.257813 c -0.04687,0.3046875 -0.117187,0.73828122 -0.210937,0.89062497 -0.07031,0.0820313 -0.726563,0.0820313 -0.949219,0.0820313 z m 0,0"
       style="fill:#000000;fill-opacity:1;fill-rule:nonzero;stroke:none"
       aria-label="NetRadB2"
       transform="matrix(1.3333333,0,0,1.3333333,475.632,61.570667)" />
  </g>
</svg>
