<?xml version="1.0" encoding="UTF-8" standalone="no"?>
<!-- Created with Inkscape (http://www.inkscape.org/) -->

<svg
   version="1.1"
   id="svg1"
   width="406.13333"
   height="83.108002"
   viewBox="0 0 406.13333 83.108002"
   xmlns="http://www.w3.org/2000/svg"
   xmlns:svg="http://www.w3.org/2000/svg">
  <defs
     id="defs1" />
  <g
     id="g1">
    <path
       id="path1"
       d="M 0,0 H 283.4681"
       style="fill:none;stroke:#000000;stroke-width:0.79701;stroke-linecap:butt;stroke-linejoin:miter;stroke-miterlimit:10;stroke-dasharray:none;stroke-opacity:1"
       transform="matrix(1.3333333,0,0,-1.3333333,11.202667,49.486667)" />
    <path
       id="path2"
       d="m 3.3270859,-3.0126719 c 0.058594,-0.2578125 0.2929688,-1.171875 0.984375,-1.171875 0.046875,0 0.2929688,0 0.5039063,0.1289063 -0.28125,0.046875 -0.4804688,0.3046875 -0.4804688,0.5390625 0,0.1640625 0.1054688,0.3515625 0.375,0.3515625 0.2226563,0 0.5390625,-0.1875 0.5390625,-0.5859375 0,-0.515625 -0.5859375,-0.65625 -0.9257812,-0.65625 -0.5742188,0 -0.9257813,0.5273437 -1.0429688,0.7617187 -0.2578125,-0.65625 -0.7851562,-0.7617187 -1.078125,-0.7617187 -1.0429687,0 -1.60546871,1.2890625 -1.60546871,1.5351562 0,0.1054688 0.10546875,0.1054688 0.1171875,0.1054688 0.0820313,0 0.1171875,-0.023437 0.12890625,-0.1171875 0.33984376,-1.0546875 0.99609376,-1.3007813 1.33593746,-1.3007813 0.1875,0 0.5390625,0.09375 0.5390625,0.6679688 0,0.3046875 -0.1640625,0.9726562 -0.5390625,2.3671875 -0.1523437,0.62109373 -0.5039062,1.04296873 -0.9492187,1.04296873 -0.058594,0 -0.28125001,0 -0.49218751,-0.12890625 0.24609375,-0.0585937 0.46875001,-0.26953125 0.46875001,-0.5390625 0,-0.26953128 -0.22265626,-0.35156248 -0.37500001,-0.35156248 -0.29296875,0 -0.5390625,0.25781248 -0.5390625,0.57421873 0,0.45703125 0.4921875,0.65625 0.93750001,0.65625 0.65625,0 1.0078125,-0.69140625 1.0429687,-0.75 0.1171875,0.36328125 0.4804688,0.75 1.078125,0.75 1.0195313,0 1.59375,-1.27734373 1.59375,-1.53515623 0,-0.09375 -0.09375,-0.09375 -0.1289062,-0.09375 -0.082031,0 -0.1054688,0.035156 -0.1289063,0.1054687 -0.328125,1.06640628 -0.9960937,1.31250003 -1.3242187,1.31250003 -0.3867188,0 -0.5390625,-0.328125 -0.5390625,-0.65625 0,-0.22265625 0.058594,-0.44531253 0.1640625,-0.87890623 z m 0,0"
       style="fill:#000000;fill-opacity:1;fill-rule:nonzero;stroke:none"
       aria-label="x"
       transform="matrix(1.3333333,0,0,1.3333333,394.11467,60.165333)" />
    <path
       id="path3"
       d="m 30.8375,0 c 0,1.37558 -1.11512,2.49069 -2.4907,2.49069 -1.37558,0 -2.49069,-1.11511 -2.49069,-2.49069 0,-1.37558 1.11511,-2.49069 2.49069,-2.49069 1.37558,0 2.4907,1.11511 2.4907,2.49069 z"
       style="fill:#bfbfbf;fill-opacity:1;fill-rule:nonzero;stroke:none"
       transform="matrix(1.3333333,0,0,-1.3333333,11.202667,49.486667)" />
    <path
       id="path4"
       d="m 87.53111,0 c 0,1.37558 -1.11511,2.49069 -2.49069,2.49069 -1.37558,0 -2.49069,-1.11511 -2.49069,-2.49069 0,-1.37558 1.11511,-2.49069 2.49069,-2.49069 1.37558,0 2.49069,1.11511 2.49069,2.49069 z"
       style="fill:#bfbfbf;fill-opacity:1;fill-rule:nonzero;stroke:none"
       transform="matrix(1.3333333,0,0,-1.3333333,11.202667,49.486667)" />
    <path
       id="path5"
       d="m 144.22473,0 c 0,1.37558 -1.11511,2.49069 -2.49069,2.49069 -1.37558,0 -2.49069,-1.11511 -2.49069,-2.49069 0,-1.37558 1.11511,-2.49069 2.49069,-2.49069 1.37558,0 2.49069,1.11511 2.49069,2.49069 z"
       style="fill:#bfbfbf;fill-opacity:1;fill-rule:nonzero;stroke:none"
       transform="matrix(1.3333333,0,0,-1.3333333,11.202667,49.486667)" />
    <path
       id="path6"
       d="m 200.91835,0 c 0,1.37558 -1.11511,2.49069 -2.49069,2.49069 -1.37558,0 -2.49069,-1.11511 -2.49069,-2.49069 0,-1.37558 1.11511,-2.49069 2.49069,-2.49069 1.37558,0 2.49069,1.11511 2.49069,2.49069 z"
       style="fill:#bfbfbf;fill-opacity:1;fill-rule:nonzero;stroke:none"
       transform="matrix(1.3333333,0,0,-1.3333333,11.202667,49.486667)" />
    <path
       id="path7"
       d="m 257.61197,0 c 0,1.37558 -1.11511,2.49069 -2.49069,2.49069 -1.37558,0 -2.4907,-1.11511 -2.4907,-2.49069 0,-1.37558 1.11512,-2.49069 2.4907,-2.49069 1.37558,0 2.49069,1.11511 2.49069,2.49069 z"
       style="fill:#bfbfbf;fill-opacity:1;fill-rule:nonzero;stroke:none"
       transform="matrix(1.3333333,0,0,-1.3333333,11.202667,49.486667)" />
    <path
       id="path8"
       d="M 0,-9.96277 V 9.96277"
       style="fill:none;stroke:#000000;stroke-width:0.3985;stroke-linecap:butt;stroke-linejoin:miter;stroke-miterlimit:10;stroke-dasharray:none;stroke-opacity:1"
       transform="matrix(1.3333333,0,0,-1.3333333,11.202667,49.486667)" />
    <path
       id="path9"
       d="M 56.69362,-9.96277 V 9.96277"
       style="fill:none;stroke:#000000;stroke-width:0.3985;stroke-linecap:butt;stroke-linejoin:miter;stroke-miterlimit:10;stroke-dasharray:none;stroke-opacity:1"
       transform="matrix(1.3333333,0,0,-1.3333333,11.202667,49.486667)" />
    <path
       id="path10"
       d="M 113.38724,-9.96277 V 9.96277"
       style="fill:none;stroke:#000000;stroke-width:0.3985;stroke-linecap:butt;stroke-linejoin:miter;stroke-miterlimit:10;stroke-dasharray:none;stroke-opacity:1"
       transform="matrix(1.3333333,0,0,-1.3333333,11.202667,49.486667)" />
    <path
       id="path11"
       d="M 170.08086,-9.96277 V 9.96277"
       style="fill:none;stroke:#000000;stroke-width:0.3985;stroke-linecap:butt;stroke-linejoin:miter;stroke-miterlimit:10;stroke-dasharray:none;stroke-opacity:1"
       transform="matrix(1.3333333,0,0,-1.3333333,11.202667,49.486667)" />
    <path
       id="path12"
       d="M 226.77448,-9.96277 V 9.96277"
       style="fill:none;stroke:#000000;stroke-width:0.3985;stroke-linecap:butt;stroke-linejoin:miter;stroke-miterlimit:10;stroke-dasharray:none;stroke-opacity:1"
       transform="matrix(1.3333333,0,0,-1.3333333,11.202667,49.486667)" />
    <path
       id="path13"
       d="M 283.4681,-9.96277 V 9.96277"
       style="fill:none;stroke:#000000;stroke-width:0.3985;stroke-linecap:butt;stroke-linejoin:miter;stroke-miterlimit:10;stroke-dasharray:none;stroke-opacity:1"
       transform="matrix(1.3333333,0,0,-1.3333333,11.202667,49.486667)" />
    <g
       id="g13"
       aria-label="x&#10;0"
       transform="matrix(1.3333333,0,0,1.3333333,4.4266667,73.182667)">
      <path
         id="path14"
         d="m 3.3274609,-3.0110234 c 0.058594,-0.2578125 0.2929688,-1.171875 0.984375,-1.171875 0.046875,0 0.2929688,0 0.5039063,0.1289062 -0.28125,0.046875 -0.4804688,0.3046875 -0.4804688,0.5390625 0,0.1640625 0.1054688,0.3515625 0.375,0.3515625 0.2226563,0 0.5390625,-0.1875 0.5390625,-0.5859375 0,-0.515625 -0.5859375,-0.65625 -0.9257812,-0.65625 -0.5742188,0 -0.9257813,0.5273438 -1.0429688,0.7617188 -0.2578125,-0.65625 -0.7851562,-0.7617188 -1.078125,-0.7617188 -1.0429687,0 -1.60546871,1.2890625 -1.60546871,1.5351563 0,0.1054687 0.10546875,0.1054687 0.1171875,0.1054687 0.0820313,0 0.1171875,-0.023437 0.12890625,-0.1171875 0.33984376,-1.0546875 0.99609376,-1.3007812 1.33593746,-1.3007812 0.1875,0 0.5390625,0.09375 0.5390625,0.6679687 0,0.3046875 -0.1640625,0.9726563 -0.5390625,2.3671875 -0.1523437,0.62109376 -0.5039062,1.04296876 -0.9492187,1.04296876 -0.058594,0 -0.28125001,0 -0.49218751,-0.12890625 0.24609375,-0.0585938 0.46875001,-0.26953125 0.46875001,-0.5390625 0,-0.26953121 -0.22265626,-0.35156251 -0.37500001,-0.35156251 -0.29296875,0 -0.5390625,0.25781251 -0.5390625,0.57421876 0,0.45703125 0.4921875,0.65625 0.93750001,0.65625 0.65625,0 1.0078125,-0.69140625 1.0429687,-0.75 0.1171875,0.36328125 0.4804688,0.75 1.078125,0.75 1.0195313,0 1.59375,-1.27734376 1.59375,-1.53515626 0,-0.09375 -0.09375,-0.09375 -0.1289062,-0.09375 -0.082031,0 -0.1054688,0.035156 -0.1289063,0.1054688 -0.328125,1.06640621 -0.9960937,1.31249996 -1.3242187,1.31249996 -0.3867188,0 -0.5390625,-0.328125 -0.5390625,-0.65625 0,-0.22265625 0.058594,-0.44531246 0.1640625,-0.87890626 z m 0,0"
         style="fill:#000000;fill-opacity:1;fill-rule:nonzero;stroke:none" />
      <path
         id="path15"
         d="m 9.2923047,-0.73172656 c 0,-0.76171874 -0.09375,-1.31250004 -0.4101563,-1.80468754 -0.2226562,-0.3164062 -0.6445312,-0.5976562 -1.2070312,-0.5976562 -1.6171875,0 -1.6171875,1.8984375 -1.6171875,2.40234374 0,0.50390625 0,2.36718746 1.6171875,2.36718746 1.6171875,0 1.6171875,-1.86328121 1.6171875,-2.36718746 z M 7.6751172,1.4362422 c -0.3164063,0 -0.75,-0.1875 -0.890625,-0.76171876 -0.09375,-0.41015625 -0.09375,-0.984375 -0.09375,-1.5 0,-0.50390624 0,-1.03125004 0.1054687,-1.41796874 0.1523438,-0.5507813 0.5976563,-0.6914063 0.8789063,-0.6914063 0.375,0 0.7382812,0.2226563 0.8671875,0.6328125 0.1054687,0.375 0.1171875,0.8789063 0.1171875,1.47656254 0,0.515625 0,1.04296875 -0.09375,1.4765625 C 8.4251172,1.2838984 7.9563672,1.4362422 7.6751172,1.4362422 Z m 0,0"
         style="fill:#000000;fill-opacity:1;fill-rule:nonzero;stroke:none" />
    </g>
    <g
       id="g15"
       aria-label="x&#10;N"
       transform="matrix(1.3333333,0,0,1.3333333,380.32133,73.182667)">
      <path
         id="path16"
         d="m 3.3273594,-3.0110234 c 0.058594,-0.2578125 0.2929687,-1.171875 0.984375,-1.171875 0.046875,0 0.2929687,0 0.5039062,0.1289062 -0.28125,0.046875 -0.4804687,0.3046875 -0.4804687,0.5390625 0,0.1640625 0.1054687,0.3515625 0.375,0.3515625 0.2226562,0 0.5390625,-0.1875 0.5390625,-0.5859375 0,-0.515625 -0.5859375,-0.65625 -0.9257813,-0.65625 -0.5742187,0 -0.9257812,0.5273438 -1.0429687,0.7617188 -0.2578125,-0.65625 -0.7851563,-0.7617188 -1.078125,-0.7617188 -1.0429688,0 -1.60546877,1.2890625 -1.60546877,1.5351563 0,0.1054687 0.10546875,0.1054687 0.1171875,0.1054687 0.0820313,0 0.1171875,-0.023437 0.12890625,-0.1171875 0.33984372,-1.0546875 0.99609372,-1.3007812 1.33593752,-1.3007812 0.1875,0 0.5390625,0.09375 0.5390625,0.6679687 0,0.3046875 -0.1640625,0.9726563 -0.5390625,2.3671875 -0.1523438,0.62109376 -0.5039063,1.04296876 -0.9492188,1.04296876 -0.058594,0 -0.28124997,0 -0.49218747,-0.12890625 0.24609375,-0.0585938 0.46874997,-0.26953125 0.46874997,-0.5390625 0,-0.26953121 -0.22265622,-0.35156251 -0.37499997,-0.35156251 -0.29296875,0 -0.5390625,0.25781251 -0.5390625,0.57421876 0,0.45703125 0.4921875,0.65625 0.93749997,0.65625 0.65625,0 1.0078125,-0.69140625 1.0429688,-0.75 0.1171875,0.36328125 0.4804687,0.75 1.078125,0.75 1.0195312,0 1.59375,-1.27734376 1.59375,-1.53515626 0,-0.09375 -0.09375,-0.09375 -0.1289063,-0.09375 -0.082031,0 -0.1054687,0.035156 -0.1289062,0.1054688 -0.328125,1.06640621 -0.9960938,1.31249996 -1.3242188,1.31249996 -0.3867187,0 -0.5390625,-0.328125 -0.5390625,-0.65625 0,-0.22265625 0.058594,-0.44531246 0.1640625,-0.87890626 z m 0,0"
         style="fill:#000000;fill-opacity:1;fill-rule:nonzero;stroke:none" />
      <path
         id="path17"
         d="m 11.507047,-2.5129766 c 0.07031,-0.2578125 0.1875,-0.4921875 0.738281,-0.5039062 0.03516,0 0.140625,-0.011719 0.140625,-0.1523438 0,-0.046875 -0.03516,-0.09375 -0.105469,-0.09375 -0.222656,0 -0.480468,0.023437 -0.726562,0.023437 -0.164063,0 -0.5625,-0.023437 -0.738281,-0.023437 -0.03516,0 -0.140625,0 -0.140625,0.1523438 0,0.082031 0.09375,0.09375 0.164062,0.09375 0.316406,0.011719 0.445313,0.1171875 0.445313,0.28125 0,0.058594 -0.01172,0.09375 -0.03516,0.1757812 L 10.487516,0.47530469 8.7179844,-3.1457891 C 8.6593906,-3.2629766 8.6476719,-3.2629766 8.4836094,-3.2629766 H 7.5226719 c -0.1289063,0 -0.2226563,0 -0.2226563,0.1523438 0,0.09375 0.09375,0.09375 0.234375,0.09375 0.1523438,0 0.3046875,0.011719 0.4453125,0.035156 l -0.9375,3.72656254 C 6.9836094,1.0143672 6.8664219,1.2253047 6.3273594,1.2487422 c -0.058594,0 -0.1523438,0 -0.1523438,0.140625 0,0.082031 0.058594,0.1054687 0.1054688,0.1054687 0.234375,0 0.4921875,-0.023437 0.7265625,-0.023437 0.1640625,0 0.5742187,0.023437 0.7382812,0.023437 0.070312,0 0.140625,-0.035156 0.140625,-0.140625 0,-0.1054687 -0.082031,-0.1054687 -0.1640625,-0.1054687 C 7.2882969,1.2253047 7.2882969,1.0495234 7.2882969,0.95577344 c 0,-0.0351563 0,-0.0703125 0.023437,-0.17578125 l 0.890625,-3.57421879 2.0390631,4.171875 c 0.05859,0.1054688 0.08203,0.1171875 0.152343,0.1171875 0.117187,0 0.117187,-0.023437 0.152343,-0.140625 z m 0,0"
         style="fill:#000000;fill-opacity:1;fill-rule:nonzero;stroke:none" />
    </g>
    <g
       id="g17"
       aria-label="x&#10;i"
       transform="matrix(1.3333333,0,0,1.3333333,156.376,73.182667)">
      <path
         id="path18"
         d="m 3.327375,-3.0110234 c 0.058594,-0.2578125 0.2929688,-1.171875 0.984375,-1.171875 0.046875,0 0.2929688,0 0.5039063,0.1289062 -0.28125,0.046875 -0.4804688,0.3046875 -0.4804688,0.5390625 0,0.1640625 0.1054688,0.3515625 0.375,0.3515625 0.2226563,0 0.5390625,-0.1875 0.5390625,-0.5859375 0,-0.515625 -0.5859375,-0.65625 -0.9257812,-0.65625 -0.5742188,0 -0.9257813,0.5273438 -1.0429688,0.7617188 -0.2578125,-0.65625 -0.7851562,-0.7617188 -1.078125,-0.7617188 -1.0429687,0 -1.60546875,1.2890625 -1.60546875,1.5351563 0,0.1054687 0.10546875,0.1054687 0.1171875,0.1054687 0.0820313,0 0.1171875,-0.023437 0.12890625,-0.1171875 0.3398438,-1.0546875 0.9960938,-1.3007812 1.3359375,-1.3007812 0.1875,0 0.5390625,0.09375 0.5390625,0.6679687 0,0.3046875 -0.1640625,0.9726563 -0.5390625,2.3671875 -0.1523437,0.62109376 -0.5039062,1.04296876 -0.9492187,1.04296876 -0.058594,0 -0.28125005,0 -0.49218755,-0.12890625 0.24609375,-0.0585938 0.46875005,-0.26953125 0.46875005,-0.5390625 0,-0.26953121 -0.2226563,-0.35156251 -0.37500005,-0.35156251 -0.29296875,0 -0.5390625,0.25781251 -0.5390625,0.57421876 0,0.45703125 0.4921875,0.65625 0.93750005,0.65625 0.65625,0 1.0078125,-0.69140625 1.0429687,-0.75 0.1171875,0.36328125 0.4804688,0.75 1.078125,0.75 1.0195313,0 1.59375,-1.27734376 1.59375,-1.53515626 0,-0.09375 -0.09375,-0.09375 -0.1289062,-0.09375 -0.082031,0 -0.1054688,0.035156 -0.1289063,0.1054688 -0.328125,1.06640621 -0.9960937,1.31249996 -1.3242187,1.31249996 -0.3867188,0 -0.5390625,-0.328125 -0.5390625,-0.65625 0,-0.22265625 0.058594,-0.44531246 0.1640625,-0.87890626 z m 0,0"
         style="fill:#000000;fill-opacity:1;fill-rule:nonzero;stroke:none" />
      <path
         id="path19"
         d="m 7.9562813,-2.8645391 c 0,-0.1054687 -0.082031,-0.2578125 -0.28125,-0.2578125 -0.1875,0 -0.3867188,0.1757813 -0.3867188,0.375 0,0.1171875 0.082031,0.2695313 0.2695313,0.2695313 0.2109375,0 0.3984375,-0.1992188 0.3984375,-0.3867188 z M 6.5265938,0.67452344 C 6.5031563,0.76827344 6.468,0.85030469 6.468,0.96749219 c 0,0.32812501 0.28125,0.59765621 0.6679688,0.59765621 0.6914062,0 0.9960937,-0.96093746 0.9960937,-1.06640621 0,-0.09375 -0.082031,-0.09375 -0.1054687,-0.09375 -0.1054688,0 -0.1054688,0.046875 -0.140625,0.1171875 C 7.733625,1.0846797 7.4289375,1.3659297 7.1476875,1.3659297 c -0.140625,0 -0.1757812,-0.082031 -0.1757812,-0.2460938 0,-0.15234371 0.058594,-0.29296871 0.1171875,-0.44531246 0.070312,-0.1875 0.140625,-0.375 0.2226562,-0.55078125 0.058594,-0.1640625 0.3164063,-0.80859375 0.3398438,-0.890625 0.023437,-0.0703125 0.046875,-0.15234375 0.046875,-0.22265625 0,-0.32812504 -0.28125,-0.58593754 -0.6679688,-0.58593754 -0.6914062,0 -1.0078125,0.94921879 -1.0078125,1.06640629 0,0.0820313 0.09375,0.0820313 0.1171875,0.0820313 0.09375,0 0.1054688,-0.0351563 0.1289063,-0.10546875 C 6.4445625,-1.1301641 6.74925,-1.3879766 7.0070625,-1.3879766 c 0.1171875,0 0.1757813,0.058594 0.1757813,0.2460938 0,0.16406249 -0.035156,0.26953124 -0.2109375,0.70312499 z m 0,0"
         style="fill:#000000;fill-opacity:1;fill-rule:nonzero;stroke:none" />
    </g>
    <g
       id="g19"
       aria-label="x&#10;i+1"
       transform="matrix(1.3333333,0,0,1.3333333,225.24267,73.182667)">
      <path
         id="path20"
         d="m 3.3277656,-3.0110234 c 0.058594,-0.2578125 0.2929688,-1.171875 0.984375,-1.171875 0.046875,0 0.2929688,0 0.5039063,0.1289062 -0.28125,0.046875 -0.4804688,0.3046875 -0.4804688,0.5390625 0,0.1640625 0.1054688,0.3515625 0.375,0.3515625 0.2226563,0 0.5390625,-0.1875 0.5390625,-0.5859375 0,-0.515625 -0.5859375,-0.65625 -0.9257812,-0.65625 -0.5742188,0 -0.9257813,0.5273438 -1.0429688,0.7617188 -0.2578125,-0.65625 -0.7851562,-0.7617188 -1.078125,-0.7617188 -1.0429687,0 -1.60546872,1.2890625 -1.60546872,1.5351563 0,0.1054687 0.10546875,0.1054687 0.1171875,0.1054687 0.0820313,0 0.1171875,-0.023437 0.12890625,-0.1171875 0.33984377,-1.0546875 0.99609377,-1.3007812 1.33593747,-1.3007812 0.1875,0 0.5390625,0.09375 0.5390625,0.6679687 0,0.3046875 -0.1640625,0.9726563 -0.5390625,2.3671875 -0.1523437,0.62109376 -0.5039062,1.04296876 -0.9492187,1.04296876 -0.058594,0 -0.28125002,0 -0.49218752,-0.12890625 0.24609375,-0.0585938 0.46875002,-0.26953125 0.46875002,-0.5390625 0,-0.26953121 -0.22265627,-0.35156251 -0.37500002,-0.35156251 -0.29296875,0 -0.5390625,0.25781251 -0.5390625,0.57421876 0,0.45703125 0.4921875,0.65625 0.93750002,0.65625 0.65625,0 1.0078125,-0.69140625 1.0429687,-0.75 0.1171875,0.36328125 0.4804688,0.75 1.078125,0.75 1.0195313,0 1.59375,-1.27734376 1.59375,-1.53515626 0,-0.09375 -0.09375,-0.09375 -0.1289062,-0.09375 -0.082031,0 -0.1054688,0.035156 -0.1289063,0.1054688 -0.328125,1.06640621 -0.9960937,1.31249996 -1.3242187,1.31249996 -0.3867188,0 -0.5390625,-0.328125 -0.5390625,-0.65625 0,-0.22265625 0.058594,-0.44531246 0.1640625,-0.87890626 z m 0,0"
         style="fill:#000000;fill-opacity:1;fill-rule:nonzero;stroke:none" />
      <path
         id="path21"
         d="m 7.9566719,-2.8645391 c 0,-0.1054687 -0.082031,-0.2578125 -0.28125,-0.2578125 -0.1875,0 -0.3867188,0.1757813 -0.3867188,0.375 0,0.1171875 0.082031,0.2695313 0.2695313,0.2695313 0.2109375,0 0.3984375,-0.1992188 0.3984375,-0.3867188 z M 6.5269844,0.67452344 c -0.023437,0.09375 -0.058594,0.17578125 -0.058594,0.29296875 0,0.32812501 0.28125,0.59765621 0.6679688,0.59765621 0.6914062,0 0.9960937,-0.96093746 0.9960937,-1.06640621 0,-0.09375 -0.082031,-0.09375 -0.1054687,-0.09375 -0.1054688,0 -0.1054688,0.046875 -0.140625,0.1171875 C 7.7340156,1.0846797 7.4293281,1.3659297 7.1480781,1.3659297 c -0.140625,0 -0.1757812,-0.082031 -0.1757812,-0.2460938 0,-0.15234371 0.058594,-0.29296871 0.1171875,-0.44531246 0.070312,-0.1875 0.140625,-0.375 0.2226562,-0.55078125 0.058594,-0.1640625 0.3164063,-0.80859375 0.3398438,-0.890625 0.023437,-0.0703125 0.046875,-0.15234375 0.046875,-0.22265625 0,-0.32812504 -0.28125,-0.58593754 -0.6679688,-0.58593754 -0.6914062,0 -1.0078125,0.94921879 -1.0078125,1.06640629 0,0.0820313 0.09375,0.0820313 0.1171875,0.0820313 0.09375,0 0.1054688,-0.0351563 0.1289063,-0.10546875 0.1757812,-0.59765624 0.4804687,-0.85546874 0.7382812,-0.85546874 0.1171875,0 0.1757813,0.058594 0.1757813,0.2460938 0,0.16406244 -0.035156,0.26953119 -0.2109375,0.70312494 z m 0,0"
         style="fill:#000000;fill-opacity:1;fill-rule:nonzero;stroke:none" />
      <path
         id="path22"
         d="M 11.735969,-0.07547656 H 13.8805 c 0.08203,0 0.257813,0 0.257813,-0.17578125 0,-0.17578125 -0.164063,-0.17578125 -0.257813,-0.17578125 H 11.735969 V -2.5598516 c 0,-0.09375 0,-0.2578125 -0.164063,-0.2578125 -0.175781,0 -0.175781,0.1523438 -0.175781,0.2578125 v 2.13281254 H 9.2633125 c -0.09375,0 -0.2578125,0 -0.2578125,0.17578125 0,0.17578125 0.1523438,0.17578125 0.2578125,0.17578125 H 11.396125 V 2.0573359 c 0,0.09375 0,0.2578125 0.175781,0.2578125 0.164063,0 0.164063,-0.1523437 0.164063,-0.2578125 z m 5.223633,-2.85937504 c 0,-0.1875 -0.01172,-0.1992187 -0.210938,-0.1992187 -0.445312,0.4335937 -1.078125,0.4453125 -1.359375,0.4453125 v 0.2460937 c 0.164063,0 0.621094,0 1.007813,-0.1875 v 3.55078129 c 0,0.23437501 0,0.32812501 -0.691407,0.32812501 h -0.269531 v 0.2460937 c 0.128906,-0.011719 0.984375,-0.023437 1.242188,-0.023437 0.210937,0 1.089843,0.011719 1.242187,0.023437 V 1.2487422 h -0.257812 c -0.703125,0 -0.703125,-0.09375 -0.703125,-0.32812501 z m 0,0"
         style="fill:#000000;fill-opacity:1;fill-rule:nonzero;stroke:none" />
    </g>
    <g
       id="g22"
       aria-label="h&#10;i"
       transform="matrix(1.3333333,0,0,1.3333333,194.14133,76.688)">
      <path
         id="path23"
         d="m 2.8588438,-6.8089687 c 0,0 0,-0.1054688 -0.1289063,-0.1054688 -0.234375,0 -0.9609375,0.082031 -1.21875,0.1054688 -0.082031,0 -0.1875,0.011719 -0.1875,0.1992187 0,0.1171875 0.09375,0.1171875 0.234375,0.1171875 0.4804688,0 0.5039063,0.070312 0.5039063,0.1640625 l -0.035156,0.1992188 -1.44140625,5.74218745 C 0.55025,-0.24646875 0.55025,-0.23475 0.55025,-0.1644375 c 0,0.22265625 0.19921875,0.26953125 0.28125,0.26953125 0.1640625,0 0.328125,-0.1171875 0.375,-0.2578125 l 0.1875,-0.75 0.2226563,-0.90234375 c 0.058594,-0.2226562 0.1171875,-0.4335937 0.1640625,-0.6679687 0.023437,-0.058594 0.1054687,-0.3867188 0.1171875,-0.4453125 0.023437,-0.09375 0.328125,-0.6445313 0.6679687,-0.9140625 0.2226563,-0.1640625 0.5273438,-0.3515625 0.9609375,-0.3515625 0.421875,0 0.5390625,0.3398437 0.5390625,0.6914062 0,0.5390625 -0.375,1.6289063 -0.6210937,2.2382813 C 3.36275,-1.031625 3.315875,-0.90271875 3.315875,-0.7035 c 0,0.46875 0.3515625,0.80859375 0.8203125,0.80859375 0.9375,0 1.3007813,-1.45312495 1.3007813,-1.53515625 0,-0.09375 -0.09375,-0.09375 -0.1171875,-0.09375 -0.1054688,0 -0.1054688,0.023437 -0.1523438,0.1757813 -0.1523437,0.5273437 -0.46875,1.24218745 -1.0195312,1.24218745 -0.1640625,0 -0.234375,-0.10546875 -0.234375,-0.328125 0,-0.2578125 0.09375,-0.4921875 0.1757812,-0.71484375 0.1640625,-0.421875 0.609375,-1.6054687 0.609375,-2.1914062 0,-0.6445313 -0.3984375,-1.0664063 -1.1484375,-1.0664063 -0.6210937,0 -1.1015625,0.3164063 -1.4648437,0.7734375 z m 0,0"
         style="fill:#000000;fill-opacity:1;fill-rule:nonzero;stroke:none" />
      <path
         id="path24"
         d="m 8.0004453,-2.8656094 c 0,-0.1054687 -0.082031,-0.2578125 -0.28125,-0.2578125 -0.1875,0 -0.3867187,0.1757813 -0.3867187,0.375 0,0.1171875 0.082031,0.2695313 0.2695312,0.2695313 0.2109375,0 0.3984375,-0.1992188 0.3984375,-0.3867188 z M 6.5707578,0.67345313 c -0.023437,0.09375 -0.058594,0.17578125 -0.058594,0.29296875 0,0.32812502 0.28125,0.59765622 0.6679687,0.59765622 0.6914063,0 0.9960938,-0.96093747 0.9960938,-1.06640622 0,-0.09375 -0.082031,-0.09375 -0.1054688,-0.09375 -0.1054687,0 -0.1054687,0.046875 -0.140625,0.1171875 C 7.7777891,1.0836094 7.4731016,1.3648594 7.1918516,1.3648594 c -0.140625,0 -0.1757813,-0.082031 -0.1757813,-0.2460938 0,-0.15234372 0.058594,-0.29296872 0.1171875,-0.44531247 0.070312,-0.1875 0.140625,-0.375 0.2226563,-0.55078125 0.058594,-0.1640625 0.3164062,-0.80859375 0.3398437,-0.890625 0.023437,-0.0703125 0.046875,-0.15234375 0.046875,-0.22265625 0,-0.32812503 -0.28125,-0.58593753 -0.6679687,-0.58593753 -0.6914063,0 -1.0078125,0.94921878 -1.0078125,1.06640628 0,0.0820313 0.09375,0.0820313 0.1171875,0.0820313 0.09375,0 0.1054687,-0.0351563 0.1289062,-0.10546875 0.1757813,-0.59765623 0.4804688,-0.85546873 0.7382813,-0.85546873 0.1171875,0 0.1757812,0.058594 0.1757812,0.2460938 0,0.16406243 -0.035156,0.26953118 -0.2109375,0.70312493 z m 0,0"
         style="fill:#000000;fill-opacity:1;fill-rule:nonzero;stroke:none" />
    </g>
    <g
       id="g24"
       aria-label="n/p&#10;i&#10;,ψ&#10;i"
       transform="matrix(1.3333333,0,0,1.3333333,140.03333,28.189333)">
      <path
         id="path25"
         d="m 0.88027344,-0.5873125 c -0.0351563,0.15234375 -0.09375,0.375 -0.09375,0.421875 0,0.1875 0.140625,0.26953125 0.29296876,0.26953125 0.1171875,0 0.2929687,-0.0703125 0.3632812,-0.26953125 0.011719,-0.0234375 0.1289063,-0.4921875 0.1875,-0.73828125 L 1.8529297,-1.8060625 c 0.058594,-0.2226562 0.1171875,-0.4335937 0.1757812,-0.6679687 0.035156,-0.1640625 0.1171875,-0.4570313 0.1289063,-0.4921875 0.140625,-0.3164063 0.6679687,-1.21875 1.6171875,-1.21875 0.4453125,0 0.5390625,0.3632812 0.5390625,0.6914062 0,0.6210938 -0.4921875,1.8984375 -0.6445313,2.3320313 -0.09375,0.2226562 -0.1054687,0.3398437 -0.1054687,0.4570312 0,0.46875 0.3515625,0.80859375 0.8203125,0.80859375 0.9375,0 1.3007812,-1.45312495 1.3007812,-1.53515625 0,-0.09375 -0.082031,-0.09375 -0.1171875,-0.09375 -0.09375,0 -0.09375,0.023437 -0.1523437,0.1757813 -0.1992188,0.67968745 -0.5273438,1.24218745 -1.0078125,1.24218745 -0.1757813,0 -0.2460938,-0.10546875 -0.2460938,-0.328125 0,-0.2578125 0.09375,-0.4921875 0.1875,-0.71484375 0.1875,-0.5273437 0.5976563,-1.6171875 0.5976563,-2.1914062 0,-0.6679688 -0.421875,-1.0664063 -1.1367188,-1.0664063 -0.9023437,0 -1.3828125,0.6445313 -1.5585937,0.8671875 -0.046875,-0.5507812 -0.4570313,-0.8671875 -0.9140625,-0.8671875 -0.45703126,0 -0.64453126,0.3867188 -0.75000001,0.5742188 -0.15234375,0.3398437 -0.29296875,0.9257812 -0.29296875,0.9609375 0,0.1054687 0.09375,0.1054687 0.1171875,0.1054687 0.09375,0 0.10546875,-0.011719 0.1640625,-0.234375 0.17578125,-0.703125 0.375,-1.1835937 0.72656246,-1.1835937 0.1992188,0 0.3164063,0.1289062 0.3164063,0.4570312 0,0.2109375 -0.035156,0.3164063 -0.1640625,0.8320313 z M 10.351953,-7.0912187 c 0.04687,-0.1289063 0.04687,-0.1757813 0.04687,-0.1875 0,-0.1054688 -0.08203,-0.1992188 -0.199219,-0.1992188 -0.07031,0 -0.128906,0.035156 -0.164062,0.09375 L 6.5785156,2.108 c -0.046875,0.1289063 -0.046875,0.1757813 -0.046875,0.1875 0,0.1054688 0.082031,0.1992188 0.1992188,0.1992188 0.1289062,0 0.1523437,-0.070312 0.2109375,-0.2460938 z m 1.054688,8.3085937 c -0.08203,0.3398438 -0.09375,0.4101563 -0.539063,0.4101563 -0.117187,0 -0.222656,0 -0.222656,0.1875 0,0.082031 0.04687,0.1171875 0.128906,0.1171875 0.269531,0 0.550781,-0.035156 0.832031,-0.035156 0.328125,0 0.667969,0.035156 0.984375,0.035156 0.05859,0 0.1875,0 0.1875,-0.1992188 0,-0.1054687 -0.105468,-0.1054687 -0.246093,-0.1054687 -0.492188,0 -0.492188,-0.070312 -0.492188,-0.1640625 0,-0.1171875 0.421875,-1.7460938 0.480469,-1.99218755 0.140625,0.29296875 0.410156,0.6328125 0.925781,0.6328125 1.148438,0 2.402344,-1.45312495 2.402344,-2.91796875 0,-0.9375 -0.574219,-1.59375 -1.335938,-1.59375 -0.492187,0 -0.972656,0.3632813 -1.300781,0.75 -0.09375,-0.5390625 -0.527344,-0.75 -0.890625,-0.75 -0.457031,0 -0.65625,0.3867188 -0.738281,0.5742188 -0.1875,0.3398437 -0.316406,0.9375 -0.316406,0.9609375 0,0.1054687 0.105468,0.1054687 0.128906,0.1054687 0.09375,0 0.105469,-0.011719 0.164062,-0.234375 0.164063,-0.703125 0.363282,-1.1835937 0.726563,-1.1835937 0.175781,0 0.304687,0.082031 0.304687,0.4570312 0,0.234375 -0.02344,0.3398438 -0.07031,0.5039063 z m 1.757812,-4.3242187 c 0.07031,-0.2695313 0.339844,-0.5507813 0.515625,-0.703125 0.351563,-0.3046875 0.632813,-0.375 0.808594,-0.375 0.398437,0 0.632812,0.3515625 0.632812,0.9375 0,0.5859375 -0.328125,1.734375 -0.503906,2.109375 -0.339844,0.70312495 -0.820312,1.03124995 -1.183594,1.03124995 -0.65625,0 -0.785156,-0.83203125 -0.785156,-0.890625 0,-0.0234374 0,-0.0351562 0.02344,-0.16406245 z m 0,0"
         style="fill:#000000;fill-opacity:1;fill-rule:nonzero;stroke:none" />
      <path
         id="path26"
         d="m 18.235742,-2.8666094 c 0,-0.1054687 -0.08203,-0.2578125 -0.28125,-0.2578125 -0.1875,0 -0.386719,0.1757813 -0.386719,0.375 0,0.1171875 0.08203,0.2695313 0.269532,0.2695313 0.210937,0 0.398437,-0.1992188 0.398437,-0.3867188 z m -1.429687,3.53906253 c -0.02344,0.09375 -0.05859,0.17578125 -0.05859,0.29296875 0,0.32812502 0.28125,0.59765622 0.667969,0.59765622 0.691406,0 0.996093,-0.96093747 0.996093,-1.06640622 0,-0.09375 -0.08203,-0.09375 -0.105468,-0.09375 -0.105469,0 -0.105469,0.046875 -0.140625,0.1171875 -0.152344,0.56250002 -0.457032,0.84375002 -0.738282,0.84375002 -0.140625,0 -0.175781,-0.082031 -0.175781,-0.2460938 0,-0.15234372 0.05859,-0.29296872 0.117188,-0.44531247 0.07031,-0.1875 0.140625,-0.375 0.222656,-0.55078125 0.05859,-0.1640625 0.316406,-0.80859375 0.339844,-0.890625 0.02344,-0.0703125 0.04687,-0.15234375 0.04687,-0.22265625 0,-0.32812503 -0.28125,-0.58593753 -0.667969,-0.58593753 -0.691406,0 -1.007813,0.94921878 -1.007813,1.06640628 0,0.0820313 0.09375,0.0820313 0.117188,0.0820313 0.09375,0 0.105469,-0.0351563 0.128906,-0.10546875 0.175781,-0.59765633 0.480469,-0.85546883 0.738281,-0.85546883 0.117188,0 0.175782,0.058594 0.175782,0.2460938 0,0.16406253 -0.03516,0.26953128 -0.210938,0.70312503 z m 0,0"
         style="fill:#000000;fill-opacity:1;fill-rule:nonzero;stroke:none" />
      <path
         id="path27"
         d="m 21.317773,-0.01309375 c 0,-0.65625 -0.257812,-1.04296875 -0.644531,-1.04296875 -0.328125,0 -0.527344,0.24609375 -0.527344,0.52734375 0,0.26953125 0.199219,0.52734375 0.527344,0.52734375 0.117188,0 0.246094,-0.03515625 0.351563,-0.12890625 0.02344,-0.0234375 0.03516,-0.0351563 0.04687,-0.0351563 0.01172,0 0.02344,0.0117188 0.02344,0.15234375 0,0.73828125 -0.351562,1.3359376 -0.679687,1.6640626 -0.105469,0.1054687 -0.105469,0.1289062 -0.105469,0.1640625 0,0.070312 0.04687,0.1054687 0.09375,0.1054687 0.117187,0 0.914062,-0.7617187 0.914062,-1.9335938 z M 28.527734,-6.657625 c 0.01172,-0.035156 0.02344,-0.09375 0.02344,-0.1523437 0,-0.09375 -0.07031,-0.1054688 -0.117188,-0.1054688 -0.09375,0 -0.105468,0.023437 -0.152343,0.1992188 l -1.652344,6.58593745 c -0.75,-0.09375 -1.136719,-0.45703125 -1.136719,-1.11328125 0,-0.1992187 0,-0.4570312 0.539063,-1.8515625 0.04687,-0.1289062 0.117187,-0.2929687 0.117187,-0.4921875 0,-0.4453125 -0.328125,-0.8203125 -0.820312,-0.8203125 -0.949219,0 -1.3125,1.453125 -1.3125,1.5351563 0,0.1054687 0.09375,0.1054687 0.117187,0.1054687 0.09375,0 0.105469,-0.023437 0.152344,-0.1875 0.269531,-0.9375 0.667969,-1.2304687 1.007812,-1.2304687 0.08203,0 0.257813,0 0.257813,0.3164062 0,0.2578125 -0.105469,0.515625 -0.234375,0.8554688 -0.480469,1.2539062 -0.480469,1.5117187 -0.480469,1.6875 0,0.9492187 0.785156,1.35937495 1.734375,1.4179687 -0.08203,0.3515625 -0.08203,0.375 -0.222656,0.90234375 -0.02344,0.10546875 -0.222656,0.91406255 -0.222656,0.94921875 0,0.011719 0,0.09375 0.117187,0.09375 0.02344,0 0.07031,0 0.09375,-0.035156 0.02344,-0.023437 0.08203,-0.2695313 0.117188,-0.4101563 l 0.375,-1.48828125 c 0.375,0 1.242187,0 2.179687,-1.06640625 0.410156,-0.4570312 0.621094,-0.890625 0.726563,-1.1953125 0.09375,-0.2460937 0.316406,-1.1132812 0.316406,-1.546875 0,-0.5625 -0.269531,-0.703125 -0.445313,-0.703125 -0.246093,0 -0.492187,0.2578125 -0.492187,0.4804688 0,0.1289062 0.05859,0.1875 0.152344,0.2695312 0.105468,0.1054688 0.351562,0.3632813 0.351562,0.84375 0,0.6445313 -0.515625,1.453125 -0.867187,1.81640625 -0.878907,0.890625 -1.511719,0.890625 -1.875,0.890625 z m 0,0"
         style="fill:#000000;fill-opacity:1;fill-rule:nonzero;stroke:none" />
      <path
         id="path28"
         d="m 32.471094,-2.8666094 c 0,-0.1054687 -0.08203,-0.2578125 -0.28125,-0.2578125 -0.1875,0 -0.386719,0.1757813 -0.386719,0.375 0,0.1171875 0.08203,0.2695313 0.269531,0.2695313 0.210938,0 0.398438,-0.1992188 0.398438,-0.3867188 z m -1.429688,3.53906253 c -0.02344,0.09375 -0.05859,0.17578125 -0.05859,0.29296875 0,0.32812502 0.28125,0.59765622 0.667968,0.59765622 0.691407,0 0.996094,-0.96093747 0.996094,-1.06640622 0,-0.09375 -0.08203,-0.09375 -0.105469,-0.09375 -0.105468,0 -0.105468,0.046875 -0.140625,0.1171875 C 32.248438,1.0826094 31.94375,1.3638594 31.6625,1.3638594 c -0.140625,0 -0.175781,-0.082031 -0.175781,-0.2460938 0,-0.15234372 0.05859,-0.29296872 0.117187,-0.44531247 0.07031,-0.1875 0.140625,-0.375 0.222657,-0.55078125 0.05859,-0.1640625 0.316406,-0.80859375 0.339843,-0.890625 0.02344,-0.0703125 0.04687,-0.15234375 0.04687,-0.22265625 0,-0.32812503 -0.28125,-0.58593753 -0.667968,-0.58593753 -0.691407,0 -1.007813,0.94921878 -1.007813,1.06640628 0,0.0820313 0.09375,0.0820313 0.117188,0.0820313 0.09375,0 0.105468,-0.0351563 0.128906,-0.10546875 0.175781,-0.59765623 0.480469,-0.85546873 0.738281,-0.85546873 0.117188,0 0.175781,0.058594 0.175781,0.2460937 0,0.16406253 -0.03516,0.26953128 -0.210937,0.70312503 z m 0,0"
         style="fill:#000000;fill-opacity:1;fill-rule:nonzero;stroke:none" />
    </g>
    <g
       id="g28"
       aria-label="J&#10;i+1/2&#10;,E&#10;i+1/2"
       transform="matrix(1.3333333,0,0,1.3333333,160.032,13.504)">
      <path
         id="path29"
         d="m 5.3900625,-6.0821016 c 0.082031,-0.328125 0.09375,-0.4101562 0.6445313,-0.4101562 0.1640625,0 0.2695312,0 0.2695312,-0.1875 0,-0.09375 -0.058594,-0.1289063 -0.140625,-0.1289063 -0.2460937,0 -0.8554687,0.035156 -1.1015625,0.035156 -0.328125,0 -1.1367187,-0.035156 -1.4648437,-0.035156 -0.09375,0 -0.2109375,0 -0.2109375,0.1992188 0,0.1171875 0.082031,0.1171875 0.3398437,0.1171875 0.2226563,0 0.328125,0 0.5742188,0.011719 0.2460937,0.035156 0.3164062,0.070312 0.3164062,0.1992188 0,0.070312 -0.023437,0.140625 -0.046875,0.2109375 L 3.4213125,-1.5000703 C 3.1869375,-0.52741406 2.50725,-7.03125e-5 1.991625,-7.03125e-5 c -0.2578125,0 -0.7851562,-0.1054687475 -0.9492187,-0.6210937475 0.035156,0.0117188 0.1054687,0.0117188 0.1171875,0.0117188 0.3984375,0 0.65625,-0.33984375 0.65625,-0.63281244 0,-0.3164063 -0.2695313,-0.421875 -0.4453125,-0.421875 -0.1757813,0 -0.6679688,0.1171875 -0.6679688,0.79687494 0,0.62109375 0.5273438,1.08984375 1.3242188,1.08984375 0.9140625,0 1.9453125,-0.65625 2.1914062,-1.65234369 z m 0,0"
         style="fill:#000000;fill-opacity:1;fill-rule:nonzero;stroke:none" />
      <path
         id="path30"
         d="m 7.7865469,-2.5606172 c 0,-0.1054687 -0.082031,-0.2578125 -0.28125,-0.2578125 -0.1875,0 -0.3867188,0.1757813 -0.3867188,0.375 0,0.1171875 0.082031,0.2695313 0.2695313,0.2695313 0.2109375,0 0.3984375,-0.1992188 0.3984375,-0.3867188 z M 6.3568594,0.97844531 c -0.023437,0.09375 -0.058594,0.17578129 -0.058594,0.29296879 0,0.328125 0.28125,0.5976562 0.6679688,0.5976562 0.6914062,0 0.9960937,-0.96093749 0.9960937,-1.06640624 0,-0.09375 -0.082031,-0.09375 -0.1054687,-0.09375 -0.1054688,0 -0.1054688,0.046875 -0.140625,0.1171875 C 7.5638906,1.3886016 7.2592031,1.6698516 6.9779531,1.6698516 c -0.140625,0 -0.1757812,-0.082031 -0.1757812,-0.2460938 0,-0.1523437 0.058594,-0.2929687 0.1171875,-0.44531249 0.070312,-0.1875 0.140625,-0.375 0.2226562,-0.55078125 0.058594,-0.1640625 0.3164063,-0.80859375 0.3398438,-0.890625 0.023437,-0.0703125 0.046875,-0.15234375 0.046875,-0.22265625 0,-0.32812501 -0.28125,-0.58593751 -0.6679688,-0.58593751 -0.6914062,0 -1.0078125,0.94921876 -1.0078125,1.06640626 0,0.0820312 0.09375,0.0820312 0.1171875,0.0820312 0.09375,0 0.1054688,-0.0351562 0.1289063,-0.10546875 0.1757812,-0.59765625 0.4804687,-0.85546871 0.7382812,-0.85546871 0.1171875,0 0.1757813,0.058594 0.1757813,0.24609371 0,0.1640625 -0.035156,0.26953125 -0.2109375,0.703125 z m 0,0"
         style="fill:#000000;fill-opacity:1;fill-rule:nonzero;stroke:none" />
      <path
         id="path31"
         d="m 11.565844,0.22844531 h 2.144531 c 0.08203,0 0.257813,0 0.257813,-0.17578125 0,-0.17578125 -0.164063,-0.17578125 -0.257813,-0.17578125 H 11.565844 V -2.2559297 c 0,-0.09375 0,-0.2578125 -0.164063,-0.2578125 -0.175781,0 -0.175781,0.1523438 -0.175781,0.2578125 v 2.13281251 H 9.0931875 c -0.09375,0 -0.2578125,0 -0.2578125,0.17578125 0,0.17578125 0.1523438,0.17578125 0.2578125,0.17578125 H 11.226 V 2.3612578 c 0,0.09375 0,0.2578125 0.175781,0.2578125 0.164063,0 0.164063,-0.1523437 0.164063,-0.2578125 z m 5.223633,-2.85937501 c 0,-0.1875 -0.01172,-0.1992187 -0.210938,-0.1992187 -0.445312,0.4335937 -1.078125,0.4453125 -1.359375,0.4453125 v 0.2460937 c 0.164063,0 0.621094,0 1.007813,-0.1875 v 3.5507813 c 0,0.234375 0,0.328125 -0.691407,0.328125 h -0.269531 v 0.2460937 c 0.128906,-0.011719 0.984375,-0.023437 1.242188,-0.023437 0.210937,0 1.089843,0.011719 1.242187,0.023437 V 1.5526641 h -0.257812 c -0.703125,0 -0.703125,-0.09375 -0.703125,-0.328125 z m 0,0"
         style="fill:#000000;fill-opacity:1;fill-rule:nonzero;stroke:none" />
      <path
         id="path32"
         d="m 21.922289,-3.1231172 c 0.04687,-0.09375 0.04687,-0.1054687 0.04687,-0.1289062 0,-0.1171875 -0.09375,-0.1757813 -0.175781,-0.1757813 -0.117188,0 -0.152344,0.082031 -0.1875,0.1757813 L 19.00432,3.2401641 c -0.03516,0.082031 -0.03516,0.09375 -0.03516,0.1289062 0,0.1054688 0.09375,0.1757813 0.164063,0.1757813 0.117187,0 0.152343,-0.082031 0.1875,-0.1757813 z m 0,0"
         style="fill:#000000;fill-opacity:1;fill-rule:nonzero;stroke:none" />
      <path
         id="path33"
         d="m 26.026781,0.53313281 h -0.234375 c -0.02344,0.15234375 -0.08203,0.56249999 -0.175781,0.63281249 -0.05859,0.035156 -0.597656,0.035156 -0.691406,0.035156 h -1.289063 c 0.738282,-0.64453129 0.984375,-0.84375004 1.394532,-1.17187504 0.515625,-0.41015625 0.996093,-0.84375 0.996093,-1.49999996 0,-0.84375 -0.738281,-1.359375 -1.628906,-1.359375 -0.867187,0 -1.453125,0.609375 -1.453125,1.2421875 0,0.3632812 0.304688,0.3984375 0.375,0.3984375 0.164063,0 0.375,-0.1171875 0.375,-0.375 0,-0.1289063 -0.05859,-0.3632813 -0.421875,-0.3632813 0.222656,-0.5039062 0.691406,-0.65625 1.019531,-0.65625 0.703125,0 1.066407,0.5507813 1.066407,1.1132813 0,0.60937496 -0.433594,1.08984371 -0.65625,1.33593746 l -1.6875,1.66406254 c -0.07031,0.058594 -0.07031,0.070312 -0.07031,0.2695312 h 2.882813 z m 0,0"
         style="fill:#000000;fill-opacity:1;fill-rule:nonzero;stroke:none" />
      <path
         id="path34"
         d="m 29.009203,-0.01178906 c 0,-0.65625 -0.257812,-1.04296874 -0.644531,-1.04296874 -0.328125,0 -0.527344,0.24609374 -0.527344,0.52734374 0,0.26953125 0.199219,0.5273437475 0.527344,0.5273437475 0.117187,0 0.246094,-0.0351562475 0.351562,-0.1289062475 0.02344,-0.0234375 0.03516,-0.0351563 0.04687,-0.0351563 0.01172,0 0.02344,0.0117188 0.02344,0.15234375 0,0.73828125 -0.351563,1.33593741 -0.679688,1.66406241 -0.105468,0.1054688 -0.105468,0.1289063 -0.105468,0.1640625 0,0.070312 0.04687,0.1054688 0.09375,0.1054688 0.117187,0 0.914062,-0.7617188 0.914062,-1.93359371 z m 9.457031,-2.30859374 c 0.02344,-0.046875 0.04687,-0.1171875 0.04687,-0.140625 0,-0.011719 0,-0.1054688 -0.117187,-0.1054688 -0.09375,0 -0.105469,0.058594 -0.128906,0.1171875 -0.644532,1.47656254 -1.019532,2.14453129 -2.71875,2.14453129 h -1.453125 c -0.140625,0 -0.164063,0 -0.222657,-0.0117188 -0.105468,-0.0117188 -0.128906,-0.0234375 -0.128906,-0.10546875 0,-0.0234375 0,-0.046875 0.04687,-0.22265625 l 0.679688,-2.71875009 h 0.984375 c 0.84375,0 0.84375,0.2109375 0.84375,0.4570313 0,0.070312 0,0.1875 -0.07031,0.4804687 -0.01172,0.058594 -0.02344,0.082031 -0.02344,0.1171875 0,0.046875 0.03516,0.1054688 0.128906,0.1054688 0.08203,0 0.105469,-0.046875 0.152344,-0.1992188 l 0.5625,-2.3320311 c 0,-0.058594 -0.04687,-0.1054688 -0.117188,-0.1054688 -0.09375,0 -0.105469,0.058594 -0.140625,0.1757813 -0.210937,0.7617187 -0.386719,0.984375 -1.300781,0.984375 h -0.9375 l 0.597656,-2.4023438 c 0.08203,-0.3398438 0.09375,-0.3867188 0.539063,-0.3867188 h 1.40625 c 1.207031,0 1.511718,0.2929688 1.511718,1.1132813 0,0.234375 0,0.2578125 -0.04687,0.5273437 0,0.058594 -0.01172,0.1289063 -0.01172,0.1757813 0,0.046875 0.03516,0.1171875 0.128906,0.1171875 0.105469,0 0.117187,-0.058594 0.140625,-0.2460938 l 0.199219,-1.7226562 c 0.02344,-0.2695313 -0.02344,-0.2695313 -0.269532,-0.2695313 h -5.039062 c -0.199219,0 -0.292969,0 -0.292969,0.1992188 0,0.1054687 0.09375,0.1054687 0.28125,0.1054687 0.363281,0 0.644531,0 0.644531,0.1875 0,0.035156 0,0.058594 -0.04687,0.234375 l -1.324218,5.27343754 c -0.09375,0.38671875 -0.117188,0.46875 -0.902344,0.46875 -0.164063,0 -0.28125,0 -0.28125,0.1875 0,0.1171874975 0.09375,0.1171874975 0.28125,0.1171874975 h 5.167969 c 0.234375,0 0.246093,-0.0117187475 0.316406,-0.1640624975 z m 0,0"
         style="fill:#000000;fill-opacity:1;fill-rule:nonzero;stroke:none" />
      <path
         id="path35"
         d="m 41.026781,-2.5606172 c 0,-0.1054687 -0.08203,-0.2578125 -0.28125,-0.2578125 -0.1875,0 -0.386718,0.1757813 -0.386718,0.375 0,0.1171875 0.08203,0.2695313 0.269531,0.2695313 0.210937,0 0.398437,-0.1992188 0.398437,-0.3867188 z m -1.429687,3.53906251 c -0.02344,0.09375 -0.05859,0.17578129 -0.05859,0.29296879 0,0.328125 0.28125,0.5976562 0.667969,0.5976562 0.691406,0 0.996094,-0.96093749 0.996094,-1.06640624 0,-0.09375 -0.08203,-0.09375 -0.105469,-0.09375 -0.105469,0 -0.105469,0.046875 -0.140625,0.1171875 -0.152344,0.56250004 -0.457031,0.84375004 -0.738281,0.84375004 -0.140625,0 -0.175782,-0.082031 -0.175782,-0.2460938 0,-0.1523437 0.05859,-0.2929687 0.117188,-0.44531249 0.07031,-0.1875 0.140625,-0.375 0.222656,-0.55078125 0.05859,-0.1640625 0.316406,-0.80859375 0.339844,-0.890625 0.02344,-0.0703125 0.04687,-0.15234375 0.04687,-0.22265625 0,-0.32812501 -0.28125,-0.58593751 -0.667969,-0.58593751 -0.691406,0 -1.007812,0.94921876 -1.007812,1.06640626 0,0.0820312 0.09375,0.0820312 0.117187,0.0820312 0.09375,0 0.105469,-0.0351562 0.128906,-0.10546875 0.175782,-0.59765625 0.480469,-0.85546871 0.738282,-0.85546871 0.117187,0 0.175781,0.058594 0.175781,0.24609371 0,0.1640625 -0.03516,0.26953125 -0.210938,0.703125 z m 0,0"
         style="fill:#000000;fill-opacity:1;fill-rule:nonzero;stroke:none" />
      <path
         id="path36"
         d="m 44.806078,0.22844531 h 2.144531 c 0.08203,0 0.257813,0 0.257813,-0.17578125 0,-0.17578125 -0.164063,-0.17578125 -0.257813,-0.17578125 H 44.806078 V -2.2559297 c 0,-0.09375 0,-0.2578125 -0.164062,-0.2578125 -0.175782,0 -0.175782,0.1523438 -0.175782,0.2578125 v 2.13281251 h -2.132812 c -0.09375,0 -0.257813,0 -0.257813,0.17578125 0,0.17578125 0.152344,0.17578125 0.257813,0.17578125 h 2.132812 V 2.3612578 c 0,0.09375 0,0.2578125 0.175782,0.2578125 0.164062,0 0.164062,-0.1523437 0.164062,-0.2578125 z m 5.223633,-2.85937501 c 0,-0.1875 -0.01172,-0.1992187 -0.210938,-0.1992187 -0.445312,0.4335937 -1.078125,0.4453125 -1.359375,0.4453125 v 0.2460937 c 0.164063,0 0.621094,0 1.007813,-0.1875 v 3.5507813 c 0,0.234375 0,0.328125 -0.691406,0.328125 h -0.269532 v 0.2460937 c 0.128907,-0.011719 0.984375,-0.023437 1.242188,-0.023437 0.210937,0 1.089844,0.011719 1.242187,0.023437 V 1.5526641 h -0.257812 c -0.703125,0 -0.703125,-0.09375 -0.703125,-0.328125 z m 0,0"
         style="fill:#000000;fill-opacity:1;fill-rule:nonzero;stroke:none" />
      <path
         id="path37"
         d="m 55.162523,-3.1231172 c 0.04687,-0.09375 0.04687,-0.1054687 0.04687,-0.1289062 0,-0.1171875 -0.09375,-0.1757813 -0.175781,-0.1757813 -0.117187,0 -0.152344,0.082031 -0.1875,0.1757813 L 52.24455,3.2401641 c -0.03516,0.082031 -0.03516,0.09375 -0.03516,0.1289062 0,0.1054688 0.09375,0.1757813 0.164063,0.1757813 0.117187,0 0.152344,-0.082031 0.1875,-0.1757813 z m 0,0"
         style="fill:#000000;fill-opacity:1;fill-rule:nonzero;stroke:none" />
      <path
         id="path38"
         d="m 59.267016,0.53313281 h -0.234375 c -0.02344,0.15234375 -0.08203,0.56249999 -0.175782,0.63281249 -0.05859,0.035156 -0.597656,0.035156 -0.691406,0.035156 h -1.289062 c 0.738281,-0.64453129 0.984375,-0.84375004 1.394531,-1.17187504 0.515625,-0.41015625 0.996094,-0.84375 0.996094,-1.49999996 0,-0.84375 -0.738282,-1.359375 -1.628907,-1.359375 -0.867187,0 -1.453125,0.609375 -1.453125,1.2421875 0,0.3632812 0.304688,0.3984375 0.375,0.3984375 0.164063,0 0.375,-0.1171875 0.375,-0.375 0,-0.1289063 -0.05859,-0.3632813 -0.421875,-0.3632813 0.222657,-0.5039062 0.691407,-0.65625 1.019532,-0.65625 0.703125,0 1.066406,0.5507813 1.066406,1.1132813 0,0.60937496 -0.433594,1.08984371 -0.65625,1.33593746 l -1.6875,1.66406254 c -0.07031,0.058594 -0.07031,0.070312 -0.07031,0.2695312 H 59.0678 Z m 0,0"
         style="fill:#000000;fill-opacity:1;fill-rule:nonzero;stroke:none" />
    </g>
  </g>
</svg>
