<?xml version="1.0" encoding="UTF-8"?><svg xmlns="http://www.w3.org/2000/svg" xmlns:xlink="http://www.w3.org/1999/xlink" fill-opacity="1" color-rendering="auto" color-interpolation="auto" text-rendering="auto" stroke="black" stroke-linecap="square" width="279" stroke-miterlimit="10" shape-rendering="auto" stroke-opacity="1" fill="black" stroke-dasharray="none" font-weight="normal" stroke-width="1" height="274" font-family="'Dialog'" font-style="normal" stroke-linejoin="miter" font-size="12px" stroke-dashoffset="0" image-rendering="auto">
  <!--Generated by ySVG 2.6-->
  <defs id="genericDefs"/>
  <g>
    <defs id="defs1">
      <clipPath clipPathUnits="userSpaceOnUse" id="clipPath1">
        <path d="M0 0 L279 0 L279 274 L0 274 L0 0 Z"/>
      </clipPath>
      <clipPath clipPathUnits="userSpaceOnUse" id="clipPath2">
        <path d="M-127 8 L152 8 L152 282 L-127 282 L-127 8 Z"/>
      </clipPath>
    </defs>
    <g fill="white" text-rendering="geometricPrecision" shape-rendering="geometricPrecision" transform="translate(127,-8)" stroke="white">
      <rect x="-127" width="279" height="274" y="8" clip-path="url(#clipPath2)" stroke="none"/>
    </g>
    <g fill="rgb(255,204,0)" text-rendering="geometricPrecision" shape-rendering="geometricPrecision" transform="matrix(1,0,0,1,127,-8)" stroke="rgb(255,204,0)">
      <rect x="-111.884" width="100" height="30" y="130.2746" clip-path="url(#clipPath2)" stroke="none"/>
    </g>
    <g text-rendering="geometricPrecision" stroke-miterlimit="1.45" shape-rendering="geometricPrecision" transform="matrix(1,0,0,1,127,-8)" stroke-linecap="butt">
      <rect fill="none" x="-111.884" width="100" height="30" y="130.2746" clip-path="url(#clipPath2)"/>
      <text x="-94.2302" xml:space="preserve" y="148.0226" clip-path="url(#clipPath2)" font-family="sans-serif" stroke="none">Netradiation</text>
    </g>
    <g fill="rgb(255,204,0)" text-rendering="geometricPrecision" shape-rendering="geometricPrecision" transform="matrix(1,0,0,1,127,-8)" stroke="rgb(255,204,0)">
      <rect x="-111.884" width="100" height="30" y="23.8765" clip-path="url(#clipPath2)" stroke="none"/>
    </g>
    <g text-rendering="geometricPrecision" stroke-miterlimit="1.45" shape-rendering="geometricPrecision" transform="matrix(1,0,0,1,127,-8)" stroke-linecap="butt">
      <rect fill="none" x="-111.884" width="100" height="30" y="23.8765" clip-path="url(#clipPath2)"/>
      <text x="-88.8962" xml:space="preserve" y="41.6245" clip-path="url(#clipPath2)" font-family="sans-serif" stroke="none">Scattering</text>
    </g>
    <g fill="rgb(255,204,0)" text-rendering="geometricPrecision" shape-rendering="geometricPrecision" transform="matrix(1,0,0,1,127,-8)" stroke="rgb(255,204,0)">
      <rect x="36.3666" width="100" height="30" y="23.8765" clip-path="url(#clipPath2)" stroke="none"/>
    </g>
    <g text-rendering="geometricPrecision" stroke-miterlimit="1.45" shape-rendering="geometricPrecision" transform="matrix(1,0,0,1,127,-8)" stroke-linecap="butt">
      <rect fill="none" x="36.3666" width="100" height="30" y="23.8765" clip-path="url(#clipPath2)"/>
      <text x="66.3624" xml:space="preserve" y="41.6245" clip-path="url(#clipPath2)" font-family="sans-serif" stroke="none">Fresnel</text>
    </g>
    <g fill="rgb(255,204,0)" text-rendering="geometricPrecision" shape-rendering="geometricPrecision" transform="matrix(1,0,0,1,127,-8)" stroke="rgb(255,204,0)">
      <rect x="-111.884" width="100" height="30" y="236.6726" clip-path="url(#clipPath2)" stroke="none"/>
    </g>
    <g text-rendering="geometricPrecision" stroke-miterlimit="1.45" shape-rendering="geometricPrecision" transform="matrix(1,0,0,1,127,-8)" stroke-linecap="butt">
      <rect fill="none" x="-111.884" width="100" height="30" y="236.6726" clip-path="url(#clipPath2)"/>
      <text x="-85.2302" xml:space="preserve" y="254.4206" clip-path="url(#clipPath2)" font-family="sans-serif" stroke="none">Scat. PP</text>
      <path fill="none" d="M-61.884 53.8765 L-61.884 122.2746" clip-path="url(#clipPath2)"/>
      <path d="M-61.884 130.2746 L-56.884 118.2746 L-61.884 121.2746 L-66.884 118.2746 Z" clip-path="url(#clipPath2)" stroke="none"/>
      <path fill="none" d="M86.3666 53.8765 L86.3666 145.2746 L-3.884 145.2746" clip-path="url(#clipPath2)"/>
      <path d="M-11.884 145.2746 L0.116 150.2746 L-2.884 145.2746 L0.116 140.2746 Z" clip-path="url(#clipPath2)" stroke="none"/>
      <path fill="none" d="M-61.884 160.2746 L-61.884 228.6726" clip-path="url(#clipPath2)"/>
      <path d="M-61.884 236.6726 L-56.884 224.6726 L-61.884 227.6726 L-66.884 224.6726 Z" clip-path="url(#clipPath2)" stroke="none"/>
    </g>
  </g>
</svg>
