<?xml version="1.0" encoding="UTF-8"?><svg xmlns="http://www.w3.org/2000/svg" xmlns:xlink="http://www.w3.org/1999/xlink" fill-opacity="1" color-rendering="auto" color-interpolation="auto" text-rendering="auto" stroke="black" stroke-linecap="square" width="109" stroke-miterlimit="10" shape-rendering="auto" stroke-opacity="1" fill="black" stroke-dasharray="none" font-weight="normal" stroke-width="1" height="201" font-family="'Dialog'" font-style="normal" stroke-linejoin="miter" font-size="12px" stroke-dashoffset="0" image-rendering="auto">
  <!--Generated by ySVG 2.6-->
  <defs id="genericDefs"/>
  <g>
    <defs id="defs1">
      <clipPath clipPathUnits="userSpaceOnUse" id="clipPath1">
        <path d="M0 0 L109 0 L109 201 L0 201 L0 0 Z"/>
      </clipPath>
      <clipPath clipPathUnits="userSpaceOnUse" id="clipPath2">
        <path d="M-11 -15 L98 -15 L98 186 L-11 186 L-11 -15 Z"/>
      </clipPath>
    </defs>
    <g fill="white" text-rendering="geometricPrecision" shape-rendering="geometricPrecision" transform="translate(11,15)" stroke="white">
      <rect x="-11" width="109" height="201" y="-15" clip-path="url(#clipPath2)" stroke="none"/>
    </g>
    <g fill="rgb(255,204,0)" text-rendering="geometricPrecision" shape-rendering="geometricPrecision" transform="matrix(1,0,0,1,11,15)" stroke="rgb(255,204,0)">
      <rect x="4.3341" width="75.8733" height="30" y="0" clip-path="url(#clipPath2)" stroke="none"/>
    </g>
    <g text-rendering="geometricPrecision" stroke-miterlimit="1.45" shape-rendering="geometricPrecision" transform="matrix(1,0,0,1,11,15)" stroke-linecap="butt">
      <rect fill="none" x="4.3341" width="75.8733" height="30" y="0" clip-path="url(#clipPath2)"/>
      <text x="13.5906" xml:space="preserve" y="17.748" clip-path="url(#clipPath2)" font-family="sans-serif" stroke="none">Absorption</text>
    </g>
    <g fill="rgb(255,204,0)" text-rendering="geometricPrecision" shape-rendering="geometricPrecision" transform="matrix(1,0,0,1,11,15)" stroke="rgb(255,204,0)">
      <rect x="4.3341" width="76.6867" height="30" y="70.5" clip-path="url(#clipPath2)" stroke="none"/>
    </g>
    <g text-rendering="geometricPrecision" stroke-miterlimit="1.45" shape-rendering="geometricPrecision" transform="matrix(1,0,0,1,11,15)" stroke-linecap="butt">
      <rect fill="none" x="4.3341" width="76.6867" height="30" y="70.5" clip-path="url(#clipPath2)"/>
      <text x="6.3412" xml:space="preserve" y="88.248" clip-path="url(#clipPath2)" font-family="sans-serif" stroke="none">Drift-Diffusion</text>
    </g>
    <g fill="rgb(255,204,0)" text-rendering="geometricPrecision" shape-rendering="geometricPrecision" transform="matrix(1,0,0,1,11,15)" stroke="rgb(255,204,0)">
      <rect x="4.3341" width="77.8254" height="30" y="141" clip-path="url(#clipPath2)" stroke="none"/>
    </g>
    <g text-rendering="geometricPrecision" stroke-miterlimit="1.45" shape-rendering="geometricPrecision" transform="matrix(1,0,0,1,11,15)" stroke-linecap="butt">
      <rect fill="none" x="4.3341" width="77.8254" height="30" y="141" clip-path="url(#clipPath2)"/>
      <text x="18.9106" xml:space="preserve" y="158.748" clip-path="url(#clipPath2)" font-family="sans-serif" stroke="none">Emission</text>
      <path fill="none" d="M42.3573 30 L42.5448 62.5001" clip-path="url(#clipPath2)"/>
      <path d="M42.5909 70.5 L47.5216 58.4714 L42.539 61.5001 L37.5218 58.529 Z" clip-path="url(#clipPath2)" stroke="none"/>
      <path fill="none" d="M42.7986 100.5 L43.0611 133.0003" clip-path="url(#clipPath2)"/>
      <path d="M43.1257 141 L48.0286 128.96 L43.053 132.0003 L38.0289 129.0408 Z" clip-path="url(#clipPath2)" stroke="none"/>
    </g>
  </g>
</svg>
