<?xml version="1.0" encoding="UTF-8"?><svg xmlns="http://www.w3.org/2000/svg" xmlns:xlink="http://www.w3.org/1999/xlink" fill-opacity="1" color-rendering="auto" color-interpolation="auto" text-rendering="auto" stroke="black" stroke-linecap="square" width="463" stroke-miterlimit="10" shape-rendering="auto" stroke-opacity="1" fill="black" stroke-dasharray="none" font-weight="normal" stroke-width="1" height="830" font-family="'Dialog'" font-style="normal" stroke-linejoin="miter" font-size="12px" stroke-dashoffset="0" image-rendering="auto">
  <!--Generated by ySVG 2.6-->
  <defs id="genericDefs"/>
  <g>
    <defs id="defs1">
      <clipPath clipPathUnits="userSpaceOnUse" id="clipPath1">
        <path d="M0 0 L463 0 L463 830 L0 830 L0 0 Z"/>
      </clipPath>
      <clipPath clipPathUnits="userSpaceOnUse" id="clipPath2">
        <path d="M-526 -296 L-63 -296 L-63 534 L-526 534 L-526 -296 Z"/>
      </clipPath>
    </defs>
    <g fill="white" text-rendering="geometricPrecision" shape-rendering="geometricPrecision" transform="translate(526,296)" stroke="white">
      <rect x="-526" width="463" height="830" y="-296" clip-path="url(#clipPath2)" stroke="none"/>
    </g>
    <g fill="rgb(255,204,0)" text-rendering="geometricPrecision" shape-rendering="geometricPrecision" transform="matrix(1,0,0,1,526,296)" stroke="rgb(255,204,0)">
      <rect x="-353.884" width="100" height="30" y="-228.3274" clip-path="url(#clipPath2)" stroke="none"/>
    </g>
    <g text-rendering="geometricPrecision" stroke-miterlimit="1.45" shape-rendering="geometricPrecision" transform="matrix(1,0,0,1,526,296)" stroke-linecap="butt">
      <rect fill="none" x="-353.884" width="100" height="30" y="-228.3274" clip-path="url(#clipPath2)"/>
      <text x="-346.9043" xml:space="preserve" y="-210.5794" clip-path="url(#clipPath2)" font-family="sans-serif" stroke="none">Layer Interfaces</text>
    </g>
    <g fill="rgb(255,204,0)" text-rendering="geometricPrecision" shape-rendering="geometricPrecision" transform="matrix(1,0,0,1,526,296)" stroke="rgb(255,204,0)">
      <rect x="-353.884" width="100" height="30" y="-125.6548" clip-path="url(#clipPath2)" stroke="none"/>
    </g>
    <g text-rendering="geometricPrecision" stroke-miterlimit="1.45" shape-rendering="geometricPrecision" transform="matrix(1,0,0,1,526,296)" stroke-linecap="butt">
      <rect fill="none" x="-353.884" width="100" height="30" y="-125.6548" clip-path="url(#clipPath2)"/>
      <text x="-327.2302" xml:space="preserve" y="-107.9068" clip-path="url(#clipPath2)" font-family="sans-serif" stroke="none">Interface</text>
    </g>
    <g fill="rgb(255,204,0)" text-rendering="geometricPrecision" shape-rendering="geometricPrecision" transform="matrix(1,0,0,1,526,296)" stroke="rgb(255,204,0)">
      <rect x="-178.768" width="100" height="30" y="-228.3274" clip-path="url(#clipPath2)" stroke="none"/>
    </g>
    <g text-rendering="geometricPrecision" stroke-miterlimit="1.45" shape-rendering="geometricPrecision" transform="matrix(1,0,0,1,526,296)" stroke-linecap="butt">
      <rect fill="none" x="-178.768" width="100" height="30" y="-228.3274" clip-path="url(#clipPath2)"/>
      <text x="-167.4503" xml:space="preserve" y="-210.5794" clip-path="url(#clipPath2)" font-family="sans-serif" stroke="none">Refractive Ind.</text>
    </g>
    <g fill="rgb(255,204,0)" text-rendering="geometricPrecision" shape-rendering="geometricPrecision" transform="matrix(1,0,0,1,526,296)" stroke="rgb(255,204,0)">
      <rect x="-353.884" width="100" height="30" y="-29.3096" clip-path="url(#clipPath2)" stroke="none"/>
    </g>
    <g text-rendering="geometricPrecision" stroke-miterlimit="1.45" shape-rendering="geometricPrecision" transform="matrix(1,0,0,1,526,296)" stroke-linecap="butt">
      <rect fill="none" x="-353.884" width="100" height="30" y="-29.3096" clip-path="url(#clipPath2)"/>
      <text x="-323.8882" xml:space="preserve" y="-11.5616" clip-path="url(#clipPath2)" font-family="sans-serif" stroke="none">Fresnel</text>
    </g>
    <g fill="rgb(255,204,0)" text-rendering="geometricPrecision" shape-rendering="geometricPrecision" transform="matrix(1,0,0,1,526,296)" stroke="rgb(255,204,0)">
      <rect x="-510.768" width="100" height="30" y="-29.3096" clip-path="url(#clipPath2)" stroke="none"/>
    </g>
    <g text-rendering="geometricPrecision" stroke-miterlimit="1.45" shape-rendering="geometricPrecision" transform="matrix(1,0,0,1,526,296)" stroke-linecap="butt">
      <rect fill="none" x="-510.768" width="100" height="30" y="-29.3096" clip-path="url(#clipPath2)"/>
      <text x="-491.7762" xml:space="preserve" y="-11.5616" clip-path="url(#clipPath2)" font-family="sans-serif" stroke="none">Mie scatter.</text>
    </g>
    <g fill="rgb(255,204,0)" text-rendering="geometricPrecision" shape-rendering="geometricPrecision" transform="matrix(1,0,0,1,526,296)" stroke="rgb(255,204,0)">
      <rect x="-437.348" width="100" height="30" y="67.0356" clip-path="url(#clipPath2)" stroke="none"/>
    </g>
    <g text-rendering="geometricPrecision" stroke-miterlimit="1.45" shape-rendering="geometricPrecision" transform="matrix(1,0,0,1,526,296)" stroke-linecap="butt">
      <rect fill="none" x="-437.348" width="100" height="30" y="67.0356" clip-path="url(#clipPath2)"/>
      <text x="-423.6902" xml:space="preserve" y="78.7836" clip-path="url(#clipPath2)" font-family="sans-serif" stroke="none">Fill Scattering</text>
      <text x="-416.7062" xml:space="preserve" y="90.7836" clip-path="url(#clipPath2)" font-family="sans-serif" stroke="none">&lt;Etendue&gt;</text>
    </g>
    <g fill="rgb(255,204,0)" text-rendering="geometricPrecision" shape-rendering="geometricPrecision" transform="matrix(1,0,0,1,526,296)" stroke="rgb(255,204,0)">
      <rect x="-281.884" width="100" height="30" y="67.0356" clip-path="url(#clipPath2)" stroke="none"/>
    </g>
    <g text-rendering="geometricPrecision" stroke-miterlimit="1.45" shape-rendering="geometricPrecision" transform="matrix(1,0,0,1,526,296)" stroke-linecap="butt">
      <rect fill="none" x="-281.884" width="100" height="30" y="67.0356" clip-path="url(#clipPath2)"/>
      <text x="-268.2263" xml:space="preserve" y="78.7836" clip-path="url(#clipPath2)" font-family="sans-serif" stroke="none">Fill Scattering</text>
      <text x="-277.2443" xml:space="preserve" y="90.7836" clip-path="url(#clipPath2)" font-family="sans-serif" stroke="none">&lt;Sphere Gauss&gt;</text>
    </g>
    <g fill="rgb(255,204,0)" text-rendering="geometricPrecision" shape-rendering="geometricPrecision" transform="matrix(1,0,0,1,526,296)" stroke="rgb(255,204,0)">
      <rect x="-353.884" width="100" height="30" y="169.7082" clip-path="url(#clipPath2)" stroke="none"/>
    </g>
    <g text-rendering="geometricPrecision" stroke-miterlimit="1.45" shape-rendering="geometricPrecision" transform="matrix(1,0,0,1,526,296)" stroke-linecap="butt">
      <rect fill="none" x="-353.884" width="100" height="30" y="169.7082" clip-path="url(#clipPath2)"/>
      <text x="-330.8962" xml:space="preserve" y="187.4562" clip-path="url(#clipPath2)" font-family="sans-serif" stroke="none">Scattering</text>
    </g>
    <g fill="rgb(255,204,0)" text-rendering="geometricPrecision" shape-rendering="geometricPrecision" transform="matrix(1,0,0,1,526,296)" stroke="rgb(255,204,0)">
      <rect x="-353.884" width="100" height="30" y="252.3808" clip-path="url(#clipPath2)" stroke="none"/>
    </g>
    <g text-rendering="geometricPrecision" stroke-miterlimit="1.45" shape-rendering="geometricPrecision" transform="matrix(1,0,0,1,526,296)" stroke-linecap="butt">
      <rect fill="none" x="-353.884" width="100" height="30" y="252.3808" clip-path="url(#clipPath2)"/>
      <text x="-336.2302" xml:space="preserve" y="270.1288" clip-path="url(#clipPath2)" font-family="sans-serif" stroke="none">Netradiation</text>
    </g>
    <g fill="rgb(255,204,0)" text-rendering="geometricPrecision" shape-rendering="geometricPrecision" transform="matrix(1,0,0,1,526,296)" stroke="rgb(255,204,0)">
      <rect x="-483.884" width="100" height="30" y="252.3808" clip-path="url(#clipPath2)" stroke="none"/>
    </g>
    <g text-rendering="geometricPrecision" stroke-miterlimit="1.45" shape-rendering="geometricPrecision" transform="matrix(1,0,0,1,526,296)" stroke-linecap="butt">
      <rect fill="none" x="-483.884" width="100" height="30" y="252.3808" clip-path="url(#clipPath2)"/>
      <text x="-469.8903" xml:space="preserve" y="270.1288" clip-path="url(#clipPath2)" font-family="sans-serif" stroke="none">Discretization</text>
    </g>
    <g fill="rgb(255,204,0)" text-rendering="geometricPrecision" shape-rendering="geometricPrecision" transform="matrix(1,0,0,1,526,296)" stroke="rgb(255,204,0)">
      <rect x="-353.884" width="100" height="30" y="344.7615" clip-path="url(#clipPath2)" stroke="none"/>
    </g>
    <g text-rendering="geometricPrecision" stroke-miterlimit="1.45" shape-rendering="geometricPrecision" transform="matrix(1,0,0,1,526,296)" stroke-linecap="butt">
      <rect fill="none" x="-353.884" width="100" height="30" y="344.7615" clip-path="url(#clipPath2)"/>
      <text x="-332.5642" xml:space="preserve" y="362.5096" clip-path="url(#clipPath2)" font-family="sans-serif" stroke="none">Absorption</text>
    </g>
    <g fill="rgb(255,204,0)" text-rendering="geometricPrecision" shape-rendering="geometricPrecision" transform="matrix(1,0,0,1,526,296)" stroke="rgb(255,204,0)">
      <rect x="-353.884" width="100" height="30" y="416.5231" clip-path="url(#clipPath2)" stroke="none"/>
    </g>
    <g text-rendering="geometricPrecision" stroke-miterlimit="1.45" shape-rendering="geometricPrecision" transform="matrix(1,0,0,1,526,296)" stroke-linecap="butt">
      <rect fill="none" x="-353.884" width="100" height="30" y="416.5231" clip-path="url(#clipPath2)"/>
      <text x="-330.2242" xml:space="preserve" y="434.2711" clip-path="url(#clipPath2)" font-family="sans-serif" stroke="none">Post-Proc</text>
    </g>
    <g fill="rgb(255,204,0)" text-rendering="geometricPrecision" shape-rendering="geometricPrecision" transform="matrix(1,0,0,1,526,296)" stroke="rgb(255,204,0)">
      <rect x="-353.884" width="100" height="30" y="488.2846" clip-path="url(#clipPath2)" stroke="none"/>
    </g>
    <g text-rendering="geometricPrecision" stroke-miterlimit="1.45" shape-rendering="geometricPrecision" transform="matrix(1,0,0,1,526,296)" stroke-linecap="butt">
      <rect fill="none" x="-353.884" width="100" height="30" y="488.2846" clip-path="url(#clipPath2)"/>
      <text x="-337.2202" xml:space="preserve" y="506.0326" clip-path="url(#clipPath2)" font-family="sans-serif" stroke="none">Write results</text>
      <path fill="none" d="M-303.884 -198.3274 L-303.884 -133.6548" clip-path="url(#clipPath2)"/>
      <path d="M-303.884 -125.6548 L-298.884 -137.6548 L-303.884 -134.6548 L-308.884 -137.6548 Z" clip-path="url(#clipPath2)" stroke="none"/>
      <path fill="none" d="M-303.884 -95.6548 L-303.884 -37.3096" clip-path="url(#clipPath2)"/>
      <path d="M-303.884 -29.3096 L-298.884 -41.3096 L-303.884 -38.3096 L-308.884 -41.3096 Z" clip-path="url(#clipPath2)" stroke="none"/>
      <path fill="none" d="M-128.768 -198.3274 L-128.768 -14.3096 L-245.884 -14.3096" clip-path="url(#clipPath2)"/>
      <path d="M-253.884 -14.3096 L-241.884 -9.3096 L-244.884 -14.3096 L-241.884 -19.3096 Z" clip-path="url(#clipPath2)" stroke="none"/>
      <path fill="none" d="M-353.884 -110.6548 L-460.768 -110.6548 L-460.768 -37.3096" clip-path="url(#clipPath2)"/>
      <path d="M-460.768 -29.3096 L-455.768 -41.3096 L-460.768 -38.3096 L-465.768 -41.3096 Z" clip-path="url(#clipPath2)" stroke="none"/>
      <path fill="none" d="M-128.768 -228.3274 L-128.768 -280.5 L-460.768 -280.5 L-460.768 -37.3096" clip-path="url(#clipPath2)"/>
      <path d="M-460.768 -29.3096 L-455.768 -41.3096 L-460.768 -38.3096 L-465.768 -41.3096 Z" clip-path="url(#clipPath2)" stroke="none"/>
      <path fill="none" d="M-387.348 97.0356 L-387.348 184.7082 L-361.884 184.7082" clip-path="url(#clipPath2)"/>
      <path d="M-353.884 184.7082 L-365.884 179.7082 L-362.884 184.7082 L-365.884 189.7082 Z" clip-path="url(#clipPath2)" stroke="none"/>
      <path fill="none" d="M-231.884 97.0356 L-231.884 184.7082 L-245.884 184.7082" clip-path="url(#clipPath2)"/>
      <path d="M-253.884 184.7082 L-241.884 189.7082 L-244.884 184.7082 L-241.884 179.7082 Z" clip-path="url(#clipPath2)" stroke="none"/>
      <path fill="none" d="M-460.768 0.6904 L-460.768 184.7082 L-361.884 184.7082" clip-path="url(#clipPath2)"/>
      <path d="M-353.884 184.7082 L-365.884 179.7082 L-362.884 184.7082 L-365.884 189.7082 Z" clip-path="url(#clipPath2)" stroke="none"/>
      <path fill="none" d="M-303.884 199.7082 L-303.884 244.3808" clip-path="url(#clipPath2)"/>
      <path d="M-303.884 252.3808 L-298.884 240.3808 L-303.884 243.3808 L-308.884 240.3808 Z" clip-path="url(#clipPath2)" stroke="none"/>
      <path fill="none" d="M-303.884 0.6904 L-303.884 33.5 L-123.5 33.5 L-123.5 267.3808 L-245.884 267.3808" clip-path="url(#clipPath2)"/>
      <path d="M-253.884 267.3808 L-241.884 272.3808 L-244.884 267.3808 L-241.884 262.3808 Z" clip-path="url(#clipPath2)" stroke="none"/>
      <path fill="none" d="M-433.884 282.3808 L-433.884 359.7615 L-361.884 359.7615" clip-path="url(#clipPath2)"/>
      <path d="M-353.884 359.7615 L-365.884 354.7615 L-362.884 359.7615 L-365.884 364.7615 Z" clip-path="url(#clipPath2)" stroke="none"/>
      <path fill="none" d="M-303.884 282.3808 L-303.884 336.7615" clip-path="url(#clipPath2)"/>
      <path d="M-303.884 344.7615 L-298.884 332.7615 L-303.884 335.7615 L-308.884 332.7615 Z" clip-path="url(#clipPath2)" stroke="none"/>
      <path fill="none" d="M-303.884 374.7615 L-303.884 408.5231" clip-path="url(#clipPath2)"/>
      <path d="M-303.884 416.5231 L-298.884 404.5231 L-303.884 407.5231 L-308.884 404.5231 Z" clip-path="url(#clipPath2)" stroke="none"/>
      <path fill="none" d="M-303.884 446.5231 L-303.884 480.2846" clip-path="url(#clipPath2)"/>
      <path d="M-303.884 488.2846 L-298.884 476.2846 L-303.884 479.2846 L-308.884 476.2846 Z" clip-path="url(#clipPath2)" stroke="none"/>
    </g>
  </g>
</svg>
