<?xml version="1.0" encoding="UTF-8"?><svg xmlns="http://www.w3.org/2000/svg" xmlns:xlink="http://www.w3.org/1999/xlink" fill-opacity="1" color-rendering="auto" color-interpolation="auto" text-rendering="auto" stroke="black" stroke-linecap="square" width="417" stroke-miterlimit="10" shape-rendering="auto" stroke-opacity="1" fill="black" stroke-dasharray="none" font-weight="normal" stroke-width="1" height="394" font-family="'Dialog'" font-style="normal" stroke-linejoin="miter" font-size="12px" stroke-dashoffset="0" image-rendering="auto">
  <!--Generated by ySVG 2.6-->
  <defs id="genericDefs"/>
  <g>
    <defs id="defs1">
      <clipPath clipPathUnits="userSpaceOnUse" id="clipPath1">
        <path d="M0 0 L417 0 L417 394 L0 394 L0 0 Z"/>
      </clipPath>
      <clipPath clipPathUnits="userSpaceOnUse" id="clipPath2">
        <path d="M-279 -227 L138 -227 L138 167 L-279 167 L-279 -227 Z"/>
      </clipPath>
      <clipPath clipPathUnits="userSpaceOnUse" id="clipPath3">
        <path d="M103.1455 -18.389 L103.1455 398.611 L-290.8545 398.611 L-290.8545 -18.389 L103.1455 -18.389 Z"/>
      </clipPath>
      <clipPath clipPathUnits="userSpaceOnUse" id="clipPath4">
        <path d="M169.7788 -18.389 L169.7788 398.611 L-224.2212 398.611 L-224.2212 -18.389 L169.7788 -18.389 Z"/>
      </clipPath>
      <clipPath clipPathUnits="userSpaceOnUse" id="clipPath5">
        <path d="M301.8175 -21.069 L301.8175 395.931 L-92.1825 395.931 L-92.1825 -21.069 L301.8175 -21.069 Z"/>
      </clipPath>
      <clipPath clipPathUnits="userSpaceOnUse" id="clipPath6">
        <path d="M368.4508 -21.069 L368.4508 395.931 L-25.5492 395.931 L-25.5492 -21.069 L368.4508 -21.069 Z"/>
      </clipPath>
    </defs>
    <g fill="white" text-rendering="geometricPrecision" shape-rendering="geometricPrecision" transform="translate(279,227)" stroke="white">
      <rect x="-279" width="417" height="394" y="-227" clip-path="url(#clipPath2)" stroke="none"/>
    </g>
    <g fill="rgb(236,245,255)" text-rendering="geometricPrecision" shape-rendering="geometricPrecision" transform="matrix(1,0,0,1,279,227)" stroke="rgb(236,245,255)">
      <path d="M-263.611 -211.8667 L-263.611 -181.8667 L122.117 -181.8667 L122.117 -211.8667 Z" stroke="none" clip-path="url(#clipPath2)"/>
      <rect x="-263.611" width="385.728" height="133.2667" y="-181.8667" clip-path="url(#clipPath2)" stroke="none"/>
      <line clip-path="url(#clipPath2)" fill="rgb(113,146,178)" x1="-239.611" x2="122.117" y1="-181.8667" y2="-181.8667" stroke="none"/>
      <rect x="-263.611" y="-181.8667" clip-path="url(#clipPath2)" fill="rgb(196,215,237)" width="24" height="64" stroke="none"/>
      <rect x="-239.611" y="-181.8667" clip-path="url(#clipPath2)" fill="rgb(196,215,237)" width="361.728" height="64" stroke="none"/>
      <rect x="-263.611" y="-117.8667" clip-path="url(#clipPath2)" fill="rgb(171,200,226)" width="24" height="69.2667" stroke="none"/>
      <rect x="-239.611" y="-117.8667" clip-path="url(#clipPath2)" fill="rgb(171,200,226)" width="361.728" height="69.2667" stroke="none"/>
    </g>
    <g text-rendering="geometricPrecision" stroke-miterlimit="1.45" shape-rendering="geometricPrecision" transform="matrix(1,0,0,1,279,227)" stroke-linecap="butt">
      <rect fill="none" x="-263.611" width="385.728" height="163.2667" y="-211.8667" clip-path="url(#clipPath2)"/>
      <rect fill="none" x="-239.611" width="361.728" height="133.2667" y="-181.8667" clip-path="url(#clipPath2)"/>
      <rect fill="none" x="-263.611" width="385.728" height="64" y="-181.8667" clip-path="url(#clipPath2)"/>
      <rect fill="none" x="-263.611" width="385.728" height="69.2667" y="-117.8667" clip-path="url(#clipPath2)"/>
    </g>
    <g font-size="15px" stroke-linecap="butt" transform="matrix(1,0,0,1,279,227)" text-rendering="geometricPrecision" font-family="sans-serif" shape-rendering="geometricPrecision" stroke-miterlimit="1.45">
      <text x="-93.2547" xml:space="preserve" y="-194.9316" clip-path="url(#clipPath2)" stroke="none">Core 1</text>
    </g>
    <g text-rendering="geometricPrecision" stroke-miterlimit="1.45" shape-rendering="geometricPrecision" font-family="sans-serif" transform="matrix(-0,-1,1,-0,18.389,103.1455)" stroke-linecap="butt">
      <text x="2" xml:space="preserve" y="10.7481" clip-path="url(#clipPath3)" stroke="none">Thread 0</text>
    </g>
    <g text-rendering="geometricPrecision" stroke-miterlimit="1.45" shape-rendering="geometricPrecision" font-family="sans-serif" transform="matrix(-0,-1,1,-0,18.389,169.7788)" stroke-linecap="butt">
      <text x="2" xml:space="preserve" y="10.7481" clip-path="url(#clipPath4)" stroke="none">Thread 1</text>
    </g>
    <g fill="rgb(255,204,0)" text-rendering="geometricPrecision" shape-rendering="geometricPrecision" transform="matrix(1,0,0,1,279,227)" stroke="rgb(255,204,0)">
      <rect x="-214.8" width="60" height="30" y="-167.2667" clip-path="url(#clipPath2)" stroke="none"/>
    </g>
    <g text-rendering="geometricPrecision" stroke-miterlimit="1.45" shape-rendering="geometricPrecision" transform="matrix(1,0,0,1,279,227)" stroke-linecap="butt">
      <rect fill="none" x="-214.8" width="60" height="30" y="-167.2667" clip-path="url(#clipPath2)"/>
      <text x="-209.8082" xml:space="preserve" y="-149.5186" clip-path="url(#clipPath2)" font-family="sans-serif" stroke="none">Fresnel 1</text>
    </g>
    <g fill="rgb(255,204,0)" text-rendering="geometricPrecision" shape-rendering="geometricPrecision" transform="matrix(1,0,0,1,279,227)" stroke="rgb(255,204,0)">
      <rect x="-102.672" width="60" height="30" y="-167.2667" clip-path="url(#clipPath2)" stroke="none"/>
    </g>
    <g text-rendering="geometricPrecision" stroke-miterlimit="1.45" shape-rendering="geometricPrecision" transform="matrix(1,0,0,1,279,227)" stroke-linecap="butt">
      <rect fill="none" x="-102.672" width="60" height="30" y="-167.2667" clip-path="url(#clipPath2)"/>
      <text x="-90.3481" xml:space="preserve" y="-149.5186" clip-path="url(#clipPath2)" font-family="sans-serif" stroke="none">Scat A</text>
    </g>
    <g fill="rgb(255,204,0)" text-rendering="geometricPrecision" shape-rendering="geometricPrecision" transform="matrix(1,0,0,1,279,227)" stroke="rgb(255,204,0)">
      <rect x="15.056" width="60" height="30" y="-167.2667" clip-path="url(#clipPath2)" stroke="none"/>
    </g>
    <g text-rendering="geometricPrecision" stroke-miterlimit="1.45" shape-rendering="geometricPrecision" transform="matrix(1,0,0,1,279,227)" stroke-linecap="butt">
      <rect fill="none" x="15.056" width="60" height="30" y="-167.2667" clip-path="url(#clipPath2)"/>
      <text x="26.7139" xml:space="preserve" y="-149.5186" clip-path="url(#clipPath2)" font-family="sans-serif" stroke="none">Net A1</text>
    </g>
    <g fill="rgb(255,204,0)" text-rendering="geometricPrecision" shape-rendering="geometricPrecision" transform="matrix(1,0,0,1,279,227)" stroke="rgb(255,204,0)">
      <rect x="15.056" width="60" height="30" y="-98.6" clip-path="url(#clipPath2)" stroke="none"/>
    </g>
    <g text-rendering="geometricPrecision" stroke-miterlimit="1.45" shape-rendering="geometricPrecision" transform="matrix(1,0,0,1,279,227)" stroke-linecap="butt">
      <rect fill="none" x="15.056" width="60" height="30" y="-98.6" clip-path="url(#clipPath2)"/>
      <text x="26.7139" xml:space="preserve" y="-80.852" clip-path="url(#clipPath2)" font-family="sans-serif" stroke="none">Net A2</text>
      <path fill="none" d="M-154.8 -152.2667 L-110.672 -152.2667" clip-path="url(#clipPath2)"/>
      <path d="M-102.672 -152.2667 L-114.672 -157.2667 L-111.672 -152.2667 L-114.672 -147.2667 Z" clip-path="url(#clipPath2)" stroke="none"/>
      <path fill="none" d="M-42.672 -152.2667 L7.056 -152.2667" clip-path="url(#clipPath2)"/>
      <path d="M15.056 -152.2667 L3.056 -157.2667 L6.056 -152.2667 L3.056 -147.2667 Z" clip-path="url(#clipPath2)" stroke="none"/>
      <path fill="none" d="M-72.672 -137.2667 L-72.672 -83.6 L7.056 -83.6" clip-path="url(#clipPath2)"/>
      <path d="M15.056 -83.6 L3.056 -88.6 L6.056 -83.6 L3.056 -78.6 Z" clip-path="url(#clipPath2)" stroke="none"/>
    </g>
    <g fill="rgb(236,245,255)" text-rendering="geometricPrecision" shape-rendering="geometricPrecision" transform="matrix(1,0,0,1,279,227)" stroke="rgb(236,245,255)">
      <path d="M-260.931 -11.8667 L-260.931 18.1333 L122.117 18.1333 L122.117 -11.8667 Z" stroke="none" clip-path="url(#clipPath2)"/>
      <rect x="-260.931" width="383.048" height="133.2667" y="18.1333" clip-path="url(#clipPath2)" stroke="none"/>
      <line clip-path="url(#clipPath2)" fill="rgb(113,146,178)" x1="-236.931" x2="122.117" y1="18.1333" y2="18.1333" stroke="none"/>
      <rect x="-260.931" y="18.1333" clip-path="url(#clipPath2)" fill="rgb(196,215,237)" width="24" height="61.344" stroke="none"/>
      <rect x="-236.931" y="18.1333" clip-path="url(#clipPath2)" fill="rgb(196,215,237)" width="359.048" height="61.344" stroke="none"/>
      <rect x="-260.931" y="79.4773" clip-path="url(#clipPath2)" fill="rgb(171,200,226)" width="24" height="71.9227" stroke="none"/>
      <rect x="-236.931" y="79.4773" clip-path="url(#clipPath2)" fill="rgb(171,200,226)" width="359.048" height="71.9227" stroke="none"/>
    </g>
    <g text-rendering="geometricPrecision" stroke-miterlimit="1.45" shape-rendering="geometricPrecision" transform="matrix(1,0,0,1,279,227)" stroke-linecap="butt">
      <rect fill="none" x="-260.931" width="383.048" height="163.2667" y="-11.8667" clip-path="url(#clipPath2)"/>
      <rect fill="none" x="-236.931" width="359.048" height="133.2667" y="18.1333" clip-path="url(#clipPath2)"/>
      <rect fill="none" x="-260.931" width="383.048" height="61.344" y="18.1333" clip-path="url(#clipPath2)"/>
      <rect fill="none" x="-260.931" width="383.048" height="71.9227" y="79.4773" clip-path="url(#clipPath2)"/>
    </g>
    <g font-size="15px" stroke-linecap="butt" transform="matrix(1,0,0,1,279,227)" text-rendering="geometricPrecision" font-family="sans-serif" shape-rendering="geometricPrecision" stroke-miterlimit="1.45">
      <text x="-91.9147" xml:space="preserve" y="5.0684" clip-path="url(#clipPath2)" stroke="none">Core 2</text>
    </g>
    <g text-rendering="geometricPrecision" stroke-miterlimit="1.45" shape-rendering="geometricPrecision" font-family="sans-serif" transform="matrix(-0,-1,1,-0,21.069,301.8175)" stroke-linecap="butt">
      <text x="2" xml:space="preserve" y="10.7481" clip-path="url(#clipPath5)" stroke="none">Thread 3</text>
    </g>
    <g text-rendering="geometricPrecision" stroke-miterlimit="1.45" shape-rendering="geometricPrecision" font-family="sans-serif" transform="matrix(-0,-1,1,-0,21.069,368.4508)" stroke-linecap="butt">
      <text x="2" xml:space="preserve" y="10.7481" clip-path="url(#clipPath6)" stroke="none">Thread 4</text>
    </g>
    <g fill="rgb(255,204,0)" text-rendering="geometricPrecision" shape-rendering="geometricPrecision" transform="matrix(1,0,0,1,279,227)" stroke="rgb(255,204,0)">
      <rect x="-211.056" width="60" height="30" y="32.7333" clip-path="url(#clipPath2)" stroke="none"/>
    </g>
    <g text-rendering="geometricPrecision" stroke-miterlimit="1.45" shape-rendering="geometricPrecision" transform="matrix(1,0,0,1,279,227)" stroke-linecap="butt">
      <rect fill="none" x="-211.056" width="60" height="30" y="32.7333" clip-path="url(#clipPath2)"/>
      <text x="-206.0642" xml:space="preserve" y="50.4814" clip-path="url(#clipPath2)" font-family="sans-serif" stroke="none">Fresnel 2</text>
    </g>
    <g fill="rgb(255,204,0)" text-rendering="geometricPrecision" shape-rendering="geometricPrecision" transform="matrix(1,0,0,1,279,227)" stroke="rgb(255,204,0)">
      <rect x="-99.728" width="60" height="30" y="32.7333" clip-path="url(#clipPath2)" stroke="none"/>
    </g>
    <g text-rendering="geometricPrecision" stroke-miterlimit="1.45" shape-rendering="geometricPrecision" transform="matrix(1,0,0,1,279,227)" stroke-linecap="butt">
      <rect fill="none" x="-99.728" width="60" height="30" y="32.7333" clip-path="url(#clipPath2)"/>
      <text x="-87.4041" xml:space="preserve" y="50.4814" clip-path="url(#clipPath2)" font-family="sans-serif" stroke="none">Scat B</text>
    </g>
    <g fill="rgb(255,204,0)" text-rendering="geometricPrecision" shape-rendering="geometricPrecision" transform="matrix(1,0,0,1,279,227)" stroke="rgb(255,204,0)">
      <rect x="18" width="60" height="30" y="32.7333" clip-path="url(#clipPath2)" stroke="none"/>
    </g>
    <g text-rendering="geometricPrecision" stroke-miterlimit="1.45" shape-rendering="geometricPrecision" transform="matrix(1,0,0,1,279,227)" stroke-linecap="butt">
      <rect fill="none" x="18" width="60" height="30" y="32.7333" clip-path="url(#clipPath2)"/>
      <text x="29.6579" xml:space="preserve" y="50.4814" clip-path="url(#clipPath2)" font-family="sans-serif" stroke="none">Net B1</text>
    </g>
    <g fill="rgb(255,204,0)" text-rendering="geometricPrecision" shape-rendering="geometricPrecision" transform="matrix(1,0,0,1,279,227)" stroke="rgb(255,204,0)">
      <rect x="18" width="60" height="30" y="101.4" clip-path="url(#clipPath2)" stroke="none"/>
    </g>
    <g text-rendering="geometricPrecision" stroke-miterlimit="1.45" shape-rendering="geometricPrecision" transform="matrix(1,0,0,1,279,227)" stroke-linecap="butt">
      <rect fill="none" x="18" width="60" height="30" y="101.4" clip-path="url(#clipPath2)"/>
      <text x="29.6579" xml:space="preserve" y="119.148" clip-path="url(#clipPath2)" font-family="sans-serif" stroke="none">Net B2</text>
      <path fill="none" d="M-151.056 47.7333 L-107.728 47.7333" clip-path="url(#clipPath2)"/>
      <path d="M-99.728 47.7333 L-111.728 42.7333 L-108.728 47.7333 L-111.728 52.7333 Z" clip-path="url(#clipPath2)" stroke="none"/>
      <path fill="none" d="M-39.728 47.7333 L10 47.7333" clip-path="url(#clipPath2)"/>
      <path d="M18 47.7333 L6 42.7333 L9 47.7333 L6 52.7333 Z" clip-path="url(#clipPath2)" stroke="none"/>
      <path fill="none" d="M-69.728 62.7333 L-69.728 116.4 L10 116.4" clip-path="url(#clipPath2)"/>
      <path d="M18 116.4 L6 111.4 L9 116.4 L6 121.4 Z" clip-path="url(#clipPath2)" stroke="none"/>
    </g>
  </g>
</svg>
