<?xml version="1.0" encoding="UTF-8"?><svg xmlns="http://www.w3.org/2000/svg" xmlns:xlink="http://www.w3.org/1999/xlink" fill-opacity="1" color-rendering="auto" color-interpolation="auto" text-rendering="auto" stroke="black" stroke-linecap="square" width="545" stroke-miterlimit="10" shape-rendering="auto" stroke-opacity="1" fill="black" stroke-dasharray="none" font-weight="normal" stroke-width="1" height="285" font-family="'Dialog'" font-style="normal" stroke-linejoin="miter" font-size="12px" stroke-dashoffset="0" image-rendering="auto">
  <!--Generated by ySVG 2.6-->
  <defs id="genericDefs"/>
  <g>
    <defs id="defs1">
      <clipPath clipPathUnits="userSpaceOnUse" id="clipPath1">
        <path d="M0 0 L545 0 L545 285 L0 285 L0 0 Z"/>
      </clipPath>
      <clipPath clipPathUnits="userSpaceOnUse" id="clipPath2">
        <path d="M-127 8 L418 8 L418 293 L-127 293 L-127 8 Z"/>
      </clipPath>
    </defs>
    <g fill="white" text-rendering="geometricPrecision" shape-rendering="geometricPrecision" transform="translate(127,-8)" stroke="white">
      <rect x="-127" width="545" height="285" y="8" clip-path="url(#clipPath2)" stroke="none"/>
    </g>
    <g fill="rgb(153,204,0)" text-rendering="geometricPrecision" shape-rendering="geometricPrecision" transform="matrix(1,0,0,1,127,-8)" stroke="rgb(153,204,0)">
      <rect x="302.4919" width="100" height="30" y="127.2147" clip-path="url(#clipPath2)" stroke="none"/>
    </g>
    <g text-rendering="geometricPrecision" stroke-miterlimit="1.45" shape-rendering="geometricPrecision" transform="matrix(1,0,0,1,127,-8)" stroke-linecap="butt">
      <rect fill="none" x="302.4919" width="100" height="30" y="127.2147" clip-path="url(#clipPath2)"/>
      <text x="311.1396" xml:space="preserve" y="144.9627" clip-path="url(#clipPath2)" font-family="sans-serif" stroke="none">Netradiation B2</text>
    </g>
    <g fill="rgb(153,204,0)" text-rendering="geometricPrecision" shape-rendering="geometricPrecision" transform="matrix(1,0,0,1,127,-8)" stroke="rgb(153,204,0)">
      <rect x="26.2413" width="100" height="30" y="127.2147" clip-path="url(#clipPath2)" stroke="none"/>
    </g>
    <g text-rendering="geometricPrecision" stroke-miterlimit="1.45" shape-rendering="geometricPrecision" transform="matrix(1,0,0,1,127,-8)" stroke-linecap="butt">
      <rect fill="none" x="26.2413" width="100" height="30" y="127.2147" clip-path="url(#clipPath2)"/>
      <text x="34.889" xml:space="preserve" y="144.9627" clip-path="url(#clipPath2)" font-family="sans-serif" stroke="none">Netradiation A2</text>
    </g>
    <g fill="rgb(255,153,0)" text-rendering="geometricPrecision" shape-rendering="geometricPrecision" transform="matrix(1,0,0,1,127,-8)" stroke="rgb(255,153,0)">
      <rect x="164.3666" width="100" height="30" y="127.2147" clip-path="url(#clipPath2)" stroke="none"/>
    </g>
    <g text-rendering="geometricPrecision" stroke-miterlimit="1.45" shape-rendering="geometricPrecision" transform="matrix(1,0,0,1,127,-8)" stroke-linecap="butt">
      <rect fill="none" x="164.3666" width="100" height="30" y="127.2147" clip-path="url(#clipPath2)"/>
      <text x="173.0143" xml:space="preserve" y="144.9627" clip-path="url(#clipPath2)" font-family="sans-serif" stroke="none">Netradiation B1</text>
    </g>
    <g fill="rgb(153,204,0)" text-rendering="geometricPrecision" shape-rendering="geometricPrecision" transform="matrix(1,0,0,1,127,-8)" stroke="rgb(153,204,0)">
      <rect x="-111.884" width="100" height="30" y="130.2746" clip-path="url(#clipPath2)" stroke="none"/>
    </g>
    <g text-rendering="geometricPrecision" stroke-miterlimit="1.45" shape-rendering="geometricPrecision" transform="matrix(1,0,0,1,127,-8)" stroke-linecap="butt">
      <rect fill="none" x="-111.884" width="100" height="30" y="130.2746" clip-path="url(#clipPath2)"/>
      <text x="-103.2363" xml:space="preserve" y="148.0226" clip-path="url(#clipPath2)" font-family="sans-serif" stroke="none">Netradiation A1</text>
    </g>
    <g fill="rgb(153,204,0)" text-rendering="geometricPrecision" shape-rendering="geometricPrecision" transform="matrix(1,0,0,1,127,-8)" stroke="rgb(153,204,0)">
      <rect x="302.4919" width="100" height="30" y="23.8765" clip-path="url(#clipPath2)" stroke="none"/>
    </g>
    <g text-rendering="geometricPrecision" stroke-miterlimit="1.45" shape-rendering="geometricPrecision" transform="matrix(1,0,0,1,127,-8)" stroke-linecap="butt">
      <rect fill="none" x="302.4919" width="100" height="30" y="23.8765" clip-path="url(#clipPath2)"/>
      <text x="327.4837" xml:space="preserve" y="41.6245" clip-path="url(#clipPath2)" font-family="sans-serif" stroke="none">Fresnel 2</text>
    </g>
    <g fill="rgb(153,204,0)" text-rendering="geometricPrecision" shape-rendering="geometricPrecision" transform="matrix(1,0,0,1,127,-8)" stroke="rgb(153,204,0)">
      <rect x="26.2413" width="100" height="30" y="23.8765" clip-path="url(#clipPath2)" stroke="none"/>
    </g>
    <g text-rendering="geometricPrecision" stroke-miterlimit="1.45" shape-rendering="geometricPrecision" transform="matrix(1,0,0,1,127,-8)" stroke-linecap="butt">
      <rect fill="none" x="26.2413" width="100" height="30" y="23.8765" clip-path="url(#clipPath2)"/>
      <text x="43.559" xml:space="preserve" y="41.6245" clip-path="url(#clipPath2)" font-family="sans-serif" stroke="none">Scattering B</text>
    </g>
    <g fill="rgb(153,204,0)" text-rendering="geometricPrecision" shape-rendering="geometricPrecision" transform="matrix(1,0,0,1,127,-8)" stroke="rgb(153,204,0)">
      <rect x="-111.884" width="100" height="30" y="23.8765" clip-path="url(#clipPath2)" stroke="none"/>
    </g>
    <g text-rendering="geometricPrecision" stroke-miterlimit="1.45" shape-rendering="geometricPrecision" transform="matrix(1,0,0,1,127,-8)" stroke-linecap="butt">
      <rect fill="none" x="-111.884" width="100" height="30" y="23.8765" clip-path="url(#clipPath2)"/>
      <text x="-94.5662" xml:space="preserve" y="41.6245" clip-path="url(#clipPath2)" font-family="sans-serif" stroke="none">Scattering A</text>
    </g>
    <g fill="rgb(153,204,0)" text-rendering="geometricPrecision" shape-rendering="geometricPrecision" transform="matrix(1,0,0,1,127,-8)" stroke="rgb(153,204,0)">
      <rect x="164.3666" width="100" height="30" y="23.8765" clip-path="url(#clipPath2)" stroke="none"/>
    </g>
    <g text-rendering="geometricPrecision" stroke-miterlimit="1.45" shape-rendering="geometricPrecision" transform="matrix(1,0,0,1,127,-8)" stroke-linecap="butt">
      <rect fill="none" x="164.3666" width="100" height="30" y="23.8765" clip-path="url(#clipPath2)"/>
      <text x="189.3584" xml:space="preserve" y="41.6245" clip-path="url(#clipPath2)" font-family="sans-serif" stroke="none">Fresnel 1</text>
    </g>
    <g fill="rgb(0,204,255)" text-rendering="geometricPrecision" shape-rendering="geometricPrecision" transform="matrix(1,0,0,1,127,-8)" stroke="rgb(0,204,255)">
      <rect x="2.8454" width="100" height="30" y="247.0524" clip-path="url(#clipPath2)" stroke="none"/>
    </g>
    <g text-rendering="geometricPrecision" stroke-miterlimit="1.45" shape-rendering="geometricPrecision" transform="matrix(1,0,0,1,127,-8)" stroke-linecap="butt">
      <rect fill="none" x="2.8454" width="100" height="30" y="247.0524" clip-path="url(#clipPath2)"/>
      <text x="13.1552" xml:space="preserve" y="264.8004" clip-path="url(#clipPath2)" font-family="sans-serif" stroke="none">Scat. PP A1B1</text>
    </g>
    <g fill="rgb(255,153,0)" text-rendering="geometricPrecision" shape-rendering="geometricPrecision" transform="matrix(1,0,0,1,127,-8)" stroke="rgb(255,153,0)">
      <rect x="230.8873" width="100" height="30" y="241.5445" clip-path="url(#clipPath2)" stroke="none"/>
    </g>
    <g text-rendering="geometricPrecision" stroke-miterlimit="1.45" shape-rendering="geometricPrecision" transform="matrix(1,0,0,1,127,-8)" stroke-linecap="butt">
      <rect fill="none" x="230.8873" width="100" height="30" y="241.5445" clip-path="url(#clipPath2)"/>
      <text x="241.197" xml:space="preserve" y="259.2925" clip-path="url(#clipPath2)" font-family="sans-serif" stroke="none">Scat. PP A2B2</text>
      <path fill="none" d="M312.3929 53.8765 L123.8332 124.4118" clip-path="url(#clipPath2)"/>
      <path d="M116.3403 127.2147 L129.3315 127.6934 L124.7698 124.0614 L125.8279 118.3272 Z" clip-path="url(#clipPath2)" stroke="none"/>
      <path fill="none" d="M352.4919 53.8765 L352.4919 119.2147" clip-path="url(#clipPath2)"/>
      <path d="M352.4919 127.2147 L357.4919 115.2147 L352.4919 118.2147 L347.4919 115.2147 Z" clip-path="url(#clipPath2)" stroke="none"/>
      <path fill="none" d="M96.2908 53.8765 L187.9114 122.4222" clip-path="url(#clipPath2)"/>
      <path d="M194.3171 127.2147 L187.7038 116.0225 L187.1107 121.8232 L181.7133 124.0296 Z" clip-path="url(#clipPath2)" stroke="none"/>
      <path fill="none" d="M116.3403 53.8765 L304.8999 124.4118" clip-path="url(#clipPath2)"/>
      <path d="M312.3929 127.2147 L302.9053 118.3272 L303.9633 124.0614 L299.4017 127.6934 Z" clip-path="url(#clipPath2)" stroke="none"/>
      <path fill="none" d="M-61.884 53.8765 L-61.884 122.2746" clip-path="url(#clipPath2)"/>
      <path d="M-61.884 130.2746 L-56.884 118.2746 L-61.884 121.2746 L-66.884 118.2746 Z" clip-path="url(#clipPath2)" stroke="none"/>
      <path fill="none" d="M-41.8345 53.8765 L49.7861 122.4222" clip-path="url(#clipPath2)"/>
      <path d="M56.1918 127.2147 L49.5785 116.0225 L48.9854 121.8232 L43.588 124.0296 Z" clip-path="url(#clipPath2)" stroke="none"/>
      <path fill="none" d="M175.4208 53.8765 L-15.4728 127.3992" clip-path="url(#clipPath2)"/>
      <path d="M-22.9382 130.2746 L-9.943 130.6275 L-14.5396 127.0398 L-13.5371 121.2957 Z" clip-path="url(#clipPath2)" stroke="none"/>
      <path fill="none" d="M214.3666 53.8765 L214.3666 119.2147" clip-path="url(#clipPath2)"/>
      <path d="M214.3666 127.2147 L219.3666 115.2147 L214.3666 118.2147 L209.3666 115.2147 Z" clip-path="url(#clipPath2)" stroke="none"/>
      <path fill="none" d="M-47.1471 160.2746 L32.502 241.3457" clip-path="url(#clipPath2)"/>
      <path d="M38.1086 247.0524 L33.2654 234.9882 L31.8011 240.6323 L26.132 241.9964 Z" clip-path="url(#clipPath2)" stroke="none"/>
      <path fill="none" d="M194.1491 157.2147 L79.4877 242.2856" clip-path="url(#clipPath2)"/>
      <path d="M73.0629 247.0524 L85.6793 243.9177 L80.2908 241.6898 L79.7209 235.8867 Z" clip-path="url(#clipPath2)" stroke="none"/>
      <path fill="none" d="M103.0907 157.2147 L247.0539 237.6428" clip-path="url(#clipPath2)"/>
      <path d="M254.0379 241.5445 L246.0005 231.3269 L246.1809 237.155 L241.1233 240.0569 Z" clip-path="url(#clipPath2)" stroke="none"/>
      <path fill="none" d="M343.0974 157.2147 L294.5281 234.7645" clip-path="url(#clipPath2)"/>
      <path d="M290.2817 241.5445 L300.8888 234.0284 L295.0589 233.917 L292.4137 228.7205 Z" clip-path="url(#clipPath2)" stroke="none"/>
    </g>
  </g>
</svg>
