<?xml version="1.0" encoding="UTF-8"?><svg xmlns="http://www.w3.org/2000/svg" xmlns:xlink="http://www.w3.org/1999/xlink" fill-opacity="1" color-rendering="auto" color-interpolation="auto" text-rendering="auto" stroke="black" stroke-linecap="square" width="210" stroke-miterlimit="10" shape-rendering="auto" stroke-opacity="1" fill="black" stroke-dasharray="none" font-weight="normal" stroke-width="1" height="201" font-family="'Dialog'" font-style="normal" stroke-linejoin="miter" font-size="12px" stroke-dashoffset="0" image-rendering="auto">
  <!--Generated by ySVG 2.6-->
  <defs id="genericDefs"/>
  <g>
    <defs id="defs1">
      <clipPath clipPathUnits="userSpaceOnUse" id="clipPath1">
        <path d="M0 0 L210 0 L210 201 L0 201 L0 0 Z"/>
      </clipPath>
      <clipPath clipPathUnits="userSpaceOnUse" id="clipPath2">
        <path d="M-15 -15 L195 -15 L195 186 L-15 186 L-15 -15 Z"/>
      </clipPath>
    </defs>
    <g fill="white" text-rendering="geometricPrecision" shape-rendering="geometricPrecision" transform="translate(15,15)" stroke="white">
      <rect x="-15" width="210" height="201" y="-15" clip-path="url(#clipPath2)" stroke="none"/>
    </g>
    <g fill="rgb(255,204,0)" text-rendering="geometricPrecision" shape-rendering="geometricPrecision" transform="matrix(1,0,0,1,15,15)" stroke="rgb(255,204,0)">
      <rect x="75" width="30" height="30" y="0" clip-path="url(#clipPath2)" stroke="none"/>
    </g>
    <g text-rendering="geometricPrecision" stroke-miterlimit="1.45" shape-rendering="geometricPrecision" transform="matrix(1,0,0,1,15,15)" stroke-linecap="butt">
      <rect fill="none" x="75" width="30" height="30" y="0" clip-path="url(#clipPath2)"/>
      <text x="81.9959" xml:space="preserve" y="17.748" clip-path="url(#clipPath2)" font-family="sans-serif" stroke="none">AB</text>
    </g>
    <g fill="rgb(255,204,0)" text-rendering="geometricPrecision" shape-rendering="geometricPrecision" transform="matrix(1,0,0,1,15,15)" stroke="rgb(255,204,0)">
      <rect x="125" width="30" height="30" y="70.5" clip-path="url(#clipPath2)" stroke="none"/>
    </g>
    <g text-rendering="geometricPrecision" stroke-miterlimit="1.45" shape-rendering="geometricPrecision" transform="matrix(1,0,0,1,15,15)" stroke-linecap="butt">
      <rect fill="none" x="125" width="30" height="30" y="70.5" clip-path="url(#clipPath2)"/>
      <text x="127.9999" xml:space="preserve" y="88.248" clip-path="url(#clipPath2)" font-family="sans-serif" stroke="none">DD2</text>
    </g>
    <g fill="rgb(255,204,0)" text-rendering="geometricPrecision" shape-rendering="geometricPrecision" transform="matrix(1,0,0,1,15,15)" stroke="rgb(255,204,0)">
      <rect x="25" width="30" height="30" y="70.5" clip-path="url(#clipPath2)" stroke="none"/>
    </g>
    <g text-rendering="geometricPrecision" stroke-miterlimit="1.45" shape-rendering="geometricPrecision" transform="matrix(1,0,0,1,15,15)" stroke-linecap="butt">
      <rect fill="none" x="25" width="30" height="30" y="70.5" clip-path="url(#clipPath2)"/>
      <text x="27.9999" xml:space="preserve" y="88.248" clip-path="url(#clipPath2)" font-family="sans-serif" stroke="none">DD1</text>
    </g>
    <g fill="rgb(255,204,0)" text-rendering="geometricPrecision" shape-rendering="geometricPrecision" transform="matrix(1,0,0,1,15,15)" stroke="rgb(255,204,0)">
      <rect x="150" width="30" height="30" y="141" clip-path="url(#clipPath2)" stroke="none"/>
    </g>
    <g text-rendering="geometricPrecision" stroke-miterlimit="1.45" shape-rendering="geometricPrecision" transform="matrix(1,0,0,1,15,15)" stroke-linecap="butt">
      <rect fill="none" x="150" width="30" height="30" y="141" clip-path="url(#clipPath2)"/>
      <text x="152.6639" xml:space="preserve" y="158.748" clip-path="url(#clipPath2)" font-family="sans-serif" stroke="none">EM4</text>
    </g>
    <g fill="rgb(255,204,0)" text-rendering="geometricPrecision" shape-rendering="geometricPrecision" transform="matrix(1,0,0,1,15,15)" stroke="rgb(255,204,0)">
      <rect x="100" width="30" height="30" y="141" clip-path="url(#clipPath2)" stroke="none"/>
    </g>
    <g text-rendering="geometricPrecision" stroke-miterlimit="1.45" shape-rendering="geometricPrecision" transform="matrix(1,0,0,1,15,15)" stroke-linecap="butt">
      <rect fill="none" x="100" width="30" height="30" y="141" clip-path="url(#clipPath2)"/>
      <text x="102.6639" xml:space="preserve" y="158.748" clip-path="url(#clipPath2)" font-family="sans-serif" stroke="none">EM3</text>
    </g>
    <g fill="rgb(255,204,0)" text-rendering="geometricPrecision" shape-rendering="geometricPrecision" transform="matrix(1,0,0,1,15,15)" stroke="rgb(255,204,0)">
      <rect x="50" width="30" height="30" y="141" clip-path="url(#clipPath2)" stroke="none"/>
    </g>
    <g text-rendering="geometricPrecision" stroke-miterlimit="1.45" shape-rendering="geometricPrecision" transform="matrix(1,0,0,1,15,15)" stroke-linecap="butt">
      <rect fill="none" x="50" width="30" height="30" y="141" clip-path="url(#clipPath2)"/>
      <text x="52.6639" xml:space="preserve" y="158.748" clip-path="url(#clipPath2)" font-family="sans-serif" stroke="none">EM2</text>
    </g>
    <g fill="rgb(255,204,0)" text-rendering="geometricPrecision" shape-rendering="geometricPrecision" transform="matrix(1,0,0,1,15,15)" stroke="rgb(255,204,0)">
      <rect x="0" width="30" height="30" y="141" clip-path="url(#clipPath2)" stroke="none"/>
    </g>
    <g text-rendering="geometricPrecision" stroke-miterlimit="1.45" shape-rendering="geometricPrecision" transform="matrix(1,0,0,1,15,15)" stroke-linecap="butt">
      <rect fill="none" x="0" width="30" height="30" y="141" clip-path="url(#clipPath2)"/>
      <text x="2.6639" xml:space="preserve" y="158.748" clip-path="url(#clipPath2)" font-family="sans-serif" stroke="none">EM1</text>
      <path fill="none" d="M90 30 L90 50.5 L140 50.5 L140 62.5" clip-path="url(#clipPath2)"/>
      <path d="M140 70.5 L145 58.5 L140 61.5 L135 58.5 Z" clip-path="url(#clipPath2)" stroke="none"/>
      <path fill="none" d="M90 30 L90 50.5 L40 50.5 L40 62.5" clip-path="url(#clipPath2)"/>
      <path d="M40 70.5 L45 58.5 L40 61.5 L35 58.5 Z" clip-path="url(#clipPath2)" stroke="none"/>
      <path fill="none" d="M140 100.5 L140 121 L165 121 L165 133" clip-path="url(#clipPath2)"/>
      <path d="M165 141 L170 129 L165 132 L160 129 Z" clip-path="url(#clipPath2)" stroke="none"/>
      <path fill="none" d="M140 100.5 L140 121 L115 121 L115 133" clip-path="url(#clipPath2)"/>
      <path d="M115 141 L120 129 L115 132 L110 129 Z" clip-path="url(#clipPath2)" stroke="none"/>
      <path fill="none" d="M40 100.5 L40 121 L65 121 L65 133" clip-path="url(#clipPath2)"/>
      <path d="M65 141 L70 129 L65 132 L60 129 Z" clip-path="url(#clipPath2)" stroke="none"/>
      <path fill="none" d="M40 100.5 L40 121 L15 121 L15 133" clip-path="url(#clipPath2)"/>
      <path d="M15 141 L20 129 L15 132 L10 129 Z" clip-path="url(#clipPath2)" stroke="none"/>
    </g>
  </g>
</svg>
