<?xml version="1.0" encoding="UTF-8"?><svg xmlns="http://www.w3.org/2000/svg" xmlns:xlink="http://www.w3.org/1999/xlink" fill-opacity="1" color-rendering="auto" color-interpolation="auto" text-rendering="auto" stroke="black" stroke-linecap="square" width="537" stroke-miterlimit="10" shape-rendering="auto" stroke-opacity="1" fill="black" stroke-dasharray="none" font-weight="normal" stroke-width="1" height="220" font-family="'Dialog'" font-style="normal" stroke-linejoin="miter" font-size="12px" stroke-dashoffset="0" image-rendering="auto">
  <!--Generated by ySVG 2.6-->
  <defs id="genericDefs"/>
  <g>
    <defs id="defs1">
      <clipPath clipPathUnits="userSpaceOnUse" id="clipPath1">
        <path d="M0 0 L537 0 L537 220 L0 220 L0 0 Z"/>
      </clipPath>
      <clipPath clipPathUnits="userSpaceOnUse" id="clipPath2">
        <path d="M-115 37 L422 37 L422 257 L-115 257 L-115 37 Z"/>
      </clipPath>
    </defs>
    <g fill="white" text-rendering="geometricPrecision" shape-rendering="geometricPrecision" transform="translate(115,-37)" stroke="white">
      <rect x="-115" width="537" height="220" y="37" clip-path="url(#clipPath2)" stroke="none"/>
    </g>
    <g fill="rgb(255,204,0)" text-rendering="geometricPrecision" shape-rendering="geometricPrecision" transform="matrix(1,0,0,1,115,-37)" stroke="rgb(255,204,0)">
      <rect x="-32.1532" width="113.7454" height="30" y="52.6396" clip-path="url(#clipPath2)" stroke="none"/>
    </g>
    <g text-rendering="geometricPrecision" stroke-miterlimit="1.45" shape-rendering="geometricPrecision" transform="matrix(1,0,0,1,115,-37)" stroke-linecap="butt">
      <rect fill="none" x="-32.1532" width="113.7454" height="30" y="52.6396" clip-path="url(#clipPath2)"/>
      <text x="-0.2887" xml:space="preserve" y="70.3876" clip-path="url(#clipPath2)" font-family="sans-serif" stroke="none">Fresnel 1</text>
    </g>
    <g fill="rgb(255,204,0)" text-rendering="geometricPrecision" shape-rendering="geometricPrecision" transform="matrix(1,0,0,1,115,-37)" stroke="rgb(255,204,0)">
      <rect x="-90.8895" width="78.8184" height="30" y="141" clip-path="url(#clipPath2)" stroke="none"/>
    </g>
    <g text-rendering="geometricPrecision" stroke-miterlimit="1.45" shape-rendering="geometricPrecision" transform="matrix(1,0,0,1,115,-37)" stroke-linecap="butt">
      <rect fill="none" x="-90.8895" width="78.8184" height="30" y="141" clip-path="url(#clipPath2)"/>
      <text x="-84.1626" xml:space="preserve" y="158.748" clip-path="url(#clipPath2)" font-family="sans-serif" stroke="none">Scattering A</text>
    </g>
    <g fill="rgb(255,204,0)" text-rendering="geometricPrecision" shape-rendering="geometricPrecision" transform="matrix(1,0,0,1,115,-37)" stroke="rgb(255,204,0)">
      <rect x="58.2514" width="78.8184" height="30" y="141" clip-path="url(#clipPath2)" stroke="none"/>
    </g>
    <g text-rendering="geometricPrecision" stroke-miterlimit="1.45" shape-rendering="geometricPrecision" transform="matrix(1,0,0,1,115,-37)" stroke-linecap="butt">
      <rect fill="none" x="58.2514" width="78.8184" height="30" y="141" clip-path="url(#clipPath2)"/>
      <text x="64.9784" xml:space="preserve" y="158.748" clip-path="url(#clipPath2)" font-family="sans-serif" stroke="none">Scattering B</text>
    </g>
    <g fill="rgb(255,204,0)" text-rendering="geometricPrecision" shape-rendering="geometricPrecision" transform="matrix(1,0,0,1,115,-37)" stroke="rgb(255,204,0)">
      <rect x="228.119" width="113.7454" height="30" y="52.6396" clip-path="url(#clipPath2)" stroke="none"/>
    </g>
    <g text-rendering="geometricPrecision" stroke-miterlimit="1.45" shape-rendering="geometricPrecision" transform="matrix(1,0,0,1,115,-37)" stroke-linecap="butt">
      <rect fill="none" x="228.119" width="113.7454" height="30" y="52.6396" clip-path="url(#clipPath2)"/>
      <text x="259.9835" xml:space="preserve" y="70.3876" clip-path="url(#clipPath2)" font-family="sans-serif" stroke="none">Fresnel 2</text>
    </g>
    <g fill="rgb(255,204,0)" text-rendering="geometricPrecision" shape-rendering="geometricPrecision" transform="matrix(1,0,0,1,115,-37)" stroke="rgb(255,204,0)">
      <rect x="169.3827" width="78.8184" height="30" y="141" clip-path="url(#clipPath2)" stroke="none"/>
    </g>
    <g text-rendering="geometricPrecision" stroke-miterlimit="1.45" shape-rendering="geometricPrecision" transform="matrix(1,0,0,1,115,-37)" stroke-linecap="butt">
      <rect fill="none" x="169.3827" width="78.8184" height="30" y="141" clip-path="url(#clipPath2)"/>
      <text x="176.1097" xml:space="preserve" y="158.748" clip-path="url(#clipPath2)" font-family="sans-serif" stroke="none">Scattering A</text>
    </g>
    <g fill="rgb(255,204,0)" text-rendering="geometricPrecision" shape-rendering="geometricPrecision" transform="matrix(1,0,0,1,115,-37)" stroke="rgb(255,204,0)">
      <rect x="318.5237" width="78.8184" height="30" y="141" clip-path="url(#clipPath2)" stroke="none"/>
    </g>
    <g text-rendering="geometricPrecision" stroke-miterlimit="1.45" shape-rendering="geometricPrecision" transform="matrix(1,0,0,1,115,-37)" stroke-linecap="butt">
      <rect fill="none" x="318.5237" width="78.8184" height="30" y="141" clip-path="url(#clipPath2)"/>
      <text x="325.2506" xml:space="preserve" y="158.748" clip-path="url(#clipPath2)" font-family="sans-serif" stroke="none">Scattering B</text>
    </g>
    <g fill="rgb(255,204,0)" text-rendering="geometricPrecision" shape-rendering="geometricPrecision" transform="matrix(1,0,0,1,115,-37)" stroke="rgb(255,204,0)">
      <rect x="-99.8495" width="96.7384" height="30" y="211.056" clip-path="url(#clipPath2)" stroke="none"/>
    </g>
    <g text-rendering="geometricPrecision" stroke-miterlimit="1.45" shape-rendering="geometricPrecision" transform="matrix(1,0,0,1,115,-37)" stroke-linecap="butt">
      <rect fill="none" x="-99.8495" width="96.7384" height="30" y="211.056" clip-path="url(#clipPath2)"/>
      <text x="-92.8326" xml:space="preserve" y="228.804" clip-path="url(#clipPath2)" font-family="sans-serif" stroke="none">Netradiation A1</text>
    </g>
    <g fill="rgb(255,204,0)" text-rendering="geometricPrecision" shape-rendering="geometricPrecision" transform="matrix(1,0,0,1,115,-37)" stroke="rgb(255,204,0)">
      <rect x="49.2914" width="96.7384" height="30" y="211.056" clip-path="url(#clipPath2)" stroke="none"/>
    </g>
    <g text-rendering="geometricPrecision" stroke-miterlimit="1.45" shape-rendering="geometricPrecision" transform="matrix(1,0,0,1,115,-37)" stroke-linecap="butt">
      <rect fill="none" x="49.2914" width="96.7384" height="30" y="211.056" clip-path="url(#clipPath2)"/>
      <text x="56.3083" xml:space="preserve" y="228.804" clip-path="url(#clipPath2)" font-family="sans-serif" stroke="none">Netradiation A2</text>
    </g>
    <g fill="rgb(255,204,0)" text-rendering="geometricPrecision" shape-rendering="geometricPrecision" transform="matrix(1,0,0,1,115,-37)" stroke="rgb(255,204,0)">
      <rect x="160.4227" width="96.7384" height="30" y="211.056" clip-path="url(#clipPath2)" stroke="none"/>
    </g>
    <g text-rendering="geometricPrecision" stroke-miterlimit="1.45" shape-rendering="geometricPrecision" transform="matrix(1,0,0,1,115,-37)" stroke-linecap="butt">
      <rect fill="none" x="160.4227" width="96.7384" height="30" y="211.056" clip-path="url(#clipPath2)"/>
      <text x="167.4396" xml:space="preserve" y="228.804" clip-path="url(#clipPath2)" font-family="sans-serif" stroke="none">Netradiation A2</text>
    </g>
    <g fill="rgb(255,204,0)" text-rendering="geometricPrecision" shape-rendering="geometricPrecision" transform="matrix(1,0,0,1,115,-37)" stroke="rgb(255,204,0)">
      <rect x="309.5637" width="96.7384" height="30" y="211.056" clip-path="url(#clipPath2)" stroke="none"/>
    </g>
    <g text-rendering="geometricPrecision" stroke-miterlimit="1.45" shape-rendering="geometricPrecision" transform="matrix(1,0,0,1,115,-37)" stroke-linecap="butt">
      <rect fill="none" x="309.5637" width="96.7384" height="30" y="211.056" clip-path="url(#clipPath2)"/>
      <text x="316.5806" xml:space="preserve" y="228.804" clip-path="url(#clipPath2)" font-family="sans-serif" stroke="none">Netradiation B2</text>
      <path fill="none" d="M24.7194 82.6396 L24.7194 121 L-51.4803 121 L-51.4803 133" clip-path="url(#clipPath2)"/>
      <path d="M-51.4803 141 L-46.4803 129 L-51.4803 132 L-56.4803 129 Z" clip-path="url(#clipPath2)" stroke="none"/>
      <path fill="none" d="M24.7194 82.6396 L24.7194 121 L97.6606 121 L97.6606 133" clip-path="url(#clipPath2)"/>
      <path d="M97.6606 141 L102.6606 129 L97.6606 132 L92.6606 129 Z" clip-path="url(#clipPath2)" stroke="none"/>
      <path fill="none" d="M284.9917 82.6396 L284.9917 121 L208.7919 121 L208.7919 133" clip-path="url(#clipPath2)"/>
      <path d="M208.7919 141 L213.7919 129 L208.7919 132 L203.7919 129 Z" clip-path="url(#clipPath2)" stroke="none"/>
      <path fill="none" d="M284.9917 82.6396 L284.9917 121 L357.9329 121 L357.9329 133" clip-path="url(#clipPath2)"/>
      <path d="M357.9329 141 L362.9329 129 L357.9329 132 L352.9329 129 Z" clip-path="url(#clipPath2)" stroke="none"/>
      <path fill="none" d="M-51.4803 171 L-51.4803 203.056" clip-path="url(#clipPath2)"/>
      <path d="M-51.4803 211.056 L-46.4803 199.056 L-51.4803 202.056 L-56.4803 199.056 Z" clip-path="url(#clipPath2)" stroke="none"/>
      <path fill="none" d="M97.6606 171 L97.6606 203.056" clip-path="url(#clipPath2)"/>
      <path d="M97.6606 211.056 L102.6606 199.056 L97.6606 202.056 L92.6606 199.056 Z" clip-path="url(#clipPath2)" stroke="none"/>
      <path fill="none" d="M208.7919 171 L208.7919 203.056" clip-path="url(#clipPath2)"/>
      <path d="M208.7919 211.056 L213.7919 199.056 L208.7919 202.056 L203.7919 199.056 Z" clip-path="url(#clipPath2)" stroke="none"/>
      <path fill="none" d="M357.9329 171 L357.9329 203.056" clip-path="url(#clipPath2)"/>
      <path d="M357.9329 211.056 L362.9329 199.056 L357.9329 202.056 L352.9329 199.056 Z" clip-path="url(#clipPath2)" stroke="none"/>
    </g>
  </g>
</svg>
