<?xml version="1.0" encoding="UTF-8"?><svg xmlns="http://www.w3.org/2000/svg" xmlns:xlink="http://www.w3.org/1999/xlink" fill-opacity="1" color-rendering="auto" color-interpolation="auto" text-rendering="auto" stroke="black" stroke-linecap="square" width="288" stroke-miterlimit="10" shape-rendering="auto" stroke-opacity="1" fill="black" stroke-dasharray="none" font-weight="normal" stroke-width="1" height="274" font-family="'Dialog'" font-style="normal" stroke-linejoin="miter" font-size="12px" stroke-dashoffset="0" image-rendering="auto">
  <!--Generated by ySVG 2.6-->
  <defs id="genericDefs"/>
  <g>
    <defs id="defs1">
      <clipPath clipPathUnits="userSpaceOnUse" id="clipPath1">
        <path d="M0 0 L288 0 L288 274 L0 274 L0 0 Z"/>
      </clipPath>
      <clipPath clipPathUnits="userSpaceOnUse" id="clipPath2">
        <path d="M-127 8 L161 8 L161 282 L-127 282 L-127 8 Z"/>
      </clipPath>
    </defs>
    <g fill="white" text-rendering="geometricPrecision" shape-rendering="geometricPrecision" transform="translate(127,-8)" stroke="white">
      <rect x="-127" width="288" height="274" y="8" clip-path="url(#clipPath2)" stroke="none"/>
    </g>
    <g fill="rgb(0,204,255)" text-rendering="geometricPrecision" shape-rendering="geometricPrecision" transform="matrix(1,0,0,1,127,-8)" stroke="rgb(0,204,255)">
      <rect x="-111.884" width="100" height="30" y="130.2746" clip-path="url(#clipPath2)" stroke="none"/>
    </g>
    <g text-rendering="geometricPrecision" stroke-miterlimit="1.45" shape-rendering="geometricPrecision" transform="matrix(1,0,0,1,127,-8)" stroke-linecap="butt">
      <rect fill="none" x="-111.884" width="100" height="30" y="130.2746" clip-path="url(#clipPath2)"/>
      <text x="-103.2363" xml:space="preserve" y="148.0226" clip-path="url(#clipPath2)" font-family="sans-serif" stroke="none">Netradiation A1</text>
    </g>
    <g fill="rgb(153,204,0)" text-rendering="geometricPrecision" shape-rendering="geometricPrecision" transform="matrix(1,0,0,1,127,-8)" stroke="rgb(153,204,0)">
      <rect x="-111.884" width="100" height="30" y="23.8765" clip-path="url(#clipPath2)" stroke="none"/>
    </g>
    <g text-rendering="geometricPrecision" stroke-miterlimit="1.45" shape-rendering="geometricPrecision" transform="matrix(1,0,0,1,127,-8)" stroke-linecap="butt">
      <rect fill="none" x="-111.884" width="100" height="30" y="23.8765" clip-path="url(#clipPath2)"/>
      <text x="-94.5662" xml:space="preserve" y="41.6245" clip-path="url(#clipPath2)" font-family="sans-serif" stroke="none">Scattering A</text>
    </g>
    <g fill="rgb(255,153,0)" text-rendering="geometricPrecision" shape-rendering="geometricPrecision" transform="matrix(1,0,0,1,127,-8)" stroke="rgb(255,153,0)">
      <rect x="45.3666" width="100" height="30" y="23.8765" clip-path="url(#clipPath2)" stroke="none"/>
    </g>
    <g text-rendering="geometricPrecision" stroke-miterlimit="1.45" shape-rendering="geometricPrecision" transform="matrix(1,0,0,1,127,-8)" stroke-linecap="butt">
      <rect fill="none" x="45.3666" width="100" height="30" y="23.8765" clip-path="url(#clipPath2)"/>
      <text x="70.3584" xml:space="preserve" y="41.6245" clip-path="url(#clipPath2)" font-family="sans-serif" stroke="none">Fresnel 1</text>
    </g>
    <g fill="rgb(255,204,0)" text-rendering="geometricPrecision" shape-rendering="geometricPrecision" transform="matrix(1,0,0,1,127,-8)" stroke="rgb(255,204,0)">
      <rect x="-111.884" width="100" height="30" y="236.6726" clip-path="url(#clipPath2)" stroke="none"/>
    </g>
    <g text-rendering="geometricPrecision" stroke-miterlimit="1.45" shape-rendering="geometricPrecision" transform="matrix(1,0,0,1,127,-8)" stroke-linecap="butt">
      <rect fill="none" x="-111.884" width="100" height="30" y="236.6726" clip-path="url(#clipPath2)"/>
      <text x="-101.5743" xml:space="preserve" y="254.4206" clip-path="url(#clipPath2)" font-family="sans-serif" stroke="none">Scat. PP A1B1</text>
      <path fill="none" d="M-61.884 53.8765 L-61.884 122.2746" clip-path="url(#clipPath2)"/>
      <path d="M-61.884 130.2746 L-56.884 118.2746 L-61.884 121.2746 L-66.884 118.2746 Z" clip-path="url(#clipPath2)" stroke="none"/>
      <path fill="none" d="M73.1974 53.8765 L-33.089 125.7914" clip-path="url(#clipPath2)"/>
      <path d="M-39.7148 130.2746 L-26.9741 127.691 L-32.2608 125.231 L-32.578 119.4087 Z" clip-path="url(#clipPath2)" stroke="none"/>
      <path fill="none" d="M-61.884 160.2746 L-61.884 228.6726" clip-path="url(#clipPath2)"/>
      <path d="M-61.884 236.6726 L-56.884 224.6726 L-61.884 227.6726 L-66.884 224.6726 Z" clip-path="url(#clipPath2)" stroke="none"/>
    </g>
  </g>
</svg>
