<?xml version="1.0" encoding="UTF-8"?><svg xmlns="http://www.w3.org/2000/svg" xmlns:xlink="http://www.w3.org/1999/xlink" fill-opacity="1" color-rendering="auto" color-interpolation="auto" text-rendering="auto" stroke="black" stroke-linecap="square" width="952" stroke-miterlimit="10" shape-rendering="auto" stroke-opacity="1" fill="black" stroke-dasharray="none" font-weight="normal" stroke-width="1" height="358" font-family="'Dialog'" font-style="normal" stroke-linejoin="miter" font-size="12px" stroke-dashoffset="0" image-rendering="auto">
  <!--Generated by ySVG 2.6-->
  <defs id="genericDefs"/>
  <g>
    <defs id="defs1">
      <clipPath clipPathUnits="userSpaceOnUse" id="clipPath1">
        <path d="M0 0 L952 0 L952 358 L0 358 L0 0 Z"/>
      </clipPath>
      <clipPath clipPathUnits="userSpaceOnUse" id="clipPath2">
        <path d="M-711 -32 L241 -32 L241 326 L-711 326 L-711 -32 Z"/>
      </clipPath>
      <clipPath clipPathUnits="userSpaceOnUse" id="clipPath3">
        <path d="M288.3481 -676 L288.3481 276 L-69.6519 276 L-69.6519 -676 L288.3481 -676 Z"/>
      </clipPath>
      <clipPath clipPathUnits="userSpaceOnUse" id="clipPath4">
        <path d="M338.3481 -676 L338.3481 276 L-19.6519 276 L-19.6519 -676 L338.3481 -676 Z"/>
      </clipPath>
      <clipPath clipPathUnits="userSpaceOnUse" id="clipPath5">
        <path d="M90.3481 -676 L90.3481 276 L-267.6519 276 L-267.6519 -676 L90.3481 -676 Z"/>
      </clipPath>
      <clipPath clipPathUnits="userSpaceOnUse" id="clipPath6">
        <path d="M140.3481 -676 L140.3481 276 L-217.6519 276 L-217.6519 -676 L140.3481 -676 Z"/>
      </clipPath>
    </defs>
    <g fill="white" text-rendering="geometricPrecision" shape-rendering="geometricPrecision" transform="translate(711,32)" stroke="white">
      <rect x="-711" width="952" height="358" y="-32" clip-path="url(#clipPath2)" stroke="none"/>
    </g>
    <g transform="matrix(1,0,0,1,711,32)" fill-opacity="0.502" fill="rgb(202,236,255)" text-rendering="geometricPrecision" shape-rendering="geometricPrecision" stroke="rgb(202,236,255)" stroke-opacity="0.502">
      <rect x="-696" y="16" clip-path="url(#clipPath2)" width="140" rx="4" ry="4" height="270.0001" stroke="none"/>
    </g>
    <g fill="rgb(153,204,255)" text-rendering="geometricPrecision" shape-rendering="geometricPrecision" transform="matrix(1,0,0,1,711,32)" stroke="rgb(153,204,255)">
      <rect x="-696" width="140" height="19.0001" y="16" clip-path="url(#clipPath2)" stroke="none"/>
    </g>
    <g font-size="15px" stroke-linecap="butt" transform="matrix(1,0,0,1,711,32)" text-rendering="geometricPrecision" font-family="sans-serif" shape-rendering="geometricPrecision" stroke-miterlimit="1.45">
      <text x="-618.8404" xml:space="preserve" y="28.9351" clip-path="url(#clipPath2)" stroke="none">All Tasks</text>
    </g>
    <g stroke-linecap="round" transform="matrix(1,0,0,1,711,32)" stroke-dashoffset="2" fill="rgb(102,102,153)" text-rendering="geometricPrecision" shape-rendering="geometricPrecision" stroke-dasharray="0,4" stroke="rgb(102,102,153)" stroke-miterlimit="1.45">
      <rect x="-696" y="16" clip-path="url(#clipPath2)" fill="none" width="140" rx="4" ry="4" height="270.0001"/>
    </g>
    <g fill="rgb(255,204,0)" text-rendering="geometricPrecision" shape-rendering="geometricPrecision" transform="matrix(1,0,0,1,711,32)" stroke="rgb(255,204,0)">
      <rect x="-661" width="71" height="30" y="161.0001" clip-path="url(#clipPath2)" stroke="none"/>
    </g>
    <g text-rendering="geometricPrecision" stroke-miterlimit="1.45" shape-rendering="geometricPrecision" transform="matrix(1,0,0,1,711,32)" stroke-linecap="butt">
      <rect fill="none" x="-661" width="71" height="30" y="161.0001" clip-path="url(#clipPath2)"/>
      <text x="-647.5082" xml:space="preserve" y="178.7481" clip-path="url(#clipPath2)" font-family="sans-serif" stroke="none">Task A1</text>
    </g>
    <g fill="rgb(255,204,0)" text-rendering="geometricPrecision" shape-rendering="geometricPrecision" transform="matrix(1,0,0,1,711,32)" stroke="rgb(255,204,0)">
      <rect x="-661" width="71" height="30" y="226.0001" clip-path="url(#clipPath2)" stroke="none"/>
    </g>
    <g text-rendering="geometricPrecision" stroke-miterlimit="1.45" shape-rendering="geometricPrecision" transform="matrix(1,0,0,1,711,32)" stroke-linecap="butt">
      <rect fill="none" x="-661" width="71" height="30" y="226.0001" clip-path="url(#clipPath2)"/>
      <text x="-647.5082" xml:space="preserve" y="243.7481" clip-path="url(#clipPath2)" font-family="sans-serif" stroke="none">Task A2</text>
    </g>
    <g fill="rgb(255,204,0)" text-rendering="geometricPrecision" shape-rendering="geometricPrecision" transform="matrix(1,0,0,1,711,32)" stroke="rgb(255,204,0)">
      <rect x="-661" width="71" height="30" y="46.0001" clip-path="url(#clipPath2)" stroke="none"/>
    </g>
    <g text-rendering="geometricPrecision" stroke-miterlimit="1.45" shape-rendering="geometricPrecision" transform="matrix(1,0,0,1,711,32)" stroke-linecap="butt">
      <rect fill="none" x="-661" width="71" height="30" y="46.0001" clip-path="url(#clipPath2)"/>
      <text x="-647.5082" xml:space="preserve" y="63.7481" clip-path="url(#clipPath2)" font-family="sans-serif" stroke="none">Task B1</text>
    </g>
    <g fill="rgb(255,204,0)" text-rendering="geometricPrecision" shape-rendering="geometricPrecision" transform="matrix(1,0,0,1,711,32)" stroke="rgb(255,204,0)">
      <rect x="-661" width="71" height="30" y="101.0001" clip-path="url(#clipPath2)" stroke="none"/>
    </g>
    <g text-rendering="geometricPrecision" stroke-miterlimit="1.45" shape-rendering="geometricPrecision" transform="matrix(1,0,0,1,711,32)" stroke-linecap="butt">
      <rect fill="none" x="-661" width="71" height="30" y="101.0001" clip-path="url(#clipPath2)"/>
      <text x="-647.5082" xml:space="preserve" y="118.7481" clip-path="url(#clipPath2)" font-family="sans-serif" stroke="none">Task B2</text>
    </g>
    <g fill="rgb(255,204,0)" text-rendering="geometricPrecision" shape-rendering="geometricPrecision" transform="matrix(1,0,0,1,711,32)" stroke="rgb(255,204,0)">
      <path d="M-310.5 262.0001 L-276.3 208.6769 L-211.773 206.5001 L-242.1 151.0001 L-211.773 95.5002 L-276.3 93.3232 L-310.5 40.0001 L-344.7 93.3232 L-409.2269 95.5002 L-378.9 151.0001 L-409.2269 206.5001 L-344.7 208.6769 Z" fill-rule="evenodd" clip-path="url(#clipPath2)" stroke="none"/>
    </g>
    <g text-rendering="geometricPrecision" stroke-miterlimit="1.45" shape-rendering="geometricPrecision" transform="matrix(1,0,0,1,711,32)" stroke-linecap="butt">
      <path fill="none" d="M-310.5 262.0001 L-276.3 208.6769 L-211.773 206.5001 L-242.1 151.0001 L-211.773 95.5002 L-276.3 93.3232 L-310.5 40.0001 L-344.7 93.3232 L-409.2269 95.5002 L-378.9 151.0001 L-409.2269 206.5001 L-344.7 208.6769 Z" fill-rule="evenodd" clip-path="url(#clipPath2)"/>
      <text x="-369.5164" xml:space="preserve" y="153.7481" clip-path="url(#clipPath2)" font-family="sans-serif" stroke="none">Task Scheduler (TBB)</text>
      <path fill="none" d="M-386.9379 151 L-556.0011 151" clip-path="url(#clipPath2)"/>
      <path d="M-378.9379 151 L-390.9379 146 L-387.9379 151 L-390.9379 156 Z" clip-path="url(#clipPath2)" stroke="none"/>
    </g>
    <g fill="rgb(236,245,255)" text-rendering="geometricPrecision" shape-rendering="geometricPrecision" transform="matrix(1,0,0,1,711,32)" stroke="rgb(236,245,255)">
      <path d="M-38 181 L-38 211 L226 211 L226 181 Z" stroke="none" clip-path="url(#clipPath2)"/>
      <rect x="-38" width="264" height="100" y="211" clip-path="url(#clipPath2)" stroke="none"/>
      <line clip-path="url(#clipPath2)" fill="rgb(113,146,178)" x1="-14" x2="226" y1="211" y2="211" stroke="none"/>
      <rect x="-38" y="211" clip-path="url(#clipPath2)" fill="rgb(196,215,237)" width="24" height="50" stroke="none"/>
      <rect x="-14" y="211" clip-path="url(#clipPath2)" fill="rgb(196,215,237)" width="240" height="50" stroke="none"/>
      <rect x="-38" y="261" clip-path="url(#clipPath2)" fill="rgb(171,200,226)" width="24" height="50" stroke="none"/>
      <rect x="-14" y="261" clip-path="url(#clipPath2)" fill="rgb(171,200,226)" width="240" height="50" stroke="none"/>
    </g>
    <g text-rendering="geometricPrecision" stroke-miterlimit="1.45" shape-rendering="geometricPrecision" transform="matrix(1,0,0,1,711,32)" stroke-linecap="butt">
      <rect fill="none" x="-38" width="264" height="130" y="181" clip-path="url(#clipPath2)"/>
      <rect fill="none" x="-14" width="240" height="100" y="211" clip-path="url(#clipPath2)"/>
      <rect fill="none" x="-38" width="264" height="50" y="211" clip-path="url(#clipPath2)"/>
      <rect fill="none" x="-38" width="264" height="50" y="261" clip-path="url(#clipPath2)"/>
    </g>
    <g font-size="15px" stroke-linecap="butt" transform="matrix(1,0,0,1,711,32)" text-rendering="geometricPrecision" font-family="sans-serif" shape-rendering="geometricPrecision" stroke-miterlimit="1.45">
      <text x="71.4923" xml:space="preserve" y="197.9351" clip-path="url(#clipPath2)" stroke="none">Core 1</text>
    </g>
    <g text-rendering="geometricPrecision" stroke-miterlimit="1.45" shape-rendering="geometricPrecision" font-family="sans-serif" transform="matrix(-0,-1,1,-0,676,288.3481)" stroke-linecap="butt">
      <text x="2" xml:space="preserve" y="10.7481" clip-path="url(#clipPath3)" stroke="none">Lane 0</text>
    </g>
    <g text-rendering="geometricPrecision" stroke-miterlimit="1.45" shape-rendering="geometricPrecision" font-family="sans-serif" transform="matrix(-0,-1,1,-0,676,338.3481)" stroke-linecap="butt">
      <text x="2" xml:space="preserve" y="10.7481" clip-path="url(#clipPath4)" stroke="none">Lane 1</text>
    </g>
    <g text-rendering="geometricPrecision" stroke-miterlimit="1.45" shape-rendering="geometricPrecision" transform="matrix(1,0,0,1,711,32)" stroke-linecap="butt">
      <path fill="none" d="M-232.0146 169.433 L-45.7937 213.1684" clip-path="url(#clipPath2)"/>
      <path d="M-38.0056 214.9975 L-48.5446 207.3863 L-46.7673 212.9397 L-50.831 217.1214 Z" clip-path="url(#clipPath2)" stroke="none"/>
      <path fill="none" d="M-231.027 130.7634 L-45.7552 83.5866" clip-path="url(#clipPath2)"/>
      <path d="M-38.0025 81.6125 L-50.8653 79.7283 L-46.7242 83.8334 L-48.3977 89.4191 Z" clip-path="url(#clipPath2)" stroke="none"/>
    </g>
    <g fill="rgb(236,245,255)" text-rendering="geometricPrecision" shape-rendering="geometricPrecision" transform="matrix(1,0,0,1,711,32)" stroke="rgb(236,245,255)">
      <path d="M-38 -17 L-38 13 L226 13 L226 -17 Z" stroke="none" clip-path="url(#clipPath2)"/>
      <rect x="-38" width="264" height="100" y="13" clip-path="url(#clipPath2)" stroke="none"/>
      <line clip-path="url(#clipPath2)" fill="rgb(113,146,178)" x1="-14" x2="226" y1="13" y2="13" stroke="none"/>
      <rect x="-38" y="13" clip-path="url(#clipPath2)" fill="rgb(196,215,237)" width="24" height="50" stroke="none"/>
      <rect x="-14" y="13" clip-path="url(#clipPath2)" fill="rgb(196,215,237)" width="240" height="50" stroke="none"/>
      <rect x="-38" y="63" clip-path="url(#clipPath2)" fill="rgb(171,200,226)" width="24" height="50" stroke="none"/>
      <rect x="-14" y="63" clip-path="url(#clipPath2)" fill="rgb(171,200,226)" width="240" height="50" stroke="none"/>
    </g>
    <g text-rendering="geometricPrecision" stroke-miterlimit="1.45" shape-rendering="geometricPrecision" transform="matrix(1,0,0,1,711,32)" stroke-linecap="butt">
      <rect fill="none" x="-38" width="264" height="130" y="-17" clip-path="url(#clipPath2)"/>
      <rect fill="none" x="-14" width="240" height="100" y="13" clip-path="url(#clipPath2)"/>
      <rect fill="none" x="-38" width="264" height="50" y="13" clip-path="url(#clipPath2)"/>
      <rect fill="none" x="-38" width="264" height="50" y="63" clip-path="url(#clipPath2)"/>
    </g>
    <g font-size="15px" stroke-linecap="butt" transform="matrix(1,0,0,1,711,32)" text-rendering="geometricPrecision" font-family="sans-serif" shape-rendering="geometricPrecision" stroke-miterlimit="1.45">
      <text x="71.4923" xml:space="preserve" y="-0.0649" clip-path="url(#clipPath2)" stroke="none">Core 0</text>
    </g>
    <g text-rendering="geometricPrecision" stroke-miterlimit="1.45" shape-rendering="geometricPrecision" font-family="sans-serif" transform="matrix(-0,-1,1,-0,676,90.3481)" stroke-linecap="butt">
      <text x="2" xml:space="preserve" y="10.7481" clip-path="url(#clipPath5)" stroke="none">Lane 0</text>
    </g>
    <g text-rendering="geometricPrecision" stroke-miterlimit="1.45" shape-rendering="geometricPrecision" font-family="sans-serif" transform="matrix(-0,-1,1,-0,676,140.3481)" stroke-linecap="butt">
      <text x="2" xml:space="preserve" y="10.7481" clip-path="url(#clipPath6)" stroke="none">Lane 1</text>
    </g>
  </g>
</svg>
