<?xml version="1.0" encoding="UTF-8"?><svg xmlns="http://www.w3.org/2000/svg" xmlns:xlink="http://www.w3.org/1999/xlink" fill-opacity="1" color-rendering="auto" color-interpolation="auto" text-rendering="auto" stroke="black" stroke-linecap="square" width="540" stroke-miterlimit="10" shape-rendering="auto" stroke-opacity="1" fill="black" stroke-dasharray="none" font-weight="normal" stroke-width="1" height="133" font-family="'Dialog'" font-style="normal" stroke-linejoin="miter" font-size="12px" stroke-dashoffset="0" image-rendering="auto">
  <!--Generated by ySVG 2.6-->
  <defs id="genericDefs"/>
  <g>
    <defs id="defs1">
      <clipPath clipPathUnits="userSpaceOnUse" id="clipPath1">
        <path d="M0 0 L540 0 L540 133 L0 133 L0 0 Z"/>
      </clipPath>
      <clipPath clipPathUnits="userSpaceOnUse" id="clipPath2">
        <path d="M-225 -21 L315 -21 L315 112 L-225 112 L-225 -21 Z"/>
      </clipPath>
    </defs>
    <g fill="white" text-rendering="geometricPrecision" shape-rendering="geometricPrecision" transform="translate(225,21)" stroke="white">
      <rect x="-225" width="540" height="133" y="-21" clip-path="url(#clipPath2)" stroke="none"/>
    </g>
    <g fill="rgb(255,204,0)" text-rendering="geometricPrecision" shape-rendering="geometricPrecision" transform="matrix(1,0,0,1,225,21)" stroke="rgb(255,204,0)">
      <rect x="-209.2" width="60" height="30" y="-2.2" clip-path="url(#clipPath2)" stroke="none"/>
    </g>
    <g text-rendering="geometricPrecision" stroke-miterlimit="1.45" shape-rendering="geometricPrecision" transform="matrix(1,0,0,1,225,21)" stroke-linecap="butt">
      <rect fill="none" x="-209.2" width="60" height="30" y="-2.2" clip-path="url(#clipPath2)"/>
      <text x="-204.2082" xml:space="preserve" y="15.548" clip-path="url(#clipPath2)" font-family="sans-serif" stroke="none">Fresnel 1</text>
    </g>
    <g fill="rgb(255,204,0)" text-rendering="geometricPrecision" shape-rendering="geometricPrecision" transform="matrix(1,0,0,1,225,21)" stroke="rgb(255,204,0)">
      <rect x="-209.2" width="60" height="30" y="67" clip-path="url(#clipPath2)" stroke="none"/>
    </g>
    <g text-rendering="geometricPrecision" stroke-miterlimit="1.45" shape-rendering="geometricPrecision" transform="matrix(1,0,0,1,225,21)" stroke-linecap="butt">
      <rect fill="none" x="-209.2" width="60" height="30" y="67" clip-path="url(#clipPath2)"/>
      <text x="-204.2082" xml:space="preserve" y="84.748" clip-path="url(#clipPath2)" font-family="sans-serif" stroke="none">Fresnel 2</text>
    </g>
    <g fill="rgb(255,204,0)" text-rendering="geometricPrecision" shape-rendering="geometricPrecision" transform="matrix(1,0,0,1,225,21)" stroke="rgb(255,204,0)">
      <rect x="-97.072" width="60" height="30" y="-2.2" clip-path="url(#clipPath2)" stroke="none"/>
    </g>
    <g text-rendering="geometricPrecision" stroke-miterlimit="1.45" shape-rendering="geometricPrecision" transform="matrix(1,0,0,1,225,21)" stroke-linecap="butt">
      <rect fill="none" x="-97.072" width="60" height="30" y="-2.2" clip-path="url(#clipPath2)"/>
      <text x="-84.7481" xml:space="preserve" y="15.548" clip-path="url(#clipPath2)" font-family="sans-serif" stroke="none">Scat A</text>
    </g>
    <g fill="rgb(255,204,0)" text-rendering="geometricPrecision" shape-rendering="geometricPrecision" transform="matrix(1,0,0,1,225,21)" stroke="rgb(255,204,0)">
      <rect x="15.056" width="60" height="30" y="-5.048" clip-path="url(#clipPath2)" stroke="none"/>
    </g>
    <g text-rendering="geometricPrecision" stroke-miterlimit="1.45" shape-rendering="geometricPrecision" transform="matrix(1,0,0,1,225,21)" stroke-linecap="butt">
      <rect fill="none" x="15.056" width="60" height="30" y="-5.048" clip-path="url(#clipPath2)"/>
      <text x="26.7139" xml:space="preserve" y="12.7" clip-path="url(#clipPath2)" font-family="sans-serif" stroke="none">Net A1</text>
    </g>
    <g fill="rgb(255,204,0)" text-rendering="geometricPrecision" shape-rendering="geometricPrecision" transform="matrix(1,0,0,1,225,21)" stroke="rgb(255,204,0)">
      <rect x="15.056" width="60" height="30" y="67" clip-path="url(#clipPath2)" stroke="none"/>
    </g>
    <g text-rendering="geometricPrecision" stroke-miterlimit="1.45" shape-rendering="geometricPrecision" transform="matrix(1,0,0,1,225,21)" stroke-linecap="butt">
      <rect fill="none" x="15.056" width="60" height="30" y="67" clip-path="url(#clipPath2)"/>
      <text x="26.7139" xml:space="preserve" y="84.748" clip-path="url(#clipPath2)" font-family="sans-serif" stroke="none">Net A2</text>
    </g>
    <g fill="rgb(255,204,0)" text-rendering="geometricPrecision" shape-rendering="geometricPrecision" transform="matrix(1,0,0,1,225,21)" stroke="rgb(255,204,0)">
      <rect x="127.184" width="60" height="30" y="67" clip-path="url(#clipPath2)" stroke="none"/>
    </g>
    <g text-rendering="geometricPrecision" stroke-miterlimit="1.45" shape-rendering="geometricPrecision" transform="matrix(1,0,0,1,225,21)" stroke-linecap="butt">
      <rect fill="none" x="127.184" width="60" height="30" y="67" clip-path="url(#clipPath2)"/>
      <text x="139.5079" xml:space="preserve" y="84.748" clip-path="url(#clipPath2)" font-family="sans-serif" stroke="none">Scat B</text>
    </g>
    <g fill="rgb(255,204,0)" text-rendering="geometricPrecision" shape-rendering="geometricPrecision" transform="matrix(1,0,0,1,225,21)" stroke="rgb(255,204,0)">
      <rect x="239.312" width="60" height="30" y="-5.048" clip-path="url(#clipPath2)" stroke="none"/>
    </g>
    <g text-rendering="geometricPrecision" stroke-miterlimit="1.45" shape-rendering="geometricPrecision" transform="matrix(1,0,0,1,225,21)" stroke-linecap="butt">
      <rect fill="none" x="239.312" width="60" height="30" y="-5.048" clip-path="url(#clipPath2)"/>
      <text x="250.9699" xml:space="preserve" y="12.7" clip-path="url(#clipPath2)" font-family="sans-serif" stroke="none">Net B1</text>
    </g>
    <g fill="rgb(255,204,0)" text-rendering="geometricPrecision" shape-rendering="geometricPrecision" transform="matrix(1,0,0,1,225,21)" stroke="rgb(255,204,0)">
      <rect x="239.312" width="60" height="30" y="67" clip-path="url(#clipPath2)" stroke="none"/>
    </g>
    <g text-rendering="geometricPrecision" stroke-miterlimit="1.45" shape-rendering="geometricPrecision" transform="matrix(1,0,0,1,225,21)" stroke-linecap="butt">
      <rect fill="none" x="239.312" width="60" height="30" y="67" clip-path="url(#clipPath2)"/>
      <text x="250.9699" xml:space="preserve" y="84.748" clip-path="url(#clipPath2)" font-family="sans-serif" stroke="none">Net B2</text>
      <path fill="none" d="M-149.2 12.8 L-105.072 12.8" clip-path="url(#clipPath2)"/>
      <path d="M-97.072 12.8 L-109.072 7.8 L-106.072 12.8 L-109.072 17.8 Z" clip-path="url(#clipPath2)" stroke="none"/>
      <path fill="none" d="M-37.072 12.038 L7.0586 10.9171" clip-path="url(#clipPath2)"/>
      <path d="M15.056 10.714 L2.9329 6.0203 L6.0589 10.9425 L3.1868 16.0171 Z" clip-path="url(#clipPath2)" stroke="none"/>
      <path fill="none" d="M-149.2 82 L7.056 82" clip-path="url(#clipPath2)"/>
      <path d="M15.056 82 L3.056 77 L6.056 82 L3.056 87 Z" clip-path="url(#clipPath2)" stroke="none"/>
      <path fill="none" d="M75.056 82 L119.184 82" clip-path="url(#clipPath2)"/>
      <path d="M127.184 82 L115.184 77 L118.184 82 L115.184 87 Z" clip-path="url(#clipPath2)" stroke="none"/>
      <path fill="none" d="M75.056 9.952 L231.312 9.952" clip-path="url(#clipPath2)"/>
      <path d="M239.312 9.952 L227.312 4.952 L230.312 9.952 L227.312 14.952 Z" clip-path="url(#clipPath2)" stroke="none"/>
      <path fill="none" d="M187.184 82 L231.312 82" clip-path="url(#clipPath2)"/>
      <path d="M239.312 82 L227.312 77 L230.312 82 L227.312 87 Z" clip-path="url(#clipPath2)" stroke="none"/>
    </g>
  </g>
</svg>
